<mxfile host="app.diagrams.net" agent="Mozilla/5.0 (Windows NT 10.0; Win64; x64) AppleWebKit/537.36 (KHTML, like Gecko) Chrome/130.0.0.0 Safari/537.36 Edg/130.0.0.0" version="24.8.3">
  <diagram name="第 1 页" id="gk_bR2nIXbePBgqSjrBE">
    <mxGraphModel dx="1817" dy="764" grid="1" gridSize="10" guides="1" tooltips="1" connect="1" arrows="1" fold="1" page="1" pageScale="1" pageWidth="827" pageHeight="1169" math="0" shadow="0">
      <root>
        <mxCell id="0" />
        <mxCell id="1" parent="0" />
        <mxCell id="5ll_GS7VwqOs396q1sFU-1" value="" style="shape=image;verticalLabelPosition=bottom;labelBackgroundColor=default;verticalAlign=top;aspect=fixed;imageAspect=0;image=data:image/png,iVBORw0KGgoAAAANSUhEUgAAA2cAAAIuCAYAAAA7a3B1AAAAAXNSR0IArs4c6QAAAARnQU1BAACxjwv8YQUAAAAJcEhZcwAADsMAAA7DAcdvqGQAAGxuSURBVHhe7d0LfBT1vf//z25i0GqKAoKA9UYFRHO8YD2m2kLVlmq917bE9lROvaCW3qy90OPPpp7T4q/ltPr7U4sFT8Hzq+G0/qQIrQcrHrVa0IpiI1eLxRsIAiLBhMRk9//9zHy/u7OT2WQTNslseD19fM3M7OzMJ0syu+/Md76T2Lt3b1oipFIp72symfS+5tPW1iaJRKLT9ZqamqSsrEwqKirskvwK3Tc1dowa86NGaoxCjflRIzVGocb8qJEao1BjftTor5dIG95USEtLi+hDAwYMsEuiFbpeQ0OD97WystL72pFi75saqTGMGqkxCjXmR43UGIUa86NGaoxCjflRo79ex1EOAAAAANArCGcAAAAAEAOEMwAAAACIAcIZAAAAAMQA4QwAAAAAYqDT0Rof+Z/H5cEl/22XtlfoMJGtra3e1/Lycu9rR4o9PCY1UmMYNVJjFGrMjxqpMQo15keN1BiFGvPrzzVefOEn5VOf/IQ3HxYerbHTcDblumny/F9fkMHDBtpHAAAAAACd2bH1HTn1H06Wuvlz7JJc7cLZ7t27I8OZ3oxNXTftJmlM7ZLvz7ramwcAAAAAdO4H0+6R9yUPlXt+caddkstlLr25tcp77k5XcCsBAAAAAIornLmSeofrqKan1ioqKghoAAAAANBNmqei8pY2l7ncfMdXvQEAAAAAegXhDAAAAABigHAGAAAAADFAOAMAAACAGCCcAQAAAEAMEM4AAAAAIAYIZwAAAAAQA4QzAAAAAIiBZEtLi0S11tZWSaVSkk6n7aoAAAAAgK7QPBWVt7S5zOXmk7pyVHOC0wAAAACAwoVzVrA5bj45YMAAiWrl5eWSTCa9BgAAAADoOs1TUXlLm8tcbp7kBQAAAAAxQDgDAAAAgBggnAEAAABADBDOAAAAACAGCGcAAAAAEAOEMwAAAACIAcIZAKBHNTz7iNTNXmTaI1L/jl0ob0v9A4/Iw09ulWa7pNdsXScP1z0hK19tsQv6r83L9HXXtlI222UAgPhKNDc3R95lWu9WnUgk5J+nfkX2tO6U78+62j4CAHA2/Gq6/HShnQn6wLFy4eWXyIRzh0mlztf/Qa7/lz95D3Xosmtl9unrCl/3n4+zM/k1LPulfOvOv9u5M+WmBy+R0XauN+x44N/k/GtXmKkz5d/W3CKfGGZet9lfkS/8i9Z0qHxx0X/ItLMrvHV73stSN+Gr8rMXzeTQK+QXz0+R8Qf6j/RH9XdcKFf/q05dJffs+IxUeUsjbF0pP732ftmg01E/V4Gf34//cIZ82m4o+/P/EfNzdUGv/lwBQCn4wbR75JDyQXLv3Lvsklwuc5WVlXnzyeAdqoPNCU4DAHI1v1Mvzz0V0RY8KLd99mr5wjdXSoO34rvR64XbOy1dW7dTW+Xx2Q8GnvdbefjJvj9jNPgDR8ogb2qYDB/aE8Fsj2x+8gn5f9/7mdz++7ftMnWYDD/+UH/yA0NlcD8OZl3zrmzp6Ocq8DO5J3CqM/vz/27vnwEFgBIRzlnB5rj5ZPAO1cHm7latDQDQmSvkzpcXyDLTfrf0Rvn4UH/plnnzZEm9mTj+TPnFohmZ9p3J/uMi58p3Ast/ccGRXVu3M6/Wy8OP6sQYOWm8ft0lSx5d3+cfpAd/6juySF+vN/5dPt0Tp1u2Pic/u+TH8r/vXiY7cr7Zw2Ti3P/w/p3+9PAFcoxdCgBAT9E8FZW3tLnM5eZJXgBQFAfLIQMPkUrTRpx+gXz5h2fa5X+XFg0HAz8g48+uyrTRx/uPihwpowPLx48+pGvrdmLDHxaJdiiUs86XyZcf6y3beedyeXGvNxnQIg3v7PGan2XM/IZ1svLJetkQcW1Ws123wZ1l2btVNph1Vz77mjS023aEvXvMHoxmt79cze+8JvW6PdPqN4TXMbW9+rL32Mon18mm8Jkes+1MXcrsw6vV1tVsH2uJOkNktr3Dft/6veyI+l687fvNvVab610t3oKCNL9jX7PI71Efd/uxdQZfY39Je+5162gdAEBsEc4AoCc0v2snDhUZYCd7nQkwdf61ZqfVVMknzjpP/Jz3oPzxqT3eVMazi+Tc4yZ7bcGyl6XuM1+Sc6tvlhsumS5fOPVyueTLywMDSrwtj0/z1z132gqpX/Zz+dLIq+ULZt0bJt0g5546XeY/GxV8snb84Q67vzvk8a12oXqnXuabfX/kuBvkat2eaVdXT5ZbHvC7Ju5Y9jO5ZPDlZh9f9R674ZKb5bPHfUmuv2NdJtzUzzbbrTbbtfOPTzM16b5mrzNzubXv8FcxWmTTA7+U60+4XM6337d+L+eP/IJc/73cwTRyan92pdz+icvl0onZWn7w++A3FGHrSvnBKRea79G+ZvZ7vOTi30p9Jgx28hqf8jN57FW7qmePrLxtunzSvW66zid+KX98yT4MACgJhDMAKKoWaah/RH5+m/ZlNM6ZIh/POwpDD6uvlyU68IVUyYVnDTNfzNeTvEfkgQfq855ZqZt2q8x/rUomf+18OdNen7VlwQ/lltkve9M5nv2lfOuzK+WQKVfI5MljZLgu21YvP/+nObK8C2eRPHvrZdaE6fLzR7eZmUPl6HPOly/+8GL51HjbR1S9Y0Lv+HNl8sxvy52L/kVunXqaDJJd8ty//pvMsdfSDRhYJaed5a5pExl0vM6bNjD/tW07fv8zuf7aB+U5s+tBx58ml3/tCrn8HN2v2fbd35dv3ZYNf1nr5Kf/9DNZedTF8sXJVXZ/2+T3Nz8h9l8/j3dNlBojn5p6o/zbb2bIj2ddLGeaXe18ar5868f17fejr/G0ehk+9Qr51Fn2ernXlsntD2jY9G2u+7HccGe97DTTg47/iP9vt/sJWbDAfxwAUBoIZwBQFPPl6sEXyhl6VmfiHfJH8yF/+AU3yv+de56MsGv0rhZZufC34p04OetcOe0onThOxtf4XRtlwQpZmSc87Tz9OvmPFd+Rm279svyfx26RL9pA92JdvT+aX9C2w+TCpbPl//z7FLnp5/8uv5hju3Nue0gefzZ0dq4TG+b9Uu59TaeOlS8umi2//e2XZdr118n3H/4P+bcLDvbWOeTcr8uih78hN/3zR6X67Gq58EdmnbP0kV1y77N+eBz9zzNk9pwrMyMTVn372zL7QbMs78iW62TJzX/ygo2c83Xzvd8m3711inz3t7Plnq/5r9dLd94nf8w5U6V2yehb/11+O/c6mfbzGfJ/fmhf223rZUu7dQMGnia3rvp3+f6PLpBPnFslE2uuM/vzq91557qI1/g4mWZe4x/+aIp8/8Hb5Bv232Pnym32jN46+eNtz3lTfv323858H9/wrjMEAJQKwhkA9ISzrpBbZ10gowfa+d62d70sr9vlTR5/wXGZgDg607Vxmfx+WXAUw6zJU8/MBsoDx8qEy+z0i+tkc7jH3lmXyOWnZ89IjTjrozLBTj9Wr2fACrVVNvzBDvd/wWfk8rNzr6cbcKC/jwEDD5GGDfXy8K8WyU+/PF2uv/j7Musp76Huq18vD9tSPz5lfCBMV0jVZR+1Z8Sek+X14dfrWKk+aZidNq/t6S4JrZAtHX3rBx4ile+8Jisf+IPUfe9n5nuYLl9zZ1qjnDReRnvhWh0nJ51rJ/+w1e+W+errstzub0JNVaD+42TCP/fVaVsAQHcQzgCgKPQ+UkvkmTU/kC/qZ/Sn7pcbPhO8hqh3NTz1hNxrP7C/9C9flTO8s3qmTZzjn00zHq+LvjHxYBuE2ntP2l1JNrAi7yV1O9uv3YG3ZYcLWeOH5jnb+LY89mW9Fm663HLzb2X5ayKVx58m4+2ZpG5rbsm8JqOHHWanrKHDMmfgvIFdcgyTwYEelzooTCG0C+Ulx90gN1x7l8zXLpwDj5Tqs+xZtyhHHSaD7aTn/fars+1tEx19Jx2VDYtqwIDCapIDD87dR0jDOx2lTQBAsRDOAKCYho2Xa390hX92auV8uf3HUdcq9bQ9svKBh+x0Bx59Qp6L6H63Y28wVO2RPV5XQ3WkDM/97C/yTkvu92eCggt8E0yoKFyFVLiQ9ejrkaFR6h+R2xdoSDhNvrP8/8pvH5whP/n3z5j9+A9329DDzBZ9L74aOjX42suZgUWGDy0w6HToZVly8zLZYqbOnPkL+e8VM2T2f35Zrrog/MJ2gUnH7vq6cP2bX81el9ahgYfJ0ZnX/2XZZCd9LbLhqeV2+iNy9AfsJACg6JItLS0S1fRu1W1tbTk3RwMAdG7A6VfKTVP9gRteuvPnMqeTkQuL7p16edwOBDHoazPkT3pGL9iWXpXpqrfkqfYjCy64+4lMOGquXyZ18+zMlKr29wV7apE88KS7tmyPPDbPXucmx8ppx3clcASuh3tqnvz8gWBde2SHCYE7XlrvXxcmw2SEC2Sv1ssf/2Cncxxg4p6v/tnXOw7IRx0nE2wweXz2E1KfuRZvqzw8+xF/cuj5Ul2Vf0CRgm19XV60J6FGZM5ybZWVC70bHnTP8WPlE3bSq9+drX31CfNv6Xdt7Vzw9b9LbrttuWzaqsP4vy0bHpgjP7/Tbuec8TJ6H3IkAOyPNE9F5S1tLnO5+aS7G3W4JRIJr+k0AKArKmT8175sb0T9d7n3e4tkQy92b9z8h4fk93b6E+eMad/t8PQqqbHd8Z6bvaLdABSDnp0nl57yTbn+4uvlkolz/PukyWly69fGS6U3HTD0bVlyyfXymYuny5dOmSzfnud/iB809Tq5vIuXO42umSKXe2dldskfr71azvBq+KZcMniy3L7sXRl8fJW9Xu4h+cFEvd5sunxm0i+lPqdroTVsmJzkBs64e7p89hNm3TvynUU6Ti7/96vEW33lfLn6uC/Jl7zv52q5ZaF+P4fKx394hVQX4/rBYUfKabauB6Z91fserj/zm/LTZ+0ojN1x4Bi58H+N8ae1/lOv91+3U38pK/2lBRl92ZWZm6e/eOcP5bPjdCj/f5IvXPuQeIN+Dq2S79zaVwPcAEDpCuesYAtmLm3J4B2qg62srMy7W7U2AEAXDavO3ohauzfOixiGvkdslececFcgXSwTAoN1ZI2V0+yZPXnxEVkZGouiZtYt8uWjzHaeet0/U/WBM+U7j31bLozqPnj6dfKTe8dLy1P18qLX/fFQs+1/kf/4UVXXb+82cLx89/GZ8o3L7DD4r603NayXLUOPlOEDDxCpOl++P/NMb7j+nS/Vy3MviVSbWm86XVcO8wPXaTZsbDHf5Cv+ZKQBp39G7lx6rXzcu3XANnnRfj86LP03Fv1/8sPLi3W6yNQ160aZoCF02+vm+zM7Oecb8pMfjvUf7pYKGf31b8udU+1w/t5235bRM2+T70/1ViiM+Zn94YrA659xqBx92VXy40U/kE8zvggAdJnmqai8pc1lLjefMAkt8tSYnlbTh6ZcN00a3tsh3591tX0EANDvPPtbOWPSfG/yy0uXyFUm8DS/s0dazAf/ynb3B3tbHv6nf5JbtDvhBd+Wh/7zozJ47x5p0L6DAw6RygO9lfaN255RMfCQ3KBnH2u3PFKLNLyj3Uqjvo88MvvuwnO6zNZVrNfLKdq/g3vdCn2dAQBRfjDtHqk8YLDUzZ9jl+RymUuDmeK0GAAgkg5bX3A40eHhdf1iBQ23vahgYB8rLDBowNL1uxCyMvvuqWCmbF3FDGaqaP8O7nUjmAFAbyKcAQAAAEAMEM4AAAAAIAYIZwAAkdMvkWUvL/Da5MgBNoIOkwmz/HWXzTqzw5sXAwCAwhHOAABG164x8q9H09aT12UBALB/IZwBAAAAQAwkGxoaJKo1NjZKU1OTd8dqAAAAAEDXaZ6KylvaXOZy83nPnOkN0bQBAAAAAIovnLmSlZWVEtX0RmgVFRUENAAAAADoJs1TUXlLm8tcbp5rzgAAAAAgBghnAAAAABADhDMAAAAAiAHCGQAAAADEAOEMAAAAAGKAcAYAAAAAMUA4AwAAAIAYIJwBAAAAQAwkW1paJKq1trZKKpWSdDptVwUAAAAAdIXmqai8pc1lLjef1JWjmhOcBgAAAAAULpyzgs1x8wnzv8j0pclNH5py3TRZt3GdnPKPx9tHAAAAAACdWfX0SzJ21Fipmz/HLsnlMteAAQO8+U7D2ff/7X/Lb/7fQrsUAAAAAFCoz11xmcy47VY7l6vL4cytmE+h6zU0NHhfKysrva8dKfa+qZEaw6iRGqNQY37USI1RqDE/aqTGKNSYHzX66zFaIwAAAADEAOEMAAAAAGKAcAYAAAAAMUA4AwAAAIAYIJwBAAAAQAwkmpubI0dr1LtVJxIJKSsrs0uiFbpeY2Ojt05nI5Yo3aYqLy/3vuZDjR2jxvyokRqjUGN+1EiNUagxP2qkxijUmB81+vsuu+WWW2q9qRAd0lFX1NaRQtfTHSeTyU6/aaeY+6ZGagyjRmrMp5j7pkZqDKNGasynmPumRmoMo8bSqZH7nAVQIzVGocb8qJEao1BjftRIjVGoMT9qpMYo/blGrjkDAAAAgBggnAEAAABADBDOAAAAACAGCGcAAAAAEAOEMwAAAACIAcIZAAAAAMQA4QwAAAAAYiDR3NwceZ8zvcmaKtadt3vqjtqKGqNRY37USI1RqDE/aqTGKNSYHzVSYxRqzI8a/fXKbrnlllpvKoIWqa0jetO0QtbTHRf7jtqqkPWokRrDqJEa8ylkm6qQ9aiRGsOokRrzKWSbqpD1qJEaw6ixdGpMmGIiz5yV4h2186FGagyjRmqMQo35USM1RqHG/KiRGqNQY37U6K/HNWcAAAAAEAOdnjlb+ODvZdGSh+zS9nQdbXqKryNtbW3e10JOAxa6zWKvR43UGKXY+y50PWqkxijF3neh61EjNUYp9r4LXY8aqTFKsfdd6HrUSI1Rgtu85MLzZfJnLreP5AqfOes0nE25bpq88MI6OWLIaPsIAAAAAKAzb27fICefPFbq5s+xS3J1K5xtfSMl11x2t30EAAAAANCZuQunyrCRyYLDWcfn7gAAAAAAvYJwBgAAAAAxQDgDAAAAgBhI6nj9UU3vgN3U1JQZlQQAAAAA0DWap6LyljaXudx83jNnOkRkIcNEAgAAAAC6Lpy5knqH66imI4ZUVFQQ0AAAAACgmzRPReUtbS5zuXmuOQMAAACAGCCcAQAAAEAMEM4AAAAAIAYIZwAAAAAQA4QzAAAAAIiBRNqw0zlaWlpEH5py3TTZ+kZKrrnsbvsIUPrW/v0J+euGpXYOKB3/MHqSnHDsR+1c1214dYU8v3axnQPQHfv6e1gMvI8B3debv8NzF06VYSOTUjd/jl2Sy2UuHbVREc6wX5q78Hp5c+eLMmL4cLsEiL/NW7bIEYNOMsfj2XZJ181f/FV5detKGTlihF0CoCuK8XtYDLyPAd3T27/DhDOgAPqmNmykmF+UuXYJEH81V11jjseyz+Hs4EP3yAML7rVLAHRFMX4Pi4H3MaB7evt3uKvhLKkLolpra6ukUilvZQAAAABA12meispb2lzmcvNJXTmqOcFpAAAAAEDhwjkr2Bw3n9RTaFGtvLxcksmk1wAAAAAAXad5KipvaXOZy82TvAAAAAAgBghnAAAAABADvTJa499efVpeeIl7caB4Tj5+knzwqH+0c13HKFcoRYzWCPQ9RmsESlvcR2vslXCmB5DN2+vl8CGD7RKg+97avkNGDKnap18q3tRQighnQN8jnAGljXBmcABBMRXjl4qfSZQiwhnQ9whnQGmLezjjmjMAAAAAiAHCGQAAAADEQFJPpUU1d7fqPL0eAQAAAACd0DwVlbe0uczl5pO6clRzgtMAAAAAgMKFc1awOW4+qRefRTV3t2ptAAAAAICu0zwVlbe0uczl5kleAAAAABADhDMAAPYbe+XhhXukzrSFz7TYZd235jF/W3V/aJKtdhmAOCju7zp6D/c5K7b6mTJ+Sp2dyVUzb6XcXCWyffE0mVS73C6NVl1bJ5OW1kjHq1VL7dJZctEQO7uf4D5n2F/tF/c52/Cu1K2OvtZ58ImHyCdGm4kO1sk4LClHNabk1WY7n8dRZx8iZx1uZzwt8tQfWrrxvFKhH9haZYeZOnBkhVx2RoW/uJs0nL3wtpkYUCbnXHCQDPMX92vc56x4Mj8/7STk5MsOlnEF/z6Wy7tP+j/X+bltBhR0LCmXmokH2plSUtzf9f6E+5who27KeJlZb2eAbmuTpT9vlfvC7d42/y/XayMeC7QHHmuNfr5rbjthb7XJA+F1F7bZB4sksI/VdhHg7Fi9Rx7eYGfQTQfKJy47RGpMK8aHtXET/W3V7CfBDL0lLS8sfFfW2Dl0x779rruz4px1632Esx5TI/NWrpSV2pbWSrVdWre0XoZcNMtfnvOYngWzy0ybddFouWhWdn5prd1Cda0stctWrtz/zpqhAw1pWZYvWO0rDU2/ScteO9t1NlCG6ttqgqIGsaVr7QIgQ//KbT/4n11mPmb4dmw2P4WjD/aXe61cBtvH9MxaZvnE98lZF2TnzxlpV9IzPG4d09qf/aro5vMAdJuenQr/zpmA9vqGQn8fs0FE28mH2fUC260JnzVTBR1LSvGs2b5qkbcb7SR6HeGsNwyplkkunQFFdPKXy+VKbefYBSagbT/BLjPt3BPt8hGJzLLLJ5bLJDt95WcTmQ+9mW19sazdX8C3rrbBrDIh57r1vpyUo9wbYGfeEnnXTgZtD3dnObxMLrfbd6UD+nMx1O/tERPBazn2ylN/8Kf9s3rZx7IteAYg9zqQrc8E1mt33Vb7bbm/Yudc6/VWkyzMrGP3lbNsjzxlfgd9ufvP0O5dgfXzPce1yDq8Jb6c78u27PaCj2u9udvn7Oj+bdix2T/GxELgd+nhDdmfVf15jvo5z/m9ynlu4PdF22OhP3d2+DtotHvc/13P+V1y63i/j+1/1zv6vcvU7dWc7Uq6940W73F+L3sP4aw31M/LXDtWM6nKnwCKaKv7VGTCU4+eTDXhb1XmLFdSzp5YZqdVqLtlsJulO+umZ/fMYw881iZP3tsqL2zWhSI7HvWfszqwDa9bo+vmqNsKdtcMdadcvTD72NK12W086d7Ywl09i90dEz1rw3uZDwqDR8Trr9h732jNvR7mrXTEHyLS8kLEgBn6oefRN+yMam6TP2c+2OkHp86uoTHMcx59ss3//fLovswHrZxlIq/+pf3+Mzq87qbAOgL0A2jO92W9+mTUBzztvpa7/R2rbcDEfmnNavezm5Aj9RrTGNmxOvSzGnF2SX+vo4KMdsvOub7u7dbseh3+DtpQ19m1cfq71Ok6Tvvfu3x1o/cl3d2ow03vVt3W1pZzczR0RZ1MGT9exmuzA4RU1y71BgQBiuUFGzaW2Qu0jjq//VmvYhg2MSlHVfrTLkg98FjKX6C8EJXO/QCnQaxoISgtTz1qJ9XmdKYrpAYzF/LUjkdDdWhtweeiROiHB/tXXfuBQy9q9wYEiZVs90uvtsMPkstcdyiv2a5SJkT9LfhXcJXpmlUhR9kzg3u32z9qbGizP8eB7p2mRV07ooOT6GOZrlwmLB5su2VluoFF7d9aY36fPDldwGzXzS7U4TEfMt0HUP33cuu72qKCV6YL2YkJu0S7s9lJ7B9MUHFncNzPz1FnR3RD7GuB7pT6+5G55tI29/vmdb8Oy/x+ZbtPuvU6/h2M/p06Z2T78yuZxwu4BjTbdTNUj3cMyx6T3Dbjd+wtLZqnovKWNpe53HxSV45qiUTCazqNIqiZJ7O4QAw96KjPlsvZPXYdTFLO/mKgm6Sxd3UqcwYq0+0x030y4R/szRvOau1m6bpP2m6Rl08s87Z38ghdaN4kzumkK2ODyFDz/XldKW1IfHerhsM2ed0GM7eNYFfNHMEumZcFz/ihJJgPLXEcbezAkQeEPkDq6HI2VHot/1mnA4e4P6ZUyAfDbw+HJe3PcTak5nSXcsyHxQ/a3/vB7/O/Bs84FNJFLPO8wAfkTHeqQuuwtu5ynxkSMibw7zXOHBt8aXk7JyQGzo6MLst8SMT+TYNDHK/rHPzBUOhx3Qhtizpj7GTP+h8oR4YuCejodzDzO2V+1z8c+J0adsZBoWNP7u9ch8y2Ts6ErQPlZPdHnMZ0/jPs2CfhnBVswcylLenuRh1uZWVl3t2qtaE77AAfbsCPuikynqEaUWQayNz1Zq/+pudHOBw20YYbd42bCV/adTBz7ZiZ97sOhs5e7SsTrI733qiTcpgNZx6zb9eF7MgT7IRZ72A76Tk8IUP1ObZLpdaX6e6IWPPOCLnBQPRDS/gajdjJDvsd9VfpLvH+ep37XO/ajx54DYadYerMnLXyZbog9mId2I/ZM1KZM0+lMDKr64oYOJuWHcykazr8HewFUd0zUVyap6LyljaXudw8yaunDblIat1Iiyagkc9QdCdkzya90EPXUumoijmBZkju2akh7q+AgYFHXOutgT1ed9fCrQ0HQ/+sX/CMWm8EWRSJCQcfdh94gtdoxFJK3g1ef6Yy3QK7IzsCXeZDX0/9ZTszal22O9O7u9wZssLrGHZodNfETLetwJk+IGzYGdmfv7hfe5g9S+y0yN+228nuyPM7mPmdyrkm1ez/mabuvz5mWy+438+3mmS9+wPr+xLtukPubQxcwoBeQTjrBUMuqpVsPpsp5DMUlwkf59vgYc9k9QQNNP5ZMdPcAB/2jNawE7P7z6xjWrsh8jMDguQe7LMDgnSROytmuG3cF76+zA0Gsk+3AkBfKp0PbEk5OFOn7er0t3TmjwJdkq+7VMSHp32VM4JcYJS2gw+t6Hodow8I/Ftln+eumWnXLQzIUSFnfch1xU3LCzE+QxsMTY96P+ctss1f0mUd/g4Gfqe8s9Z2vUff2LfQlPn9DAwedNSJ7mhVIYeFuloyWEjvIZz1iiFyUa27n1mdTJm2WPbljytAO4eXyRh7/VZPnBXKhK8gPUvmht3XIfDzXeulAvUFnXh2B88piJ4Vs9e3WUeZOtz8YXn+Qq/dQRmqv5SEPrBFjHwYD8E6VUJOvqA8t5vtvtDBAnrpnkvaLTPvAAAd1uHflyqqe5d2U2VQAXQqdLa8o2sc+9Tog7OD8Bg6cMaHizi0QPZ30P+dCu7LMyDZvS7THnNsCnWj1N/P4HV+4yZ2s0s29lkirVeeRdDRQvShKddNk60mnV9z2d32ka6bu/B6GWZ+0ermz7VLgO6rueoa8zMp5mdytl3SdfxM9l+Z0Rt1AJCIe7aVsmL87M9f/FU5+NA98sCCe+0SAF1RjN/DYuB9DF2l9znzz37r6KsxHA2zl/T27/DchVPN72rS/K7OsUtyucyl15spzpwBKGl6PZzrRqnNDas/+EP9K5gBAID+j3AGoN/RbouT3OiNAAAAJYJwBqCkZYb3D7Seu98bAABAz0k2NDRIVGtsbJSmpibvjtUAAAAASpd3PzVvuP7993qzvqJ5KipvaXOZy83nPXOmN0TTBgAAAAAovnDmSlZWVkpU0xFDKioqCGgAAAAA0E2ap6LyljaXudw815wBAAAAQAz02n3O3mncKKefdopdAnTfs8+tkoHvG8V9zrDf4T5nQN/jPmdAaYv7fc56JZwteuxH8pfVC+0csO8+dOLlcsnE6Xau63hTQykinAF9j3AGlDbCGRBDvKmhFBHOgL5HOANKW9zDGdecAQAAAEAMEM4AAAAAIAYIZwAAAAAQA4QzAAAAAIiBpF6EFtVaW1sllUp5F6gBAAAAALpO81RU3tLmMpebT+zduzcyfbW1tUkikfBGa3xri45owmiN6D90lKs9zZtkwkc+bJcA8ff4n/4shww4Zp9Ha9zRsFY+NuEjdgmArijG72Ex8D4GdE9v/w7raI2HDxe5d+5ddkkul7mSSb9DI0PpY7+08NEfysq1v7NzQOkYf8Klctk5/2Lnum7Jn2bKir/+l50D0B37+ntYDLyPAd3Xm7/D3OcMAAAAAGKA+5wBAAAAQAkinAEAAABADBDOAAAAACAGCGcAAAAAEAOEMwAAAACIAcIZAAAAAMRAUodvjGrubtV5RtoHAAAAAHRC81RU3tLmMpebT+rKUc0JTgMAAAAAChfOWcHmuPmk3vAsqpWXl0symfQaAAAAAKDrNE9F5S1tLnO5eZIXAAAAAMQA4QwAAAAAYiCRDnZ2DNAL0vShKddNkxdeWCdHDBltHwEAAAAAdObN7Rvk5JPHSt38OXZJLpe5tEuj6jSc/Wfdb2TZ/zxhl7an62jr7Nq0trY272tZWZn3tSOFbrPY61EjNUYp9r4LXY8aqTFKsfdd6HrUSI1Rir3vQtejRmqMUux9F7oeNVJjlOA2zztnglx91RfsI7m6HM7civkUul5DQ4P3tbKy0vvakWLvmxqpMYwaqTEKNeZHjdQYhRrzo0ZqjEKN+VGjv17H8RAAAAAA0CsIZwAAAAAQA4nm5ubIbo16t2qlY+93RNdLJBKd9r1sbGz01uns1J7qyr4VNUajxvyokRqjUGN+1EiNUagxP2qkxijUmB81+uuV3XLLLbXeVAQtUltHtI9kIevpjvWCuM6+aaeQbapC1qNGagyjRmrMp5BtqkLWo0ZqDKNGasynkG2qQtajRmoMo8bSqZEBQQKokRqjUGN+1EiNUagxP2qkxijUmB81UmOU/lwj15wBAAAAQAwQzgAAAAAgBghnAAAAABADhDMAAAAAiAHCGQAAAADEAOEMAAAAAGKAcAYAAAAAMZDYvXt35H3O2travK+d3WSt0PWam5s7HeffKfa+qZEaw6iRGqNQY37USI1RqDE/aqTGKNSYHzX66+UNZz1Bb9jmbt4WV9RYHNRYHNRYHNRYHNRYHNRYHNRYHNRYHNRYHNRowllab0kdwd2teuGDv5dFSx6yS9vTdbQlkx33kCw0PapCt1ns9aiRGqMUe9+FrkeN1Bil2PsudD1qpMYoxd53oetRIzVGKfa+C12PGqkxSnCbl1x4vkz+zOX2kVwuc7kzcp2GsynXTZM19c/LCSMOsY8AAAAAADqzdvMeGVd1qtTNn2OX5OpWOEvvfEnuu/EU+wgAAAAAoDNX3rVKEoOOLzicdXzuDgAAAADQKwhnAAAAABADhDMAAAAAiAHCGQAAAADEAOEMAAAAAGKAcAYAAAAAMZDU4RujWmtrq6RSKW9oRwAAAABA12meispb2lzmcvNJXTmqOcFpAAAAAEDhwjkr2Bw3n9QbnkW18vJySSaTXgMAAAAAdJ3mqai8pc1lLjdP8gIAAACAGCCcAQAAAEAMEM4AAAAAIAYIZwAAAAAQA4QzAAAAAIgBwhkAAAAAxADhDAAAAABiIBm8Q3WwubtVB2+OBgAAAAAonOapqLylzWUuN590d6MONyc4DQAAAAAoXDhnBZvj5pPBO1QHm7tbtTYAAAAAQNdpnorKW9pc5nLzCZPQIk+N6Wk1fWjKddMkvfMlue/GU+wjQOm790+vy4PPbbNzAND7Lj5tqHzxI0faufj5rxVbOE4C6DV6TPzcmcPtXP9x5V2rJDHoeKmbP8cuyeUylwYzRTjDfunzd70g695KyT9UnWiXAEDv+Wv9ahl7eFJ+fePJdkn86HFyzbZWGTd2jF0CAD1jzbr1Mm5oeayPid1FOAMKoB86ZNAo84sy1y4BgN5Tc9U1Ijs3xj6ccZwE0BtK4ZjYXV0NZ1xQBgAAAAAxQDgDAAAAgBggnAEAAABADBDOAAAAACAGknoRWlTTu1W3tbV5F6gBAAAAALpO81RU3tLmMpebT+rKUS2RSHhNpwEAAAAAXRfOWcEWzFzaku5u1OFWVlbm3a1aGwAAAACg6zRPReUtbS5zuXmSFwAAAADEAOEMAAAAAGKAcAYAAAAAMUA4AwAAAIAYIJwBAAAAQAwQzgAAAAAgBghnAAAAABADyYaGBolqjY2N0tTU5N2xGgAAAADQdZqnovKWNpe53HzeM2d6QzRtAAAAKHE7HpHUQ1/320a7rJQFv5+HfiSpHXY5UGLCmStZWVkpUU3vUF1RUUFAAwAAQIzUS+qZJXYaiD/NU1F5S5vLXG6ea84AAABKReaM0T2Ssov2OxufsRNDRc64Q5Lnf0+Sg+0ioMQRzgAAAErFrlfsxP4r3bDVTg0TIZShnyGcAQAAlIDUn78uqQ31ds581TNoyx6RtF3idffLXIdV6Nm1Ap6Tc32XttxrvNKrzHwHj4evd/O+Dze/yg9aOcv+7L7HsK3m+/26pLdss/PZ1yDz/ODrEXmdnft+uU4N8UQ4AwAAKHVeELnHzjgaXjoIaAU8xwteHVzfpaEoG5YcM/9MMBAFbPi6yDt2Wm0x+zKBK2fZO2ZZFwctSQyr8idaXsmEs/RrrvujsdUGPtclsuIMSXDWDTFEOAMAACgByQ/fIcnRNoSI+Xq+mT/3PEnoGaVVNkANvFqSutw0GagLTCixZ6dyFfAcE94ywSuwTnL0Gf6yjSbYuVA1fHpoG8aGiGDotnPGhXaBbv9CSXjPvdpfpFyYyjHMfL93SGL4UDsfeA1G2Zq0di/YbZX0DrPtCrtuk5k3XzJdIgdXmdcNiB/CGQAAQEkzIaTFTupZJ9uVLxOcGm3AylHAczLXt5kQ9GEXCo1R53kDcGSv/TKPnTLMTpsPl+4slglIEu466B4bnF0/G5TMYy7YdVnguRrsdpim399gG9panjFhzQY2HUjkA4H9AzFCOAMAAEDJy4RCPUvmBUsNYefZ0KZh0wVSBhJBfBHOAAAASk7wrJQJIRV2MtC9MNOCZ70yCnjOoUfbFepFgoN0bHzEG0wjUenOPrmuhL6U65LY29d1ua6NepZsk9bgh7BMaNu02P868Aw+ACO2ki0tLRLVWltbJZVKSTqdHQMIAAAAfSgTmLb5g254oxMOk+QxNoBsmZHpoui3iOu+PAU8Z7A762QEuj6mNthBNUZdmA14G7LPz3SNPEavh+tN5vtxZ8n0DJkLYe41a9EujUam2yXQOzRPReUtbS5zufnE3r17I9NXW1ubJBIJmXLdNEns2ij33XiKfaRz/7Viizz4nP0FAHrBxacNlc+dOdzOde7zd70gMmiU1M2fa5cAQO+pueoakZ0b5dc3nmyXxA/HyfjSERQzA3VUXCgJb1AQQ0dfDI+s6B4PPjb6DkmO8ic7fI6dzdmfx4Sb86/OnH1q//hQkTMCN4aO3LcOaW9HitQzd/aaNR390Qt3OnBI5Bm/4P5y6/BsNCHS3W4gsy8dgn+G7dIY8Rz0uVI4JnbXlXetkvSho+TeuXfZJblc5kom/Z/KhElykeFMk5s+pOEsvfOlLoUzPaCv2dYq48aOsUuAnrNm3XoZN7S8S7/QfOgA0JcIZwCQ1d/DWWLQ8eZYOscuyeUy14ABA7z5HgtnHNDRW7rzC83PKIC+RDgDgCzCWTaccVYXAAAAAGKAcAYAAAAAMUA4AwAAAIAYIJwBAAAAQAwQzgAAAAAgBghnAAAAABADSR2+Maq12rtV5xlpHwAAAADQCc1TUXlLm8tcbj6pK0c1JzgNAAAAAChcOGcFm+Pmk3rDs6hWXl4uyWTSawAAAACArtM8FZW3tLnM5eZJXgAAAAAQA4QzAAAAAIgBwhkAAAAAxADhDAAAAABigHAGAAAAADFAOAMAAACAGEikgwPsB+hN0PShKddNk/TOl+S+G0+xj3Tu83e9IDJolNTNn2uXAD2n5qprRHZulF/feLJd0jl+RgH0pe4ct3qbHidfbzpIrrjsYrsEAHrG/QsflCMPaor1MbG7rrxrlSQGHW8+c86xS3K5zKXD6KtEc3NzZDjTu1WrL13/VZG3/0Y4Q2wRzvqz3ZJaudAckMxk+RmSGH+CJPwHii69abGkt+40U4NETrhIku/3l5ec93ZK6q+/Mb8Tb5iZg8z38j1JHuk/hPgohXD2zV+vlUXPbbNzANCzLh0/TGZeOdbO9R8azuSwD8q9c++yS3K5zKX3O1OJvXv3RoazVCrlfdUzZ4ldGwlnKFj9zPEypc5MVNfK0lkXyRB/cY8hnPVnWyW1bIZIi5msuFAS557Xc+Fs1Y8kvUU/iA4VOcMEmsH+8pLSWC+pP91jDuB2Xo2+Q5Kj7DRioxTCGQBg32k4Sx86Km84c5lLb0TtfXV3ow63srIybyW3Yu+rl5njx8t402bW20V9ZftimWZrCbc+rw2Is7bdklr/iKSe/Imk/rrVLkRPSa9dmA1mQ66WxGnTRA638wAAoE9onorKW9pc5nLzDAgCoOfsekbk5SUiDW/kns1Bj0g3a7dMVSXyoSpJDPtg6XbPBABgP0Q465JqqV26UlauzLabzWcgAO2lG3dLuqnBzhltDZLebZY1vmcX+DRQpDY9J6n1pm1tksh+1nl0/Nz3/P0F9pnetclf99U3JJ1bRnvv7bbbXiup3flWNvvYYbep6+1oX3+62Szz6jBf28yC98zXV9tv13u9XL2h3bXbRlib/71mA7DZgFtf9xe13TzLM3XsMdu0ywAAQO8orXAW1b1w2mLZ7j8oi6eFl6ls98hpi83SDrfRTYFtzqx3+5smurtO95fzXP96LbeeV68RXDa+XT/KwPftNbtfI/O8DvbnC9XsLZppt5dtubsOvq71mRqiu3lm1x0/fqaZ821fPM0ua/8YSl961a2Srn/czhnbZkn6KbNs1Tq7oElSq8yyR28TWXuvyMumPTdd0st+I6lGu0pehTx3nb8/b5/PS+rp2yS9/A5/3dU/kfQjP5HUW3bVsF2PSOqRW+227xYx20itN+EnIP26WeeP35L0M3abut4zpoY/zsrd7tqf2TrM101PSepRs85qt93pXndPLwS9dl+23tXBLqAmJD1tnqPLn/5vkTK7OGjX497jksnC5jX2tmW2ufupyO2mV7u6THvJpbOd5jVy677SY9f3AQCAaKUVzrasl+V2MmN5rUzyEsEQuWhqjV22VJZnQsZS0bEpRGpk6kVDOtnGvqubMsXuz+rC/uqm2IE0rOW1tTLNhJ7gMrNSKFRNktqcHSyX2kl+yKqa5F6P9bLFn5Lt+trY6bqldkPuNaqeJNXmJfJCU85OfVqfC4xBy2unhGrIVT/TvSY1Mm/lzdrhytvHpI6ehNJ3QKU5wvgjD3mSZr7ctAP8Zem/zjK/H38zU2Z+0GUiR0/wJqXlzybkmEDhrRWty8995z6TO0y4qjQ/fXY0JJE3TKC7T1LtzkRtE9mwRKRirMhBpl5Pk8imJdl1dzxigqdZxxtgyWzvYLPdg+26raau5+6JCJi63d+a1YPbNRt4Y4l3NizxwbPsMmNHffZ7aH5e5F07ffiH8wSmg8x23TaVqUnntQ3+oDfr2f2K3e5uSe8KjMK3ywRZ/dq2yR98RQ0xzwMAAL2qtMJZ1c05XQpXLq2Val1et9Q/41I1yXz8V8tlvU0j9UttyKiZ5IWCTrfRIQ0+nZzp0REKvW3PEs2CXdpfzbzcdcz+zB7t9ubZ7y0bqjKhJ7PPlbK0Vp9pnjXPrJN5PerEf8p2k1tNIKqu9re/aZN3Rm27+aqqJ1XLkO2LpdaFJldPZrsaxGqzZ9cyNHT567Xr5lk/04ZL7RLqB7NMHUZ17dLMPlba4Ib+Ifmhf5Xk6Z+0c8awaZL8uFn2oRNMCFgr6S061Lsx6GpJ/OMESY67TBJjzvCXNT0u6R3+ZDvdeu5QkdNnSvLsq70apNKEGZUyvxh2UzmGfl0S514vyYm3mnXtspT5PdllJ9ebYOYZJHKy2e5HzXY/+q+SGG1/gnW7ayM2nNmuqWGQrUEL0EvFysxz3bIWE87sibr0puf8CRkpctwwOx0y+Cz/+xpo58W8xvpaf/yz5iB/jMj77XbfNa+dfm17xcubmUD37t/85VvNco8JkAy/DwBAryuxa86C3eNMm1RrYkhQlbiTRX6AqZdsNnMf+zvbxr6pmRoeOr7w/WVqHHKMfpzyeIHJm8p+b77tmq18eibObj9zNsoLXqHXY/ty8bLZpEn+9r0zjC4oVcskPW2WOdNnwtSUbFQaomfVvKls8HWqa6fkCVVLzTbsObN5Nqx6hsgx9htcXjvJvjZ0adyvbF2XvT6q+RlJPz1fUqalX3WBZlsmCLXTnecefJ4kMqMWHiTJ4e6skEkou9wgGo4JMocfY89QHSCJQ0ywy/G3bPfBig9LYoSdNhKjPmynjF02CGUEt2vWzZyZMvu3QSx5jA2YYkLSq7rwPUm/ZbuBHjxBEt0c3CO7L7Nd7XL5hv1te78JcUrP9plAm95pDyoHnyYJ/16YAACgF8U3nG3fJC57+DTk6JmiwKAcmTNMWZmufHpmKrONGvFzT2Hb6EjNPPu8gs707Pv+9lXm9dCw5gUvDWEX2dCmQWuLrPfSmAmEualy3/mZz5PpQmlV3Zw9G+erkynBa97QvzUFAtG7z5t8YpuO6tiZ7jy3/KD810+lQqNv6Kmyg+1kJBPoXDg8aFhou4NMYLOT7eRuN7KeYed6Gc6zc52k20wwc0Fw2Kn5v4dOJI481U6Z1+6t9yT11lozbXY0/JO2XvPabdVBReyZs0Fju70vAADQfcmGhgaJao2NjdLU1CRtbVFDg/W8+nnuDJMNVu3Cmp4Iyl4/lRHoynd3rf945sxOodsolh7dX/bsU7D7Yaa5mz+718Pst/ZuPYvlhzAX2uruvtuv0XX7HD7G5ik9y5ZNStm6XdAtQPUkqa113TintLtebchFs2y9rstm+7Ny6KcOcAnE+MCtkjjrtvbtKPt4WHee29qUcxYr3RQY3KMyT1fBvEzIctdwNW3KPTvWZkKOu2brgO6c5nq/JIaP9SfffU7S65/xp5NniHzwAH+6OwaYX1oXDHc9bpomvg+KjDRh8lDbtbHhz17u9LqADmf8fQAAikXzVFTe0uYyl5vPe+ZMb4imrVcFRgh041FkglWmq1/2uq9JSzMnZgKyXfmWL/eimd9dTxW8jSLp4f1VTckGH/e6+S14Bsq9HsvN62G+hEOYWegvtolryEWSGVcl0+Uw210yfxfGPMz2attdrxYeYdINGFItY4Z7E+iPMoNRGMNsAFFbnzPBwYSS97tmwlfyIEnkyyLdee67j0h6qz1D1vg3SW9x11Yd3Y2bNJvfancNV8ufJb1xd+b7Stcvs1PGkO6dfUp8cILt07BO5DUd9MQ49FRJ7NPh+ABJDDLfq2oyIUwD5MFV3jaTh9uujXtMaNPl5WZ+sL8IAAD0rHDmSlZWVkpU0ztUV1RU9H5AC9DBImZlLlSqkpvn2dSgdBAMEx6iZEKLsiMQ+grfRnH08P5M8JmVOesUlNtFMdO10ciGMA2t/mT4bJh2OVwZrNvSLp3Zf4/CDbmoVvx8piE1X9dF7foZvC4N/cJgE2Tcn4DevU/SS/+XpP5cLzLgNEkMH+kvb1ki6YenS+qP5jFtD31L0n8LXwcW0K3nbvOG2vfWeXyWHWXRGHqZCXR2uguSVVfa76tJZMOt/ve19ObsQCUVF0piTDfPPpWZcDTEns1K6amsQeZX+oR97maYGG5/yVvs6+O6Lg6z16O55e+vinF/dwAASo/mqai8pc1lLjefSBv2eTlaWlpEH5py3TRJ73xJ7rvxFPtI5z5/1wvmjX+U1M2fa5cAPafmqmtEdm6UX994sl3SOX5Ge09643xJb3jezhkDr5bkhzUo6L3K5otssQNeZJhgcty3JOmFm62SWjbDHJDMpAaec8+zIaWQ59absHaPv3igCVOyWOQddwFXuQlAV0viNBN67N+f0qt+ZMKVDi8/VOSM70nSnj3Ku3zXc5JeeZ+pzSU9ZbY76EqzXRMg7dm7fM+XjfdIaoO9FnP0HZIc5U96ti6U1HP2HnHlEyTxcRMi/bkOpf78dfM96pR5fc83r7O31NlkwukdNpgGa9ktqcdu9XKmdx3aiTMkma9LKYqmO8ctAEDpufKuVZIYdLz5zDnHLsnlMpeGNEU4Q8kjnJWA95ok3aTdCk1ieX94cA4diMJLBqJdEuWQA7pwlqij5wbDmR8I0427/XBy0Pvzd5vsquD3drD53orR2SAYzkbeJsl/4Bqw/qYUwtl/rdgiDz6nf1gAgJ538WlD5XNn9r/rWwhn2O8QzhCtfTgrDU2SevI2kQYNnWNFzrlekgxr3++UQjjT4+Saba0ybuwYuwQAesaadetl3NDyftmbgHCG/Q7hDNFKLJzteERSz+rZMhPKUrar5PDpkjglPFw/+oNSCWccJwH0hlI4JnZXV8MZ130DQFykGmww02viphLMAADYzxDOAPRTY7P3PTslMPx+XB06wdT6LZETvyWJCTMk+aF9H6ERAACUFsIZgH7qgOz9z95XrNE/elCZ1jtSkkeNLI16AQBA0RHOAAAAACAGknoRWlRrbW2VVCrlXaAGAAAAAOg6zVNReUuby1xuPqkrRzUnOA0AAAAAKFw4ZwWb4+aTOmxjVCsvL5dkMuk1AAAAAEDXaZ6KylvaXOZy89znDCWP+5x134LfPiCLljxk54D8LrnwfJn8mcvtHPYV9zkDgCzuc8Z9zgAYGszWrFtnpvRvNDRadNOfEUI8AAA9jzNnKHmcOeu+mquuNf9P87uKDnm/Y5LI+1c/dB1nzgAgizNnnDkDAAAAgFghnAEAAABADBDOAAAAACAGCGcA+q+N90jqoa+3b8se8Ya6cNKrfhRavtVM23VXbfWWRAust9EuAgAA6KakXoQW1Vrt3arzjBcCAKWrZYmkQwENAACgJ2ieispb2lzmcvOJvXv3Rn4+aWtrk0Qi4Y3WmNi1scujNa7Z1irjxo6xS4Ces2bdehk3tJzRGruh34/WqGfONtSbiSqR86/2uwpklg0VOeN7khzsnzlLb9kmUnGhJM49TxLeGbEZJsSZ1YZPl+Qpw/SZEQLrjb5DkqP8pf0NozUWH6M1Yn+ROb4Gj8NASH8frTF96Ci5d+5ddkkul7n0RtSqR4bSv+ex1+TRNTvtHNDzzj1xsHxpwpF2rnN86PDtl+FsxyOSemaJmSCcFYpwVnyEM/RfucfFRAPhDJ3r7+GsK0Pp90g4A+KODx2+/TGcRf0Vl3DWMcJZ8RHOUJoKOOa5427meAp0jnDGfc4A7FfMBwU7GIgfzPSsGX/BBYCuMcdPDWYdSG3VP4gZg6sIZkA38NkEwP5ntN+dEQD6Pe3Kbf84paPKpv5sp7X92QapDD0zFnj8oR9Jaod9SM+IPXSPnTE2hB5XZl/yjk5UidgeB9ozwd+Web63pN7Om7Zqa+Bx02w9OcvaDd4UeL5rHY6qC5QWwhmA/YB2YbxDkqPNV6UfKhj6HsD+xhz7/PBkvWMCU+ZYqKHHdlnM2CbyTCiAdSD92jP+xMAzCvuAuWWG7c1gaT3LXNdzS0fXzYQvrTEQEIF+iHAGYP8x6mrzocFObyrCUPobl9gPMkNFDvWWAEB8DbxakvqHqvPNsdCx3RBTf7ahR68V89a5QxLDzbFNA9p6s445fuY8T685Oz/YC6E+2218jP1DWGcy+wpst2WY/8e086ebx+2yHWbb+nWjDX/uD26u5b0uGCg9hDMA+5Xkh+2HgJy/xnZgy4xQ95k12W4/3mAjxsCL6CYJIP6GudBkvro/VHnMsbDJTuqx0R7vMmewmrZ2/scsF5y6cjzMXJdmAp0LYpmzbsMkMVjDYcChR9sJc+zNHJPp0oj+hXAGYD9jPgx4fw02NHjta/dG/Uv0hwv8KzEA9EtbJbXJ/rEqEwB7wODzcs+yKT2Ot7t2DihdSR2+Maq1trZ6N0XLM9I+AMSf1w3H7zIT/EtU4pTvZbvDjArMZ4Z9Hmam7ePhdsq43McIZgBK3jCRg+xkputjoEUNid8QOGO1w4Qj7eKt3RR7/JYiVZm6Mn9oK+TMHtCHNE9F5S1tLnO5+aSuHNX0TtXadBoAAAD9V3LMhf6EDsrhugx6LTggSKD7odfl238stV5v7G/09PD53oiR2doy3S4PGsaw/Yi1cM4KtmDm0pbUG55FtbKyMkkmk14DAABAPxbVZdAzzDxmJ7VXwSk2xGXUtxs+v1fRtRwlQPNUVN7S5jKXm0+YhBZ5akxPq+lDU66bJumdL8l9N55iHwFK3+fvekFk0Cipmz/XLtk/1Vx1rfl/er9/HdCxmquuMf9PmJ+TOf4C7DPvNd25UX5948l2SfxwnEQh9J5k3hksQhL2QSkcE7vryrtWSWLQ8XnfQ13m0mCmOC0GAACAbujG8PkAOsSZM+yX+IuwT8+crVm3TsaNHWOXAO2tWbfe/IyM5cxZEXHmDACyOHPGmTMAxrkf+6j3oVu7rNFo+Zr+jJx3zgQzDQAAehJnzrBf4i/CAPoSZ84AIIszZ5w5AwAAAIBYIZwBAAAAQAwkGxoaJKo1NjZKU1OTd8dqAAAAAEDXaZ6KylvaXOZy83nPnOkN0bQBAAAAAIovnLmSlZWVEtX0orSKigoCGgAAAAB0k+apqLylzWUuN881ZwAAAAAQA4QzAAAAAIgBwhkAAAAAxADhDAAAAABigHAGAAAAADFAOAMAAACAGCCcAQAAAEAMJNKGnc7R0tIi+tCU66ZJeudLct+Np9hHgNL3+btekPU70nL6aafaJQDQe5597nkZMzghv77xZLskfvQ4+XrTQXLFZRfbJQDQM+5f+KAceVBTrI+J3XXlXaskMeh4qZs/xy7J5TKX3u9MJZqbmyPDWWtrqyQSCfnnqV8ReftvhDP0K3cu/bs88uJOOwcAve+8kwbJ1yYda+fi55u/XiuLnttm5wCgZ106fpjMvHKsnes/NJzJYR+Ue+feZZfkcplLb1StEnv37o0MZ21tbd6KeuYssWsj4QwAAAAAukDDWfrQUXnDmctcyaR/tVlST6FFtfLycm8ltyIAAAAAoGs0T0XlLW0uc7l5khcAAAAAxADhDAAAAABigHAGAAAAADFAOAMAAACAGCCcAQAAAEAMEM4AAAAAIAYIZwAAAAAQA8mWlhaJanq36lQqJel05D2qAQAAAACd0DwVlbe0uczl5pO6clRzgtMAAAAAgMKFc1awOW4+GbxDdbC5u1VrAwAAAAB0neapqLylzWUuN0/yAgAAAIAYIJwBAAAAQAwQzgAAAAAgBghnAAAAABADhDMAAAAAiAHCGQAAAADEAOEMAAAAAGIgGbxDdbDp3arb2tpybo4GAAAAACic5qmovKXNZS43n3R3ow63RCLhNZ0GAAAAAHRdOGcFWzBzaUsG71AdbGVlZd7dqrUBAAAAALpO81RU3tLmMpebJ3kBAAAAQAwQzgAAAAAgBghnAAAAABADibReeRZBRwvRh6ZcN03W1D8vJ4w4xD4CAAAAAOjM2s17ZFzVqVI3f45dkstlLr3eTHUazv6z7jey7H+esEvb03W0dTZwiA4RqfSit84Uus1ir0eN1Bil2PsudD1qpMYoxd53oetRIzVGKfa+C12PGqkxSrH3Xeh61EiNUYLbPO+cCXL1VV+wj+TqcjhzK+ZT6HoNDQ3e18rKSu9rR4q9b2qkxjBqpMYo1JgfNVJjFGrMjxqpMQo15keN/nodx0MAAAAAQK9I7N69O/LMWaGn7Qpdr7m5udPk6BR739RIjWHUSI1RqDE/aqTGKNSYHzVSYxRqzI8a/fXyhrOeoKcA3enAuKLG4qDG4qDG4qDG4qDG4qDG4qDG4qDG4qDG4qBGrjnLQY3UGIUa86NGaoxCjflRIzVGocb8qJEao/TnGrnmDAAAAABigHAGAAAAADFAOAMAAACAGCCcAQAAAEAMEM4AAAAAIAYIZwAAAAAQA4QzAAAAAIgBwhkAAAAAxECiubk58ibUra2tkkgkpKyszC6JVuh6jY2N3jqd3YhNFXvf1EiNYdRIjVGoMT9qpMYo1JgfNVJjFGrMjxr99cpuueWWWm8qRO9UrStq60ih6+mOk8lkpwWqYu+bGqkxjBqpMQo15keN1BiFGvOjRmqMQo35UaO/XsIsiDxz1tLS4q3cWTIsdL2Ghgbva2Vlpfe1I8XeNzVSYxg1UmMUasyPGqkxCjXmR43UGIUa86NGfz2uOQMAAACAGCCcAQAAAEAMEM4AAAAAIAYIZwAAAAAQA4QzAAAAAIgBwhkAAAAAxADhDAAAAABiINHc3Bx5nzO9yZreDK2zm6wVul5X76itysvLva/5UGPHqDE/aqTGKNSYHzVSYxRqzI8aqTEKNeZHjf6+y2655ZZabypEb4amK2rrSKHr6Y4LvaO2Kua+qZEaw6iRGvMp5r6pkRrDqJEa8ynmvqmRGsOosXRqTJgFkWfOSvGO2vlQIzWGUSM1RqHG/KiRGqNQY37USI1RqDE/avTX45ozAAAAAIgBwhkAAAAAxADhDAAAAABigHAGAAAAADHQ6YAgTzy1XO5/4EG7tL1UKuV91ZFLOqKjm6jOhpNUhW6z2OtRIzVGocb8qJEao1BjfsWoceyY4+UbX7nBzrW/mPz3//2wPLjkv73pIF5HagyjRmqMQo35dbfGiy/8pHzqk5/w5sPCx/BOw9nUr9wkT694TkYM/IB9BAAA9IW3G3fIrqad8vKa5+2S9m/sNVddK/XPr5KjDx3ozQMA+s4ru96RqlNPkbr5c+ySXN0KZ29u2C0/veJX9hEAANAX7vvLL02b02k4k82bpe6Ky7x5AEDfqbl/ociIEQWHs6QuiGp62q6trc1bGQAAxEfU+7Wb530bAOJFj8vB43awhY/hSV05qrk7Ves0AACIj3zv164BAOIjeHwOt/AxPKmn0KJaWVmZdwFbZxfGAQCA3hX1fu3med8GgHgJHqPDrd0x3D4HAAAAANCHCGcAAAAAEAOEMwAAAACIAcIZAAAAAMQA4QwAAAAAYoBwBgAAAAAxQDgDAAAAgBhINjQ0SFRrbGyUpqYm747VAAAgPqLer90879sAEC96XA4et4MtfAzPe+ZMb4imDQAAxBfv1wBQusLH8GRlZaVENb1DdUVFBQd8AABiJur92s3zvg0A8aLH5eBxO9jCx3CuOQMAAACAGCCcAQAAAEAMEM4AAAAAIAYIZwAAAAAQA4QzAAAAAIiBRNqw0zlaWlpEH5r6lZvkzQ275adX/Mo+0rn/XrNQHt+w1M4BKEUTRk+ST467zM4BiIP7/vJL0+bIy2uet0uy79c64pequepakc2bpe4Kfn8BoK/V3L9QZMQIqZs/xy7JFT6G90g4m/6762VTw3oZN3aMXQKglKxZt16OqRwjMy6dbZcAiAPCGQCUltiEs/eNFFPEXLsEQCmpueoaaXxDYhHOlq1bIo+YBhTbBw47Vm6c8B07VxoIZwBQWroczpqbmyPDWWtrqyQSCbn+q9+UrS81EM6A/Uicwtmti78q63f+VU4aN9YuAfbd629sljc2b5ElN/7FLikNLpytW/W0XZJ9v3Y3n/7iNTdKYsuWfQ5nC15cLYvWvWTnEAeXjD1eJp90op3rHP+G6C+6+rMfJxrO0sOHy71z77JLcoWP4Ym9e/dGhrO2tjZvRT1ztu1vewhnwH4kbuEsddgeeWDBvXYJsO/u/Pls0+4u2XC29vkVdkn2/TqZ9Mf40nCWfPPNfQ5nNff/TtbsfodLFGJCu5uPe/9A8+96qV3SOf4N0R9052c/TjScpY44Im84Cx/D6dYIoB3CGfq7Ug9nvdGtUT/Yy4gjeC+PCT0uy2YN3V0LZ/wbotR152c/TrrarZGh9AEAAAAgBghnAAAAABADhDMAAAAAiAHCGQAAAADEAOEMAAAAAGKAcAYAAAAAMUA4AwAAAIAYSOrY+lFN71adSqW8cfcBAEB8RL1fu3netwEgXvS4HDxuB1v4GJ7UlaOaE5wGAAB9L9/7dXgZAKDvBY/P4ea4+aTejTqqlZeXSzKZ9Nr+ZPviaTJ+2mLZbuf7hfqZMn78NFncr74pANh/Rb1fu/n97X0bAOIueIwOt3bHcPuceNm+WKaNHy8z6+18jnqZaR6bRtII2C6Lp43f7wKYF6THzzQ/EaXDr1n/rWzrb38IwL5Z2yprZkW3jWvtOp6UvDLfX77uf1IdLMv15sLcbQZb7vaB/ceK2xOSuH2FncN+b/uTInfP9dt6uwzoRfx5rT+onye1y6ulunq5LF3eMx/1ezUI9cszff4fFSYtnSRLV66Ula7VitQS0FCA5mU9G6B0+xrS3rTzAACg9xHO+oH6pXUiNVOldlK1LF+6nA/6saNnNqdIXc08WTnrIhlil3qGXCSzwssAY9C0chmn7XOJzIG6eV2bndpHlQkZ6bY/LSkHV9rlxs6FRdoHAJSiIWeLTL3Gb2PsMqAX9ZNw5p+VyHYXyz3DUz/T7z5W77qUZfpLhp5n1tliH/FEnMHxzyBFLMuc/XBdDF0LnQFy26z3u24Gaw13eYvu1hlWL142m1QlQ6onSfXyWpmX93mh7ze8A9udNHf//vczqXa5ma6TKd5jtuZM91O33ez3Gv5eorqhev8ubh37+nnLpphvSJabsKmPhV6/Lsn/c+F+JsKb9pYHXpcO/006+LfM4Z3ZrJF5N1fZBYXx9l3YD4H9t8izf5S2wxNyUCA8FV9Sjr6qXAaNtLNvpOWVt+w0AADoVf0inNXPXCqTMl3FlkpttQkR4Q/eJrTcLbX+Ot6HZP3gbs9muOdOXS9TvBBiVU2SGhMS1gcS25b1+nhu90FdVj2p2jv7sX3xPJFaV8tKmVejISP8odksu1tX03VuFq8aEwpyurzNq5G6KZ0HtO2L7zaRqUZMNhOTzsSUIXVLo56kdQRep6W1Ul03JTeoTtI+dksztU/apK/hELlo1kpZWms2bPYzz3vMr9mpm+K2O0su8l8EMXEksx39XpbXTgp8L35omrKpNvv9ml0vN49X3eyvL1JtStHH7Da7oaOfi6pJZh/Ll0pOL1BT99026KrC/k3a/1uGeWc2q8fIcDsPdMnalLzb4E8OGFvmT/SAI8baCaM1/FcLoMe8KQsujbrma4XcnkjIpQtcR1u7nlnmt9vNGlnedWOXLpA3V9weWOdSyTzdeXOBXJp53LR815rlbEdb7v7cdm5f4dcZuS+Upqhrzh608782jwUfv/v3/uM5yxaYeX+xb0PgMdue2GEfA9qLdTjTD8LBsxZ+M4HKPu5U3Rz8UGzCxFT94L0+9yyYCRZTA5/yXajJOZtRdbMJU3baUyX6GT4bdvQsVbXU1FSbzbut+2eujjnG3/aQi27OCRNVU0wIkk2yKfRhp2ZqoCubFwpMGKkNLKuaYsJEvqDlbPe6MZo0Yb//IV5INE8KhUFfzbzA6zTkIrO/wLrbTY3mi/s+VNVFhXW3q66dkhtKzLZvzn0RvO9lk30RMq99sDufec5FORvZdx3+XNjgHQzZ2zWsVdfKFH1SF/5Ncv4t8znmmIJeS8DZ6QbrWObPJ09MyqgT/Gmg/zhCJk6+RGT6Y7nhZ8VjMl1myHcnH6EzJgANlwWTt2SGml4+Y7pUhwPTohoZ/thEu84WqbtkkdRcbwKbfdgLVMP1TT27nS3H3C7V0+3j1psLLpVE9Qqzmr+Ot17dCrO/9gFsevVjMtFb53filYr+bc86kf9nWob5RPFrE8Zylu0RWWrCmkeD2RN2GihMrMNZzTx31iPY5pkP1WGhroRet7hQIAqdufDOgGVCTdbwMebTd4B3hsUFmPqlUlc9SaZMOiYUauyZK8vrGudqmVRrIkDu2Tc9KzQmtxhvHb8bn2uTJHgSL9J2DRf6bQQiiHZtNNHn7nZ9AXNrVENMYMi8Tu6smwbiiO5+HQkGugyvy1/u9+ICbb7Xvvg6+rmokikmaWWv0fODrjsDWvi/Sejfch8Ff3a8rqR6dtPtP/zvEnyNvZ8z1+1U2750B0XsjEzI2I/13uG6nL8koBcdMXGyXGKi2GOBpLXiMZOYZkyUM830mwtul+mX1MnsQPo50xzPw88Rs86W7+oz1BEy+bszTGBbII/ZQLViXo0sCm3niMmzTYizM54VMq9mkdnU7Jyw5a9nwt68nDho1pvi1Yj9xSEin7bXo7n3/j0mjE20y04wj3vLXtePFSLrX/LndWV3HZu2jw62y4H2ksE7VAeb3q26ra3N+4tRrHnX2pgPzea/YPezohk+JnPma/umTf6Hd++sS53oCRTvbEsmaNjuenWu+59p2n3Qe6wzgecEWwfXKdXP0w/kNlDlfEg3QajLA4P43Re9epfXyiTdVhdDmuMFDPPGmQ3X2qXQPthbCvi58K/Rs10bvaCrATX4qbTr/yZRvMCf52xmmNet0+7H60oa7HYbHjik6ubsY97PWbDe7ncHRTwc/LnAYCBvpGVNjw7UkZJXnrGTxoDD7QRiK+r92s3H/n077IjJojlqeiZprRA/m/mxZ9OmRf5ZsWA3w+EmaHmPFupN2WQ2f8nkiSa2BR0hxwTT1ZubzN4vkckTw6fB7HorNuWMaHrmMeH10K8dcqR+XPIdaoOYBi83cMg483jQ4IF2YgtdGvdzelwOHreDLXwMT7pT9uHmDoA6HWdeONIPpYEPrhqiCmLWyw0ftptgkHdGST+415vHxH5497s7ajc9PQuUOXOlZ9bMR+TapYHudN4ZmE54AdAPe4Xzu1NWB64RyzQNIS50ZITOJBr+tVAmoAQ/xOvogXm3UYhsXdkMs0W8S/WsroSV7iro5yLzb7vdhuyp2UDTrX+TaPnPZgKdOLxMhp9op01A65mh9PX+aNnr2rT7JB834y/f+7VrpebMiV4687opujNlU4KhacbynO/PtcyJMiCOvJEfP2pnrLULRR7cYGewv4g6frkWPoYng3eoDraysjLvbtXa4iyna57avlhqO+0PaOKVXgumZ4gCoztsX1wb0W3Nv45r+dK7Zalkg4x2d1y+tNa7LinTrc37QB/swlgvM72udJ3IdCnMHTikfmYHXdNsEMw902PZ66lqc4ZtNPO1gTNh9TNFS8t04zOv28wOwkO71zmv4aLZK3tNnu4q9zrBIRdNNfWZN97gyBpm/4vdbLvXsesK+7nwr0NbvnSezDOhPNg9tFv/Jvlo4DVhVwdFiRwhs5tnKLF/GPix7FD3ei+yQsYcSK1O5dxges38NnnHPuZpSMsbmcdzg1lvdp9E90W9X7v5uL9vRzpzoszwuim+KY8tWJRzhuuYYyKuSeumRe3+eOufpcs44hg5UxbJAtcXMiPfmTegM6Oz3Rldt8eGbf5X7DeCx+hwa3cMt88pXd4gHoFrg3TAwUK6NeoHZjdioe0S6HWBi+h/53d/Mx/sXZBRGoDMsuXBM09mmzrIRraboYlzBXVr9LsUzqsJXjM0XpZOytc1bbss1mEFw2e9Mvwze7lnp6rNa7Te766ozXY7nOV2YGqftN6Eh8zjm6R2aWD/3mAY7nXuaMh2873U5r6uSyeFuzVWyc167WDweirz71btspGpRcfu8F/HzsJQ7mumzRu2v9CfC+/fsU7qloevyevqv0knvC6I5nXYFPietWldee5zNuSiWYV3odSf5zyjRaLUJeXoC7L3OtsZDlpFovdVI5ih75wpU+ouMRlsnmxa5AYC8blr0qpzRlZcIbfr6Ix2rnP2GrTp1YERIM1Wbq82Ww7y61hUc33O4B9vLrheakJ1AZ1a//tsd0Zta/f4yyuH+l+BCIm0nj+LoH0e9aGpX7lJ3tywW356xa/sI52b/rvr5X0jzcfm+eYHEYg1HTRkkhcgM0EVUnPVNdL4hsiMS2fbJX3n1sVfldRhe+SBBffaJcC+u/Pns027W5bc+Be7pDTc95dfmjZHXl7zvF2Sfb/Wv7iqmquuFdm8WequuMyb766a+38nMuKI3nsvt6MpLtIujO36K+qIjcEgNUOWp7+bGYxDh9KvXlEnW343OXtmS4fD90ZdDIyk6C0LbGV5WiY+Zp4roX2G1vMGGwlu29Z6pnl+b3Wt1OOybH7T/Lteapd0rtf/DfsDHRbfjb6oA33o9WQ6lL725jlkrMjnz/YekicW2LClg318yl+Wea4OHDJZZIcJZ4+FugEN/6jIxaPtDArRnZ/9OKm5f6H5PRxhfg/n2CW5wsdw/kyK/VvkQCAAgF53xGT5nfmA0j6YqTPlu/pYpmWDmTrzu2ZZMDypM79r1gsNce8ty25Hd+U9N7zP0Hrttm1r7a1ghl7kXSdmuyG6gT4utvMumKmPmvDlrWeDmco81zymHyvGmMfctlwjmKEThDPs17wRL4MDgQAAAAB9hHCG/dL2xdO8a76mbKqVpV0cGh8AAADoCYQz7Je8wTb0lgF5BuMAAAAAehvhDAAAAABiINnQ0CBRrbGxUZqamrw7VgMAgPiIer9287xvA0C86HE5eNwOtvAxPO+ZM70hmjYAABBfvF8DQOkKH8OTlZWVEtV0rP2KigoO+AAAxEzU+7Wb530bAOJFj8vB43awhY/hXHMGAAAAADFAOAMAAACAGCCcAQAAAEAMEM4AAAAAIAYSacNO52hpaRF9aOpXbpI3N+yWn17xK/tI56b/7np530iRuvlz7RIApaTmqmuk8Q2RGZfOtkv6zq2Lvyrrd/5VTho31i4B9t3rb2yWNzZvkSU3/sUuKQ33/eWXps2Rl9c8b5dk36/1onJVc9W1Ips3S90Vl3nz3VVz/+9ERhzBe3lM6HFZNr9p/l0vtUs6x78h+oPu/OzHSc39C83v4QjzezjHLskVPob3WDh7d8AOuf6af7ZLAJSS2XN/JQc3D45FOPt9/f3y5MZH7BxQPIcfMkxuOu8Hdq409HY4W7P7HRk3doxdgr60Zt16Gff+gV0OZ/wbotR152c/TmIRzv71DzfL05set3MAStE/HjNB/tcFM+0cgDjozXA297nnZdnLr9g5xMF5xx0jV592ip3rHP+G6C+6+rMfJ7EIZ83v7ZVdTTvtHIBSdOhBg2TAAQfaOQBx0JvhDACw77oczpqbmyPDWWtrqyQSCbn+q9+UrS81dCmcAQCA4nPhbN2qp+2S7Pu1u/n0F6+5URJbthDOACAGNJylhw+Xe+feZZfkCh/Dk5rUopoTnAYAAH0v3/t1eBkAoO8Fj8/h5rj5pJ5Ci2rl5eWSTCa9BgAA4iPq/drN874NAPESPEaHW7tjuH0OAAAAAKAPEc4AAAAAIAYIZwAAAAAQA4QzAAAAAIgBwhkAAAAAxADhDAAAAABigHAGAAAAADGQbGlpkaimd6tOpVI5N0cDAAB9L+r92s3zvg0A8aLH5eBxO9jCx/Ckuxt1uDnBaQAA0PfyvV+HlwEA+l7w+BxujptPBu9QHWzubtXaAABAfES9X7t53rcBIF6Cx+hwa3cMt88BAAAAAPQhwhkAAAAAxADhDAAAAABigHAGAAAAADFAOAMAAACAGEikg2M4Bug4+/rQ1K/cJG9u2C0/veJX9hEAANAX7vvLL02bIy+ved4uyb5f6yhfquaqa2VD/Yvyj0eO9OYBAH3n6dffkNFVJ0nd/Dl2Sa7wMZxwBgBAiSgknM28Y5YseehhbzrIvd0nEgnvaz56M1RVyJD8hW6z2OtRIzVGocb8qLFva7zogknyza992ZsPaxfOmpub/WeG6N2q1Q1fu1mef3a1nDzydG8eAAD0jVff/ru8Ztq6VU/bJdn3a71XTkd0Pf2QUFZWZpdEa2xs9NZxHxQ60pV9K2qMRo35USM1RunPNSb27t0bGc5cMrz7nnmy8ME/eNP7otBE2peosTiosTiosTiosTiosTiKUeORI4fLf8z+/+xc4X/JbWtr8/bb2XpNTU3eh4+Kigq7JL9C902NHaPG/KiRGqP05xo77dbYWTIsdL2Ghgbva2Vlpfe1I8XeNzVSYxg1UmMUasyPGqkxCjXmR43UGIUa86NGf72OoxwAAAAAoFcQzgAAAAAgBghnAAAAABADhDMAAAAAiAHCGQAAAADEAOEMAAAAAGKAcAYAAAAAMZDYvXt35H3O9GZsSm+01pFC12tubu50nH+n2PumRmoMo0ZqjEKN+VEjNUahxvyokRqjUGN+1Oivlzec9QS9YZu7eVtcUWNxUGNxUGNxUGNxUGNxUGNxUGNxUGNxUGNxUKMJZ2m9JXWEUryjdj7USI1h1EiNUagxP2qkxijUmB81UmMUasyPGv31uOYMAAAAAGKAcAYAAAAAMUA4AwAAAIAYIJwBAAAAQAwQzgAAAAAgBghnAAAAABADhDMAAAAAiAHCGQAAAADEQKK5uTnyJtStra2SSCSkrKzMLolW6HqNjY3eOp3diE0Ve9/USI1h1EiNUagxP2qkxijUmB81UmMUasyPGv31ym655ZZabypE71StK2rrSKHr6Y6TyWSnBapi75saqTGMGqkxCjXmR43UGIUa86NGaoxCjflRo79ewiyIPHPW0tLirdxZMix0vYaGBu9rZWWl97Ujxd43NVJjGDVSYxRqzI8aqTEKNeZHjdQYhRrzo0Z/Pa45AwAAAIAYIJwBAAAAQAwQzgAAAAAgBghnAAAAABADhDMAAAAAiAHCGQAAAADEQKdD6T/x1HK5/4EH7dL2UqmU91XH/O+I3hdAlZeXe187Uug2i70eNVJjFGrMjxqpMQo15leMGseOOV6+8ZUb7Fz7YZgX/PYBWbTkIW86SNfR1lmNbW1t3tdC7+NTyDaLvR41UmOUYu+70PWokRqjBLd5yYXny+TPXG4fyRU+hieam5sjw5m+gejN0K7/6jflz888L4cM/oB9BAAA9IW9e3ZI856dsm7V03ZJ9v3afVj44jU3ytq/rpFxQ3jfBoC+tmb7a3LCP4yTe+feZZfkCh/DE3v37o0MZ5oMdcWpX7lJVr+6Rz52w6/sIwAAoC+sXfZLWfvoHFn7/Aq7JPt+7f7iq+Es+eYeqbv8W948AKDv1DzwE0kdcUjecBY+hif1FFpU0y4XulJnp/cAAEDvinq/dvO8bwNAvASP0eHW7hhunwMAAAAA6EOEMwAAAACIAcIZAAAAAMQA4QwAAAAAYoBwBgAAAAAxQDgDAAAAgBggnAEAAABADCRbWlokqundqvWmaOl05D2qAQBAH4l6v3bzvG8DQLzocTl43A628DE8qStHNb1TtTadBgAA8ZHv/do1AEB8BI/P4RY+hieDd6gOtrKyMu9u1doAAEB8RL1fu3netwEgXoLH6HBrdwy3zwEAAAAA9CHCGQAAAADEAOEMAAAAAGKAcAYAAAAAMUA4AwAAAIAYIJwBAAAAQAwQzgAAAAAgBpINDQ0S1RobG6Wpqcm7YzUAAIiPqPdrN8/7NgDEix6Xg8ftYAsfw/OeOdMbomkDAADxxfs1AJSu8DE8WVlZKVFN71BdUVHBAR8AgJiJer9287xvA0C86HE5eNwOtvAxnGvOAAAAACAGCGcAAAAAEAOEMwAAAACIAcIZAAAAAMQA4QwAAACl6WMnitxwusjFQ+0C4+JT2i8DSgThDNjvJORzE8rk2+eZNiEp5i0MAAAAMUA4A3rJmR8ukxkXZ9u/mmAUaUhSvh1YT9un7UPFMuiQhAytNM18rbTLAADoFx5cJfKLZ83XbXYBUDoIZ0AvOcD8th1Qlsi0gwYl5NPvsw8GjBplQlNgvQPKRMrtYwAAAOi/ki0tLRLVWltbJZVKSTqdtqsCKIq2tLznTSTkqNHeREBCPmZCGwB0JOr92s3zvg0A8aLH5eBxO9jCx/CkrhzVnOA0gCJoE2lo8SdHDknKYf6k76iEjDhQJ9Ky811vSV6jhifk0x9KyudN+/TxCRkVcRbOGTXKX+/zp3S8njpsSEIuOC273RF2uaP7PWWkaear1q7re3WY55w+0F9HuX1+7sTO9wmga/K9X4eXAcV3jD/YxpfG+LOTzbTOa5tsHnPcoByufcwuD6sy2wmud4N5XpV9LCy8zRtOtA+ERA0S4jHzXwo+v4NtAEUUPD6Hm+PmkwMGDJCoVl5eLslk0msAiqjChLM99pex0gShIf6kOv3IhLxfJ/amZVvKW9TOYcck5dufKpcbziyT6iOTcqpp1SeVyQ2TyuQbJnzlGJqUr5xv1v0Hf71TjzXrfSwUCDMScvHZZfLtj5TJOUdnt3vTp8rk05n3t4R84rQy+cIZppkwdsGH/fW9OsxzJk8ok8+Z4HbN+WY/dp8fGq37LJOPENCAool6v3bzvG+j12gwC76hHGbe0DQQaYgaGeqQPzYidOl6Z4evfDbPO9tsNyfM2VAV3qYcZLZrWkF0G0eZXx47m2GeT0BDDwseo8Ot3THcPgdAL9q2WTJdG48+1gWqhHzoMH969zsiB7R7AzGGJOVaE3qGmoCn3msxIe5d91eXhIw8Nik3jLKzZn7KKUk52jsTZ7T5675XkZBB9vlBHzk7KR89PCEHmOmmhpQ8vzktO9vMjFm/enxSzNtiLrP81GG6blqa7CIpM9+DCW5jzT53muX+92iYdT9yIt01AaDfGKChars/8Ia2dfadYKQJQBqi1tnl2t7WB8yyYzN/6fPPmHlhq1XkycC6Tzb4jx9rz8ypi0fYUGX24dbT5vZZsNC+fvGqSLMuNwEt35k9oJcRzoC+8FJKXrVdGweZQOblqeOTcpQXmtLy6obobkkfGauDhfjTOze3yfTft8mPH26TH/7VBSSzrVFJf3v69WBvoci7KZnzoL/uj59PyW67OON9JnyZYObZlZKfPpKSXz/dZt63bB0HmtCVCX1OWl7Z0Ca3PdIm/2tlcJtpWbeyTX5klv/479nvQ0eIBAD0F+ZdZ8EmO238z2obwow3TOj5HzutVtvA9b5AF4pj7RmvdatE6v1JT/1683wTogaYx70zbSbQDXEhzuwjSPdZcEDbJvIfoX3psr/b51cGgiPQhwhnQJ9Iy1/etsHl4IR8bKTIx0aId9ZK3k3Ln7Z7j4QkZEylCzhp2fh0Nvi8vTElm23Y0+3pWa5RQ7y/BXp2vp0S83bneXuTCX/h69mONaHPTr5ngti1eg80067NvFclpDJwPZnzinufNO/De+2kmDrWm3n1tgmZO/1JERsqAQD9QLMJS2GNdllDAUPYv892URxr3rFyrgEzzTujZprX7d8EOj1r1mxCVE6w6g57vVywFdwtEugdhDOgjzz7StqebUrIiKOTctJAP3jtNKFtozfVng7H7zEBaLOd9JkQ5HXNyBrhJT2VlrczCUmlpSl8PZt543OrH2DCmXcPNG0m6OVlanB/JM2r0ftbJwAAfcsbJCRwkbfSrpdd7hoJ9CzCGdBX3siewXr/Ya67YlrWr47u0qia3EVcFSJH5QywkZBB7ho1HQ3SfMlc72UeO2yQnfQE1nWyK3vdJf/vM+3bonyJEQCAbtGuisFrwEIt2DVygD3TFlaZ+Utkx4bpGbLQ/nT7hT4f6CWEM6DPpOVPrmtjRcLvgrgrLY82eksipOVFN8qjCVhjT8sOcz/mNHe9mslZDWn5g/m64u1s5hpkkp8bLfGUD2XXzdiS7X44aEhSKk1dq0x4dE2tf8f7AgDAvtuqZ6xM4Do7YqREHcUxMyz/JttNw7xLuuH7nahRISMN9XpHZrtKWplBSYD4IJwBfWjj6rRejpzxxvZUh10Fn12Vko322rKDDi+Tmy4rkxkXl8u1R/ujLOqIjKtW2z6L5qsbdETD3yWT/HW/cKRdN8js909vZYOiv65tl5XLp4/1HwIAoCgyA4iY0BW+DiwcmBbYC7F1hMjwelHXvrVj3mm32/WC17idbfb9Bt0aES/J4B2qg83drTp4czQARdZowtYuO22C1frOLnZuTMsv/mKeExg+/wA70MZ7ZtkTK9vkvzJpz1/3DRfQvHXTsnNrNuAF/enJlDxhApp/tk3Xtc1spyF0PRuAvhX1fu3med9GyVjwbPQ1XzraY3AkSD17lhn2PkCvGft7oF9+Rx5c5Y8CmaFdHM0yO5Ak0JP0uBw8bgdb+Bie2Lt3b+RRvK2tTRKJhEz9yk2y+tU98rEbfmUfARAL70vIiYf5A3k07THBroNuhyOGJmSoWbGz9ZwxI203y5TIK1vSnQ/8AaBXrF32S1n76BxZ+/wKuyT7fu1uPv3Fa26U5Jt7pO7yb3nzAIC+U/PATyR1xCFy79y77JJc4WN4MniH6mBzd6t2KwKImca0rLbXhHUWuDZvK2w9Z73d7iqCGRBLUe/Xbp73bQCIl+AxOtzaHcPtcwAAAAAAfYhwBgAAAAAxQDgDAAAAgBggnAEAAABADBDOAAAAACAGCGcAAAAAEAOEMwAAAACIgWTwDtXBpner1pui6R2tAQBAfES9X7t53rcBIF70uBw8bgdb+Bie1JWjmt6pWptOAwCA+Mj3fu0aACA+gsfncAsfw5PBO1QHW1lZmXe3am0AACA+ot6v3Tzv2wAQL8FjdLi1O4bb5wAAAAAA+hDhDAAAAABigHAGAAAAADFAOAMAAACAGCCcAQAAAEAMEM4AAAAAIAYIZwAAAAAQA8mGhgaJao2NjdLU1OTdsRoAAMRH1Pu1m+d9GwDiRY/LweN2sIWP4XnPnOkN0bQBAID44v0aAEpX+BierKyslKimd6iuqKjggA8AQMxEvV+7ed63ASBe9LgcPG4HW/gYzjVnAAAAABADhDMAAAAAiAHCGQAAAADEAOEMAAAAAGKAcAYAAAAAMZBIG3Y6R0tLi+hDU79ykyxf+aIcftzp9hEAANAXGrb9XRre+ru8vOZ5uyT7fq0jfqmaq66VNS+slnFDPuDNAwD6zprtr8m4k0+Uuvlz7JJc4WN4p+Fszq/ulfsXLrZL23NPTyQS3td8UqmU9zWZ7PxkXaHbLPZ61EiNUagxP2qkxijUmF8xavzAkSPkP++Zbefav7HPnfefsux/nvCmg3QdbZ3t293EupAh+QvdZrHXo0ZqjFLsfRe6HjVSY5TgNs87Z4JcfdUX7CO5uhzO3Ir5FLqe3vFa6fj9nSn2vqmRGsOokRqjUGN+1EiNUagxP2qkxijUmB81+uslmpubI8NZa2ur99e6zpJhoes1NjZ663RWoCr2vqmRGsOokRqjUGN+1EiNUagxP2qkxijUmB81+uuV3XLLLbXeVIgmOF1RW0cKXU93rKf1OitQFXvf1EiNYdRIjVGoMT9qpMYo1JgfNVJjFGrMjxr99ejWGECN1BiFGvOjRmqMQo35USM1RqHG/KiRGqP05xo7vuoNAAAAANArCGcAAAAA0OdE/n/4+8YdiaHt1AAAAABJRU5ErkJggg==;" vertex="1" parent="1">
          <mxGeometry x="-22" y="50" width="871" height="558" as="geometry" />
        </mxCell>
        <mxCell id="5ll_GS7VwqOs396q1sFU-2" value="&lt;div data-t=&quot;flow&quot; data-processon-v=&quot;{&amp;quot;list&amp;quot;:[{&amp;quot;id&amp;quot;:&amp;quot;QzusHiUdRh852956&amp;quot;,&amp;quot;name&amp;quot;:&amp;quot;process&amp;quot;,&amp;quot;title&amp;quot;:&amp;quot;流程&amp;quot;,&amp;quot;category&amp;quot;:&amp;quot;flow&amp;quot;,&amp;quot;group&amp;quot;:&amp;quot;&amp;quot;,&amp;quot;groupName&amp;quot;:null,&amp;quot;locked&amp;quot;:false,&amp;quot;link&amp;quot;:&amp;quot;&amp;quot;,&amp;quot;children&amp;quot;:[],&amp;quot;parent&amp;quot;:&amp;quot;&amp;quot;,&amp;quot;resizeDir&amp;quot;:[&amp;quot;tl&amp;quot;,&amp;quot;tr&amp;quot;,&amp;quot;br&amp;quot;,&amp;quot;bl&amp;quot;,&amp;quot;l&amp;quot;,&amp;quot;t&amp;quot;,&amp;quot;r&amp;quot;,&amp;quot;b&amp;quot;],&amp;quot;attribute&amp;quot;:{&amp;quot;container&amp;quot;:false,&amp;quot;visible&amp;quot;:true,&amp;quot;rotatable&amp;quot;:true,&amp;quot;linkable&amp;quot;:true,&amp;quot;collapsable&amp;quot;:false,&amp;quot;collapsed&amp;quot;:false,&amp;quot;fixedLink&amp;quot;:false,&amp;quot;markerOffset&amp;quot;:5},&amp;quot;dataAttributes&amp;quot;:[{&amp;quot;name&amp;quot;:&amp;quot;序号&amp;quot;,&amp;quot;type&amp;quot;:&amp;quot;number&amp;quot;,&amp;quot;value&amp;quot;:&amp;quot;&amp;quot;,&amp;quot;category&amp;quot;:&amp;quot;default&amp;quot;,&amp;quot;id&amp;quot;:&amp;quot;GgQJhDJhYr953458&amp;quot;},{&amp;quot;name&amp;quot;:&amp;quot;名称&amp;quot;,&amp;quot;type&amp;quot;:&amp;quot;string&amp;quot;,&amp;quot;value&amp;quot;:&amp;quot;&amp;quot;,&amp;quot;category&amp;quot;:&amp;quot;default&amp;quot;,&amp;quot;id&amp;quot;:&amp;quot;xSPrlKGyhp391727&amp;quot;},{&amp;quot;name&amp;quot;:&amp;quot;所有者&amp;quot;,&amp;quot;type&amp;quot;:&amp;quot;string&amp;quot;,&amp;quot;value&amp;quot;:&amp;quot;&amp;quot;,&amp;quot;category&amp;quot;:&amp;quot;default&amp;quot;,&amp;quot;id&amp;quot;:&amp;quot;UJlzvuhyTp782798&amp;quot;},{&amp;quot;name&amp;quot;:&amp;quot;连接&amp;quot;,&amp;quot;type&amp;quot;:&amp;quot;link&amp;quot;,&amp;quot;value&amp;quot;:&amp;quot;&amp;quot;,&amp;quot;category&amp;quot;:&amp;quot;default&amp;quot;,&amp;quot;id&amp;quot;:&amp;quot;qIuSvkYSXK901234&amp;quot;},{&amp;quot;name&amp;quot;:&amp;quot;便笺&amp;quot;,&amp;quot;type&amp;quot;:&amp;quot;string&amp;quot;,&amp;quot;value&amp;quot;:&amp;quot;&amp;quot;,&amp;quot;category&amp;quot;:&amp;quot;default&amp;quot;,&amp;quot;id&amp;quot;:&amp;quot;cHdojupprb411639&amp;quot;},{&amp;quot;name&amp;quot;:&amp;quot;成本&amp;quot;,&amp;quot;type&amp;quot;:&amp;quot;number&amp;quot;,&amp;quot;value&amp;quot;:&amp;quot;&amp;quot;,&amp;quot;category&amp;quot;:&amp;quot;default&amp;quot;,&amp;quot;id&amp;quot;:&amp;quot;vdiNDiogri509722&amp;quot;},{&amp;quot;name&amp;quot;:&amp;quot;时间&amp;quot;,&amp;quot;type&amp;quot;:&amp;quot;number&amp;quot;,&amp;quot;value&amp;quot;:&amp;quot;&amp;quot;,&amp;quot;category&amp;quot;:&amp;quot;default&amp;quot;,&amp;quot;id&amp;quot;:&amp;quot;ubjGfnXjNd653190&amp;quot;},{&amp;quot;name&amp;quot;:&amp;quot;部门&amp;quot;,&amp;quot;type&amp;quot;:&amp;quot;string&amp;quot;,&amp;quot;value&amp;quot;:&amp;quot;&amp;quot;,&amp;quot;category&amp;quot;:&amp;quot;default&amp;quot;,&amp;quot;id&amp;quot;:&amp;quot;KzBWjIrfiC543068&amp;quot;},{&amp;quot;name&amp;quot;:&amp;quot;输入&amp;quot;,&amp;quot;type&amp;quot;:&amp;quot;string&amp;quot;,&amp;quot;value&amp;quot;:&amp;quot;&amp;quot;,&amp;quot;category&amp;quot;:&amp;quot;default&amp;quot;,&amp;quot;id&amp;quot;:&amp;quot;QREqYTegct993694&amp;quot;},{&amp;quot;name&amp;quot;:&amp;quot;输出&amp;quot;,&amp;quot;type&amp;quot;:&amp;quot;string&amp;quot;,&amp;quot;value&amp;quot;:&amp;quot;&amp;quot;,&amp;quot;category&amp;quot;:&amp;quot;default&amp;quot;,&amp;quot;id&amp;quot;:&amp;quot;KuxYzvaMby769734&amp;quot;},{&amp;quot;name&amp;quot;:&amp;quot;风险&amp;quot;,&amp;quot;type&amp;quot;:&amp;quot;string&amp;quot;,&amp;quot;value&amp;quot;:&amp;quot;&amp;quot;,&amp;quot;category&amp;quot;:&amp;quot;default&amp;quot;,&amp;quot;id&amp;quot;:&amp;quot;JZrhOVDyKf847430&amp;quot;},{&amp;quot;name&amp;quot;:&amp;quot;备注&amp;quot;,&amp;quot;type&amp;quot;:&amp;quot;string&amp;quot;,&amp;quot;value&amp;quot;:&amp;quot;&amp;quot;,&amp;quot;category&amp;quot;:&amp;quot;default&amp;quot;,&amp;quot;id&amp;quot;:&amp;quot;ugFxSmdccG495429&amp;quot;}],&amp;quot;props&amp;quot;:{&amp;quot;x&amp;quot;:185.15131327876657,&amp;quot;y&amp;quot;:1149,&amp;quot;w&amp;quot;:544.5530817235151,&amp;quot;h&amp;quot;:70,&amp;quot;zindex&amp;quot;:-5,&amp;quot;angle&amp;quot;:0},&amp;quot;shapeStyle&amp;quot;:{&amp;quot;alpha&amp;quot;:1},&amp;quot;lineStyle&amp;quot;:{&amp;quot;lineWidth&amp;quot;:1.5},&amp;quot;fillStyle&amp;quot;:{&amp;quot;type&amp;quot;:&amp;quot;solid&amp;quot;,&amp;quot;color&amp;quot;:&amp;quot;166,174,243&amp;quot;},&amp;quot;theme&amp;quot;:{},&amp;quot;path&amp;quot;:[{&amp;quot;actions&amp;quot;:[{&amp;quot;action&amp;quot;:&amp;quot;move&amp;quot;,&amp;quot;x&amp;quot;:&amp;quot;0&amp;quot;,&amp;quot;y&amp;quot;:&amp;quot;0&amp;quot;},{&amp;quot;action&amp;quot;:&amp;quot;line&amp;quot;,&amp;quot;x&amp;quot;:&amp;quot;w&amp;quot;,&amp;quot;y&amp;quot;:&amp;quot;0&amp;quot;},{&amp;quot;action&amp;quot;:&amp;quot;line&amp;quot;,&amp;quot;x&amp;quot;:&amp;quot;w&amp;quot;,&amp;quot;y&amp;quot;:&amp;quot;h&amp;quot;},{&amp;quot;action&amp;quot;:&amp;quot;line&amp;quot;,&amp;quot;x&amp;quot;:&amp;quot;0&amp;quot;,&amp;quot;y&amp;quot;:&amp;quot;h&amp;quot;},{&amp;quot;action&amp;quot;:&amp;quot;close&amp;quot;}]}],&amp;quot;fontStyle&amp;quot;:{},&amp;quot;textBlock&amp;quot;:[{&amp;quot;position&amp;quot;:{&amp;quot;x&amp;quot;:10,&amp;quot;y&amp;quot;:0,&amp;quot;w&amp;quot;:&amp;quot;w-20&amp;quot;,&amp;quot;h&amp;quot;:&amp;quot;h&amp;quot;},&amp;quot;text&amp;quot;:&amp;quot;&amp;quot;}],&amp;quot;anchors&amp;quot;:[{&amp;quot;x&amp;quot;:&amp;quot;w/2&amp;quot;,&amp;quot;y&amp;quot;:&amp;quot;0&amp;quot;},{&amp;quot;x&amp;quot;:&amp;quot;w/2&amp;quot;,&amp;quot;y&amp;quot;:&amp;quot;h&amp;quot;},{&amp;quot;x&amp;quot;:&amp;quot;0&amp;quot;,&amp;quot;y&amp;quot;:&amp;quot;h/2&amp;quot;},{&amp;quot;x&amp;quot;:&amp;quot;w&amp;quot;,&amp;quot;y&amp;quot;:&amp;quot;h/2&amp;quot;}]},{&amp;quot;id&amp;quot;:&amp;quot;BiZPaJYmPv299223&amp;quot;,&amp;quot;name&amp;quot;:&amp;quot;process&amp;quot;,&amp;quot;title&amp;quot;:&amp;quot;流程&amp;quot;,&amp;quot;category&amp;quot;:&amp;quot;flow&amp;quot;,&amp;quot;group&amp;quot;:&amp;quot;&amp;quot;,&amp;quot;groupName&amp;quot;:null,&amp;quot;locked&amp;quot;:false,&amp;quot;link&amp;quot;:&amp;quot;&amp;quot;,&amp;quot;children&amp;quot;:[],&amp;quot;parent&amp;quot;:&amp;quot;&amp;quot;,&amp;quot;resizeDir&amp;quot;:[&amp;quot;tl&amp;quot;,&amp;quot;tr&amp;quot;,&amp;quot;br&amp;quot;,&amp;quot;bl&amp;quot;,&amp;quot;l&amp;quot;,&amp;quot;t&amp;quot;,&amp;quot;r&amp;quot;,&amp;quot;b&amp;quot;],&amp;quot;attribute&amp;quot;:{&amp;quot;container&amp;quot;:false,&amp;quot;visible&amp;quot;:true,&amp;quot;rotatable&amp;quot;:true,&amp;quot;linkable&amp;quot;:true,&amp;quot;collapsable&amp;quot;:false,&amp;quot;collapsed&amp;quot;:false,&amp;quot;fixedLink&amp;quot;:false,&amp;quot;markerOffset&amp;quot;:5},&amp;quot;dataAttributes&amp;quot;:[{&amp;quot;name&amp;quot;:&amp;quot;序号&amp;quot;,&amp;quot;type&amp;quot;:&amp;quot;number&amp;quot;,&amp;quot;value&amp;quot;:&amp;quot;&amp;quot;,&amp;quot;category&amp;quot;:&amp;quot;default&amp;quot;,&amp;quot;id&amp;quot;:&amp;quot;MhrWheTMOs710602&amp;quot;},{&amp;quot;name&amp;quot;:&amp;quot;名称&amp;quot;,&amp;quot;type&amp;quot;:&amp;quot;string&amp;quot;,&amp;quot;value&amp;quot;:&amp;quot;&amp;quot;,&amp;quot;category&amp;quot;:&amp;quot;default&amp;quot;,&amp;quot;id&amp;quot;:&amp;quot;fvvOnkMana840391&amp;quot;},{&amp;quot;name&amp;quot;:&amp;quot;所有者&amp;quot;,&amp;quot;type&amp;quot;:&amp;quot;string&amp;quot;,&amp;quot;value&amp;quot;:&amp;quot;&amp;quot;,&amp;quot;category&amp;quot;:&amp;quot;default&amp;quot;,&amp;quot;id&amp;quot;:&amp;quot;HuQYAOlDDx791942&amp;quot;},{&amp;quot;name&amp;quot;:&amp;quot;连接&amp;quot;,&amp;quot;type&amp;quot;:&amp;quot;link&amp;quot;,&amp;quot;value&amp;quot;:&amp;quot;&amp;quot;,&amp;quot;category&amp;quot;:&amp;quot;default&amp;quot;,&amp;quot;id&amp;quot;:&amp;quot;HRWEnAybSJ583432&amp;quot;},{&amp;quot;name&amp;quot;:&amp;quot;便笺&amp;quot;,&amp;quot;type&amp;quot;:&amp;quot;string&amp;quot;,&amp;quot;value&amp;quot;:&amp;quot;&amp;quot;,&amp;quot;category&amp;quot;:&amp;quot;default&amp;quot;,&amp;quot;id&amp;quot;:&amp;quot;RFoPwDRBsZ700140&amp;quot;},{&amp;quot;name&amp;quot;:&amp;quot;成本&amp;quot;,&amp;quot;type&amp;quot;:&amp;quot;number&amp;quot;,&amp;quot;value&amp;quot;:&amp;quot;&amp;quot;,&amp;quot;category&amp;quot;:&amp;quot;default&amp;quot;,&amp;quot;id&amp;quot;:&amp;quot;tFUIoGWUvI339963&amp;quot;},{&amp;quot;name&amp;quot;:&amp;quot;时间&amp;quot;,&amp;quot;type&amp;quot;:&amp;quot;number&amp;quot;,&amp;quot;value&amp;quot;:&amp;quot;&amp;quot;,&amp;quot;category&amp;quot;:&amp;quot;default&amp;quot;,&amp;quot;id&amp;quot;:&amp;quot;rbDpjzPHwf283391&amp;quot;},{&amp;quot;name&amp;quot;:&amp;quot;部门&amp;quot;,&amp;quot;type&amp;quot;:&amp;quot;string&amp;quot;,&amp;quot;value&amp;quot;:&amp;quot;&amp;quot;,&amp;quot;category&amp;quot;:&amp;quot;default&amp;quot;,&amp;quot;id&amp;quot;:&amp;quot;LptfhjpAjU427214&amp;quot;},{&amp;quot;name&amp;quot;:&amp;quot;输入&amp;quot;,&amp;quot;type&amp;quot;:&amp;quot;string&amp;quot;,&amp;quot;value&amp;quot;:&amp;quot;&amp;quot;,&amp;quot;category&amp;quot;:&amp;quot;default&amp;quot;,&amp;quot;id&amp;quot;:&amp;quot;muQmKZgTMB627995&amp;quot;},{&amp;quot;name&amp;quot;:&amp;quot;输出&amp;quot;,&amp;quot;type&amp;quot;:&amp;quot;string&amp;quot;,&amp;quot;value&amp;quot;:&amp;quot;&amp;quot;,&amp;quot;category&amp;quot;:&amp;quot;default&amp;quot;,&amp;quot;id&amp;quot;:&amp;quot;cLHiqFcYCW222101&amp;quot;},{&amp;quot;name&amp;quot;:&amp;quot;风险&amp;quot;,&amp;quot;type&amp;quot;:&amp;quot;string&amp;quot;,&amp;quot;value&amp;quot;:&amp;quot;&amp;quot;,&amp;quot;category&amp;quot;:&amp;quot;default&amp;quot;,&amp;quot;id&amp;quot;:&amp;quot;AArWjxhqWN418719&amp;quot;},{&amp;quot;name&amp;quot;:&amp;quot;备注&amp;quot;,&amp;quot;type&amp;quot;:&amp;quot;string&amp;quot;,&amp;quot;value&amp;quot;:&amp;quot;&amp;quot;,&amp;quot;category&amp;quot;:&amp;quot;default&amp;quot;,&amp;quot;id&amp;quot;:&amp;quot;TtvKvQSAho143546&amp;quot;}],&amp;quot;props&amp;quot;:{&amp;quot;x&amp;quot;:185.15131327876657,&amp;quot;y&amp;quot;:1064.1730721188458,&amp;quot;w&amp;quot;:544.5530817235151,&amp;quot;h&amp;quot;:70,&amp;quot;zindex&amp;quot;:124,&amp;quot;angle&amp;quot;:0},&amp;quot;shapeStyle&amp;quot;:{&amp;quot;alpha&amp;quot;:1},&amp;quot;lineStyle&amp;quot;:{&amp;quot;lineWidth&amp;quot;:1.5},&amp;quot;fillStyle&amp;quot;:{&amp;quot;type&amp;quot;:&amp;quot;solid&amp;quot;,&amp;quot;color&amp;quot;:&amp;quot;202,237,180&amp;quot;},&amp;quot;theme&amp;quot;:{},&amp;quot;path&amp;quot;:[{&amp;quot;actions&amp;quot;:[{&amp;quot;action&amp;quot;:&amp;quot;move&amp;quot;,&amp;quot;x&amp;quot;:&amp;quot;0&amp;quot;,&amp;quot;y&amp;quot;:&amp;quot;0&amp;quot;},{&amp;quot;action&amp;quot;:&amp;quot;line&amp;quot;,&amp;quot;x&amp;quot;:&amp;quot;w&amp;quot;,&amp;quot;y&amp;quot;:&amp;quot;0&amp;quot;},{&amp;quot;action&amp;quot;:&amp;quot;line&amp;quot;,&amp;quot;x&amp;quot;:&amp;quot;w&amp;quot;,&amp;quot;y&amp;quot;:&amp;quot;h&amp;quot;},{&amp;quot;action&amp;quot;:&amp;quot;line&amp;quot;,&amp;quot;x&amp;quot;:&amp;quot;0&amp;quot;,&amp;quot;y&amp;quot;:&amp;quot;h&amp;quot;},{&amp;quot;action&amp;quot;:&amp;quot;close&amp;quot;}]}],&amp;quot;fontStyle&amp;quot;:{},&amp;quot;textBlock&amp;quot;:[{&amp;quot;position&amp;quot;:{&amp;quot;x&amp;quot;:10,&amp;quot;y&amp;quot;:0,&amp;quot;w&amp;quot;:&amp;quot;w-20&amp;quot;,&amp;quot;h&amp;quot;:&amp;quot;h&amp;quot;},&amp;quot;text&amp;quot;:&amp;quot;WFC Application and UI&amp;quot;}],&amp;quot;anchors&amp;quot;:[{&amp;quot;x&amp;quot;:&amp;quot;w/2&amp;quot;,&amp;quot;y&amp;quot;:&amp;quot;0&amp;quot;},{&amp;quot;x&amp;quot;:&amp;quot;w/2&amp;quot;,&amp;quot;y&amp;quot;:&amp;quot;h&amp;quot;},{&amp;quot;x&amp;quot;:&amp;quot;0&amp;quot;,&amp;quot;y&amp;quot;:&amp;quot;h/2&amp;quot;},{&amp;quot;x&amp;quot;:&amp;quot;w&amp;quot;,&amp;quot;y&amp;quot;:&amp;quot;h/2&amp;quot;}]},{&amp;quot;id&amp;quot;:&amp;quot;BKSWbHFHIZ411355&amp;quot;,&amp;quot;name&amp;quot;:&amp;quot;process&amp;quot;,&amp;quot;title&amp;quot;:&amp;quot;流程&amp;quot;,&amp;quot;category&amp;quot;:&amp;quot;flow&amp;quot;,&amp;quot;group&amp;quot;:&amp;quot;&amp;quot;,&amp;quot;groupName&amp;quot;:null,&amp;quot;locked&amp;quot;:false,&amp;quot;link&amp;quot;:&amp;quot;&amp;quot;,&amp;quot;children&amp;quot;:[],&amp;quot;parent&amp;quot;:&amp;quot;&amp;quot;,&amp;quot;resizeDir&amp;quot;:[&amp;quot;tl&amp;quot;,&amp;quot;tr&amp;quot;,&amp;quot;br&amp;quot;,&amp;quot;bl&amp;quot;,&amp;quot;l&amp;quot;,&amp;quot;t&amp;quot;,&amp;quot;r&amp;quot;,&amp;quot;b&amp;quot;],&amp;quot;attribute&amp;quot;:{&amp;quot;container&amp;quot;:false,&amp;quot;visible&amp;quot;:true,&amp;quot;rotatable&amp;quot;:true,&amp;quot;linkable&amp;quot;:true,&amp;quot;collapsable&amp;quot;:false,&amp;quot;collapsed&amp;quot;:false,&amp;quot;fixedLink&amp;quot;:false,&amp;quot;markerOffset&amp;quot;:5},&amp;quot;dataAttributes&amp;quot;:[{&amp;quot;name&amp;quot;:&amp;quot;序号&amp;quot;,&amp;quot;type&amp;quot;:&amp;quot;number&amp;quot;,&amp;quot;value&amp;quot;:&amp;quot;&amp;quot;,&amp;quot;category&amp;quot;:&amp;quot;default&amp;quot;,&amp;quot;id&amp;quot;:&amp;quot;RsKkWnloNJ921346&amp;quot;},{&amp;quot;name&amp;quot;:&amp;quot;名称&amp;quot;,&amp;quot;type&amp;quot;:&amp;quot;string&amp;quot;,&amp;quot;value&amp;quot;:&amp;quot;&amp;quot;,&amp;quot;category&amp;quot;:&amp;quot;default&amp;quot;,&amp;quot;id&amp;quot;:&amp;quot;JbmhUODnom124341&amp;quot;},{&amp;quot;name&amp;quot;:&amp;quot;所有者&amp;quot;,&amp;quot;type&amp;quot;:&amp;quot;string&amp;quot;,&amp;quot;value&amp;quot;:&amp;quot;&amp;quot;,&amp;quot;category&amp;quot;:&amp;quot;default&amp;quot;,&amp;quot;id&amp;quot;:&amp;quot;vLfDMRbdVM889807&amp;quot;},{&amp;quot;name&amp;quot;:&amp;quot;连接&amp;quot;,&amp;quot;type&amp;quot;:&amp;quot;link&amp;quot;,&amp;quot;value&amp;quot;:&amp;quot;&amp;quot;,&amp;quot;category&amp;quot;:&amp;quot;default&amp;quot;,&amp;quot;id&amp;quot;:&amp;quot;MCykQddJpn414776&amp;quot;},{&amp;quot;name&amp;quot;:&amp;quot;便笺&amp;quot;,&amp;quot;type&amp;quot;:&amp;quot;string&amp;quot;,&amp;quot;value&amp;quot;:&amp;quot;&amp;quot;,&amp;quot;category&amp;quot;:&amp;quot;default&amp;quot;,&amp;quot;id&amp;quot;:&amp;quot;cjQiuiBmoP027512&amp;quot;},{&amp;quot;name&amp;quot;:&amp;quot;成本&amp;quot;,&amp;quot;type&amp;quot;:&amp;quot;number&amp;quot;,&amp;quot;value&amp;quot;:&amp;quot;&amp;quot;,&amp;quot;category&amp;quot;:&amp;quot;default&amp;quot;,&amp;quot;id&amp;quot;:&amp;quot;NfKSWVfXbR634026&amp;quot;},{&amp;quot;name&amp;quot;:&amp;quot;时间&amp;quot;,&amp;quot;type&amp;quot;:&amp;quot;number&amp;quot;,&amp;quot;value&amp;quot;:&amp;quot;&amp;quot;,&amp;quot;category&amp;quot;:&amp;quot;default&amp;quot;,&amp;quot;id&amp;quot;:&amp;quot;ukwTEHFGzD015532&amp;quot;},{&amp;quot;name&amp;quot;:&amp;quot;部门&amp;quot;,&amp;quot;type&amp;quot;:&amp;quot;string&amp;quot;,&amp;quot;value&amp;quot;:&amp;quot;&amp;quot;,&amp;quot;category&amp;quot;:&amp;quot;default&amp;quot;,&amp;quot;id&amp;quot;:&amp;quot;dKFhYbohxi374157&amp;quot;},{&amp;quot;name&amp;quot;:&amp;quot;输入&amp;quot;,&amp;quot;type&amp;quot;:&amp;quot;string&amp;quot;,&amp;quot;value&amp;quot;:&amp;quot;&amp;quot;,&amp;quot;category&amp;quot;:&amp;quot;default&amp;quot;,&amp;quot;id&amp;quot;:&amp;quot;UwRQauToKH727075&amp;quot;},{&amp;quot;name&amp;quot;:&amp;quot;输出&amp;quot;,&amp;quot;type&amp;quot;:&amp;quot;string&amp;quot;,&amp;quot;value&amp;quot;:&amp;quot;&amp;quot;,&amp;quot;category&amp;quot;:&amp;quot;default&amp;quot;,&amp;quot;id&amp;quot;:&amp;quot;QbgyCAhKKc001681&amp;quot;},{&amp;quot;name&amp;quot;:&amp;quot;风险&amp;quot;,&amp;quot;type&amp;quot;:&amp;quot;string&amp;quot;,&amp;quot;value&amp;quot;:&amp;quot;&amp;quot;,&amp;quot;category&amp;quot;:&amp;quot;default&amp;quot;,&amp;quot;id&amp;quot;:&amp;quot;khkrsxXgdb432350&amp;quot;},{&amp;quot;name&amp;quot;:&amp;quot;备注&amp;quot;,&amp;quot;type&amp;quot;:&amp;quot;string&amp;quot;,&amp;quot;value&amp;quot;:&amp;quot;&amp;quot;,&amp;quot;category&amp;quot;:&amp;quot;default&amp;quot;,&amp;quot;id&amp;quot;:&amp;quot;DnGABQtgyR887832&amp;quot;}],&amp;quot;props&amp;quot;:{&amp;quot;x&amp;quot;:210.60246450624226,&amp;quot;y&amp;quot;:1154.490216812952,&amp;quot;w&amp;quot;:100,&amp;quot;h&amp;quot;:40,&amp;quot;zindex&amp;quot;:125,&amp;quot;angle&amp;quot;:0},&amp;quot;shapeStyle&amp;quot;:{&amp;quot;alpha&amp;quot;:1},&amp;quot;lineStyle&amp;quot;:{&amp;quot;lineWidth&amp;quot;:1.5},&amp;quot;fillStyle&amp;quot;:{},&amp;quot;theme&amp;quot;:{},&amp;quot;path&amp;quot;:[{&amp;quot;actions&amp;quot;:[{&amp;quot;action&amp;quot;:&amp;quot;move&amp;quot;,&amp;quot;x&amp;quot;:&amp;quot;0&amp;quot;,&amp;quot;y&amp;quot;:&amp;quot;0&amp;quot;},{&amp;quot;action&amp;quot;:&amp;quot;line&amp;quot;,&amp;quot;x&amp;quot;:&amp;quot;w&amp;quot;,&amp;quot;y&amp;quot;:&amp;quot;0&amp;quot;},{&amp;quot;action&amp;quot;:&amp;quot;line&amp;quot;,&amp;quot;x&amp;quot;:&amp;quot;w&amp;quot;,&amp;quot;y&amp;quot;:&amp;quot;h&amp;quot;},{&amp;quot;action&amp;quot;:&amp;quot;line&amp;quot;,&amp;quot;x&amp;quot;:&amp;quot;0&amp;quot;,&amp;quot;y&amp;quot;:&amp;quot;h&amp;quot;},{&amp;quot;action&amp;quot;:&amp;quot;close&amp;quot;}]}],&amp;quot;fontStyle&amp;quot;:{},&amp;quot;textBlock&amp;quot;:[{&amp;quot;position&amp;quot;:{&amp;quot;x&amp;quot;:10,&amp;quot;y&amp;quot;:0,&amp;quot;w&amp;quot;:&amp;quot;w-20&amp;quot;,&amp;quot;h&amp;quot;:&amp;quot;h&amp;quot;},&amp;quot;text&amp;quot;:&amp;quot;WFC&amp;quot;}],&amp;quot;anchors&amp;quot;:[{&amp;quot;x&amp;quot;:&amp;quot;w/2&amp;quot;,&amp;quot;y&amp;quot;:&amp;quot;0&amp;quot;},{&amp;quot;x&amp;quot;:&amp;quot;w/2&amp;quot;,&amp;quot;y&amp;quot;:&amp;quot;h&amp;quot;},{&amp;quot;x&amp;quot;:&amp;quot;0&amp;quot;,&amp;quot;y&amp;quot;:&amp;quot;h/2&amp;quot;},{&amp;quot;x&amp;quot;:&amp;quot;w&amp;quot;,&amp;quot;y&amp;quot;:&amp;quot;h/2&amp;quot;}]},{&amp;quot;id&amp;quot;:&amp;quot;lSKXUsZYZu147576&amp;quot;,&amp;quot;name&amp;quot;:&amp;quot;process&amp;quot;,&amp;quot;title&amp;quot;:&amp;quot;流程&amp;quot;,&amp;quot;category&amp;quot;:&amp;quot;flow&amp;quot;,&amp;quot;group&amp;quot;:&amp;quot;&amp;quot;,&amp;quot;groupName&amp;quot;:null,&amp;quot;locked&amp;quot;:false,&amp;quot;link&amp;quot;:&amp;quot;&amp;quot;,&amp;quot;children&amp;quot;:[],&amp;quot;parent&amp;quot;:&amp;quot;&amp;quot;,&amp;quot;resizeDir&amp;quot;:[&amp;quot;tl&amp;quot;,&amp;quot;tr&amp;quot;,&amp;quot;br&amp;quot;,&amp;quot;bl&amp;quot;,&amp;quot;l&amp;quot;,&amp;quot;t&amp;quot;,&amp;quot;r&amp;quot;,&amp;quot;b&amp;quot;],&amp;quot;attribute&amp;quot;:{&amp;quot;container&amp;quot;:false,&amp;quot;visible&amp;quot;:true,&amp;quot;rotatable&amp;quot;:true,&amp;quot;linkable&amp;quot;:true,&amp;quot;collapsable&amp;quot;:false,&amp;quot;collapsed&amp;quot;:false,&amp;quot;fixedLink&amp;quot;:false,&amp;quot;markerOffset&amp;quot;:5},&amp;quot;dataAttributes&amp;quot;:[{&amp;quot;name&amp;quot;:&amp;quot;序号&amp;quot;,&amp;quot;type&amp;quot;:&amp;quot;number&amp;quot;,&amp;quot;value&amp;quot;:&amp;quot;&amp;quot;,&amp;quot;category&amp;quot;:&amp;quot;default&amp;quot;,&amp;quot;id&amp;quot;:&amp;quot;XpInwFPgjp742266&amp;quot;},{&amp;quot;name&amp;quot;:&amp;quot;名称&amp;quot;,&amp;quot;type&amp;quot;:&amp;quot;string&amp;quot;,&amp;quot;value&amp;quot;:&amp;quot;&amp;quot;,&amp;quot;category&amp;quot;:&amp;quot;default&amp;quot;,&amp;quot;id&amp;quot;:&amp;quot;BrkhQtZcCw616835&amp;quot;},{&amp;quot;name&amp;quot;:&amp;quot;所有者&amp;quot;,&amp;quot;type&amp;quot;:&amp;quot;string&amp;quot;,&amp;quot;value&amp;quot;:&amp;quot;&amp;quot;,&amp;quot;category&amp;quot;:&amp;quot;default&amp;quot;,&amp;quot;id&amp;quot;:&amp;quot;AlgaQovIfB851869&amp;quot;},{&amp;quot;name&amp;quot;:&amp;quot;连接&amp;quot;,&amp;quot;type&amp;quot;:&amp;quot;link&amp;quot;,&amp;quot;value&amp;quot;:&amp;quot;&amp;quot;,&amp;quot;category&amp;quot;:&amp;quot;default&amp;quot;,&amp;quot;id&amp;quot;:&amp;quot;xJlSZkBJlr138369&amp;quot;},{&amp;quot;name&amp;quot;:&amp;quot;便笺&amp;quot;,&amp;quot;type&amp;quot;:&amp;quot;string&amp;quot;,&amp;quot;value&amp;quot;:&amp;quot;&amp;quot;,&amp;quot;category&amp;quot;:&amp;quot;default&amp;quot;,&amp;quot;id&amp;quot;:&amp;quot;vJmVtWPlCx235105&amp;quot;},{&amp;quot;name&amp;quot;:&amp;quot;成本&amp;quot;,&amp;quot;type&amp;quot;:&amp;quot;number&amp;quot;,&amp;quot;value&amp;quot;:&amp;quot;&amp;quot;,&amp;quot;category&amp;quot;:&amp;quot;default&amp;quot;,&amp;quot;id&amp;quot;:&amp;quot;LSQtnKJdTM892981&amp;quot;},{&amp;quot;name&amp;quot;:&amp;quot;时间&amp;quot;,&amp;quot;type&amp;quot;:&amp;quot;number&amp;quot;,&amp;quot;value&amp;quot;:&amp;quot;&amp;quot;,&amp;quot;category&amp;quot;:&amp;quot;default&amp;quot;,&amp;quot;id&amp;quot;:&amp;quot;yHmOQnWJRm008143&amp;quot;},{&amp;quot;name&amp;quot;:&amp;quot;部门&amp;quot;,&amp;quot;type&amp;quot;:&amp;quot;string&amp;quot;,&amp;quot;value&amp;quot;:&amp;quot;&amp;quot;,&amp;quot;category&amp;quot;:&amp;quot;default&amp;quot;,&amp;quot;id&amp;quot;:&amp;quot;QRZANpeOCQ320969&amp;quot;},{&amp;quot;name&amp;quot;:&amp;quot;输入&amp;quot;,&amp;quot;type&amp;quot;:&amp;quot;string&amp;quot;,&amp;quot;value&amp;quot;:&amp;quot;&amp;quot;,&amp;quot;category&amp;quot;:&amp;quot;default&amp;quot;,&amp;quot;id&amp;quot;:&amp;quot;aIkOUZKqiw582946&amp;quot;},{&amp;quot;name&amp;quot;:&amp;quot;输出&amp;quot;,&amp;quot;type&amp;quot;:&amp;quot;string&amp;quot;,&amp;quot;value&amp;quot;:&amp;quot;&amp;quot;,&amp;quot;category&amp;quot;:&amp;quot;default&amp;quot;,&amp;quot;id&amp;quot;:&amp;quot;pgkhllMYek350728&amp;quot;},{&amp;quot;name&amp;quot;:&amp;quot;风险&amp;quot;,&amp;quot;type&amp;quot;:&amp;quot;string&amp;quot;,&amp;quot;value&amp;quot;:&amp;quot;&amp;quot;,&amp;quot;category&amp;quot;:&amp;quot;default&amp;quot;,&amp;quot;id&amp;quot;:&amp;quot;dFZzfUppPa211282&amp;quot;},{&amp;quot;name&amp;quot;:&amp;quot;备注&amp;quot;,&amp;quot;type&amp;quot;:&amp;quot;string&amp;quot;,&amp;quot;value&amp;quot;:&amp;quot;&amp;quot;,&amp;quot;category&amp;quot;:&amp;quot;default&amp;quot;,&amp;quot;id&amp;quot;:&amp;quot;SqtcgLpXGI987050&amp;quot;}],&amp;quot;props&amp;quot;:{&amp;quot;x&amp;quot;:348.15204319028896,&amp;quot;y&amp;quot;:1154.490216812952,&amp;quot;w&amp;quot;:100,&amp;quot;h&amp;quot;:40,&amp;quot;zindex&amp;quot;:126,&amp;quot;angle&amp;quot;:0},&amp;quot;shapeStyle&amp;quot;:{&amp;quot;alpha&amp;quot;:1},&amp;quot;lineStyle&amp;quot;:{&amp;quot;lineWidth&amp;quot;:1.5},&amp;quot;fillStyle&amp;quot;:{},&amp;quot;theme&amp;quot;:{},&amp;quot;path&amp;quot;:[{&amp;quot;actions&amp;quot;:[{&amp;quot;action&amp;quot;:&amp;quot;move&amp;quot;,&amp;quot;x&amp;quot;:&amp;quot;0&amp;quot;,&amp;quot;y&amp;quot;:&amp;quot;0&amp;quot;},{&amp;quot;action&amp;quot;:&amp;quot;line&amp;quot;,&amp;quot;x&amp;quot;:&amp;quot;w&amp;quot;,&amp;quot;y&amp;quot;:&amp;quot;0&amp;quot;},{&amp;quot;action&amp;quot;:&amp;quot;line&amp;quot;,&amp;quot;x&amp;quot;:&amp;quot;w&amp;quot;,&amp;quot;y&amp;quot;:&amp;quot;h&amp;quot;},{&amp;quot;action&amp;quot;:&amp;quot;line&amp;quot;,&amp;quot;x&amp;quot;:&amp;quot;0&amp;quot;,&amp;quot;y&amp;quot;:&amp;quot;h&amp;quot;},{&amp;quot;action&amp;quot;:&amp;quot;close&amp;quot;}]}],&amp;quot;fontStyle&amp;quot;:{},&amp;quot;textBlock&amp;quot;:[{&amp;quot;position&amp;quot;:{&amp;quot;x&amp;quot;:10,&amp;quot;y&amp;quot;:0,&amp;quot;w&amp;quot;:&amp;quot;w-20&amp;quot;,&amp;quot;h&amp;quot;:&amp;quot;h&amp;quot;},&amp;quot;text&amp;quot;:&amp;quot;WFC Settings&amp;quot;}],&amp;quot;anchors&amp;quot;:[{&amp;quot;x&amp;quot;:&amp;quot;w/2&amp;quot;,&amp;quot;y&amp;quot;:&amp;quot;0&amp;quot;},{&amp;quot;x&amp;quot;:&amp;quot;w/2&amp;quot;,&amp;quot;y&amp;quot;:&amp;quot;h&amp;quot;},{&amp;quot;x&amp;quot;:&amp;quot;0&amp;quot;,&amp;quot;y&amp;quot;:&amp;quot;h/2&amp;quot;},{&amp;quot;x&amp;quot;:&amp;quot;w&amp;quot;,&amp;quot;y&amp;quot;:&amp;quot;h/2&amp;quot;}]},{&amp;quot;id&amp;quot;:&amp;quot;brWeiTNTnA852491&amp;quot;,&amp;quot;name&amp;quot;:&amp;quot;process&amp;quot;,&amp;quot;title&amp;quot;:&amp;quot;流程&amp;quot;,&amp;quot;category&amp;quot;:&amp;quot;flow&amp;quot;,&amp;quot;group&amp;quot;:&amp;quot;&amp;quot;,&amp;quot;groupName&amp;quot;:null,&amp;quot;locked&amp;quot;:false,&amp;quot;link&amp;quot;:&amp;quot;&amp;quot;,&amp;quot;children&amp;quot;:[],&amp;quot;parent&amp;quot;:&amp;quot;&amp;quot;,&amp;quot;resizeDir&amp;quot;:[&amp;quot;tl&amp;quot;,&amp;quot;tr&amp;quot;,&amp;quot;br&amp;quot;,&amp;quot;bl&amp;quot;,&amp;quot;l&amp;quot;,&amp;quot;t&amp;quot;,&amp;quot;r&amp;quot;,&amp;quot;b&amp;quot;],&amp;quot;attribute&amp;quot;:{&amp;quot;container&amp;quot;:false,&amp;quot;visible&amp;quot;:true,&amp;quot;rotatable&amp;quot;:true,&amp;quot;linkable&amp;quot;:true,&amp;quot;collapsable&amp;quot;:false,&amp;quot;collapsed&amp;quot;:false,&amp;quot;fixedLink&amp;quot;:false,&amp;quot;markerOffset&amp;quot;:5},&amp;quot;dataAttributes&amp;quot;:[{&amp;quot;name&amp;quot;:&amp;quot;序号&amp;quot;,&amp;quot;type&amp;quot;:&amp;quot;number&amp;quot;,&amp;quot;value&amp;quot;:&amp;quot;&amp;quot;,&amp;quot;category&amp;quot;:&amp;quot;default&amp;quot;,&amp;quot;id&amp;quot;:&amp;quot;tgrkokxGbw555482&amp;quot;},{&amp;quot;name&amp;quot;:&amp;quot;名称&amp;quot;,&amp;quot;type&amp;quot;:&amp;quot;string&amp;quot;,&amp;quot;value&amp;quot;:&amp;quot;&amp;quot;,&amp;quot;category&amp;quot;:&amp;quot;default&amp;quot;,&amp;quot;id&amp;quot;:&amp;quot;nhVaOkLQlE935220&amp;quot;},{&amp;quot;name&amp;quot;:&amp;quot;所有者&amp;quot;,&amp;quot;type&amp;quot;:&amp;quot;string&amp;quot;,&amp;quot;value&amp;quot;:&amp;quot;&amp;quot;,&amp;quot;category&amp;quot;:&amp;quot;default&amp;quot;,&amp;quot;id&amp;quot;:&amp;quot;pQAWQSNnfV321614&amp;quot;},{&amp;quot;name&amp;quot;:&amp;quot;连接&amp;quot;,&amp;quot;type&amp;quot;:&amp;quot;link&amp;quot;,&amp;quot;value&amp;quot;:&amp;quot;&amp;quot;,&amp;quot;category&amp;quot;:&amp;quot;default&amp;quot;,&amp;quot;id&amp;quot;:&amp;quot;uykVWLvJMj244582&amp;quot;},{&amp;quot;name&amp;quot;:&amp;quot;便笺&amp;quot;,&amp;quot;type&amp;quot;:&amp;quot;string&amp;quot;,&amp;quot;value&amp;quot;:&amp;quot;&amp;quot;,&amp;quot;category&amp;quot;:&amp;quot;default&amp;quot;,&amp;quot;id&amp;quot;:&amp;quot;XEIUMajcid074481&amp;quot;},{&amp;quot;name&amp;quot;:&amp;quot;成本&amp;quot;,&amp;quot;type&amp;quot;:&amp;quot;number&amp;quot;,&amp;quot;value&amp;quot;:&amp;quot;&amp;quot;,&amp;quot;category&amp;quot;:&amp;quot;default&amp;quot;,&amp;quot;id&amp;quot;:&amp;quot;TNhbdUufMW155278&amp;quot;},{&amp;quot;name&amp;quot;:&amp;quot;时间&amp;quot;,&amp;quot;type&amp;quot;:&amp;quot;number&amp;quot;,&amp;quot;value&amp;quot;:&amp;quot;&amp;quot;,&amp;quot;category&amp;quot;:&amp;quot;default&amp;quot;,&amp;quot;id&amp;quot;:&amp;quot;NgQmPDOibU026551&amp;quot;},{&amp;quot;name&amp;quot;:&amp;quot;部门&amp;quot;,&amp;quot;type&amp;quot;:&amp;quot;string&amp;quot;,&amp;quot;value&amp;quot;:&amp;quot;&amp;quot;,&amp;quot;category&amp;quot;:&amp;quot;default&amp;quot;,&amp;quot;id&amp;quot;:&amp;quot;SBjuErxbmx034870&amp;quot;},{&amp;quot;name&amp;quot;:&amp;quot;输入&amp;quot;,&amp;quot;type&amp;quot;:&amp;quot;string&amp;quot;,&amp;quot;value&amp;quot;:&amp;quot;&amp;quot;,&amp;quot;category&amp;quot;:&amp;quot;default&amp;quot;,&amp;quot;id&amp;quot;:&amp;quot;CiBAbFeqnn737677&amp;quot;},{&amp;quot;name&amp;quot;:&amp;quot;输出&amp;quot;,&amp;quot;type&amp;quot;:&amp;quot;string&amp;quot;,&amp;quot;value&amp;quot;:&amp;quot;&amp;quot;,&amp;quot;category&amp;quot;:&amp;quot;default&amp;quot;,&amp;quot;id&amp;quot;:&amp;quot;bCnZqgBeAN068524&amp;quot;},{&amp;quot;name&amp;quot;:&amp;quot;风险&amp;quot;,&amp;quot;type&amp;quot;:&amp;quot;string&amp;quot;,&amp;quot;value&amp;quot;:&amp;quot;&amp;quot;,&amp;quot;category&amp;quot;:&amp;quot;default&amp;quot;,&amp;quot;id&amp;quot;:&amp;quot;wqsynJCQbd382161&amp;quot;},{&amp;quot;name&amp;quot;:&amp;quot;备注&amp;quot;,&amp;quot;type&amp;quot;:&amp;quot;string&amp;quot;,&amp;quot;value&amp;quot;:&amp;quot;&amp;quot;,&amp;quot;category&amp;quot;:&amp;quot;default&amp;quot;,&amp;quot;id&amp;quot;:&amp;quot;QunWDNChTU571466&amp;quot;}],&amp;quot;props&amp;quot;:{&amp;quot;x&amp;quot;:468.93022675216014,&amp;quot;y&amp;quot;:1154.490216812952,&amp;quot;w&amp;quot;:100,&amp;quot;h&amp;quot;:40,&amp;quot;zindex&amp;quot;:127,&amp;quot;angle&amp;quot;:0},&amp;quot;shapeStyle&amp;quot;:{&amp;quot;alpha&amp;quot;:1},&amp;quot;lineStyle&amp;quot;:{&amp;quot;lineWidth&amp;quot;:1.5},&amp;quot;fillStyle&amp;quot;:{},&amp;quot;theme&amp;quot;:{},&amp;quot;path&amp;quot;:[{&amp;quot;actions&amp;quot;:[{&amp;quot;action&amp;quot;:&amp;quot;move&amp;quot;,&amp;quot;x&amp;quot;:&amp;quot;0&amp;quot;,&amp;quot;y&amp;quot;:&amp;quot;0&amp;quot;},{&amp;quot;action&amp;quot;:&amp;quot;line&amp;quot;,&amp;quot;x&amp;quot;:&amp;quot;w&amp;quot;,&amp;quot;y&amp;quot;:&amp;quot;0&amp;quot;},{&amp;quot;action&amp;quot;:&amp;quot;line&amp;quot;,&amp;quot;x&amp;quot;:&amp;quot;w&amp;quot;,&amp;quot;y&amp;quot;:&amp;quot;h&amp;quot;},{&amp;quot;action&amp;quot;:&amp;quot;line&amp;quot;,&amp;quot;x&amp;quot;:&amp;quot;0&amp;quot;,&amp;quot;y&amp;quot;:&amp;quot;h&amp;quot;},{&amp;quot;action&amp;quot;:&amp;quot;close&amp;quot;}]}],&amp;quot;fontStyle&amp;quot;:{},&amp;quot;textBlock&amp;quot;:[{&amp;quot;position&amp;quot;:{&amp;quot;x&amp;quot;:10,&amp;quot;y&amp;quot;:0,&amp;quot;w&amp;quot;:&amp;quot;w-20&amp;quot;,&amp;quot;h&amp;quot;:&amp;quot;h&amp;quot;},&amp;quot;text&amp;quot;:&amp;quot;WFC CallSettings&amp;quot;}],&amp;quot;anchors&amp;quot;:[{&amp;quot;x&amp;quot;:&amp;quot;w/2&amp;quot;,&amp;quot;y&amp;quot;:&amp;quot;0&amp;quot;},{&amp;quot;x&amp;quot;:&amp;quot;w/2&amp;quot;,&amp;quot;y&amp;quot;:&amp;quot;h&amp;quot;},{&amp;quot;x&amp;quot;:&amp;quot;0&amp;quot;,&amp;quot;y&amp;quot;:&amp;quot;h/2&amp;quot;},{&amp;quot;x&amp;quot;:&amp;quot;w&amp;quot;,&amp;quot;y&amp;quot;:&amp;quot;h/2&amp;quot;}]},{&amp;quot;id&amp;quot;:&amp;quot;GPvyZsEDbN797461&amp;quot;,&amp;quot;name&amp;quot;:&amp;quot;process&amp;quot;,&amp;quot;title&amp;quot;:&amp;quot;流程&amp;quot;,&amp;quot;category&amp;quot;:&amp;quot;flow&amp;quot;,&amp;quot;group&amp;quot;:&amp;quot;&amp;quot;,&amp;quot;groupName&amp;quot;:null,&amp;quot;locked&amp;quot;:false,&amp;quot;link&amp;quot;:&amp;quot;&amp;quot;,&amp;quot;children&amp;quot;:[],&amp;quot;parent&amp;quot;:&amp;quot;&amp;quot;,&amp;quot;resizeDir&amp;quot;:[&amp;quot;tl&amp;quot;,&amp;quot;tr&amp;quot;,&amp;quot;br&amp;quot;,&amp;quot;bl&amp;quot;,&amp;quot;l&amp;quot;,&amp;quot;t&amp;quot;,&amp;quot;r&amp;quot;,&amp;quot;b&amp;quot;],&amp;quot;attribute&amp;quot;:{&amp;quot;container&amp;quot;:false,&amp;quot;visible&amp;quot;:true,&amp;quot;rotatable&amp;quot;:true,&amp;quot;linkable&amp;quot;:true,&amp;quot;collapsable&amp;quot;:false,&amp;quot;collapsed&amp;quot;:false,&amp;quot;fixedLink&amp;quot;:false,&amp;quot;markerOffset&amp;quot;:5},&amp;quot;dataAttributes&amp;quot;:[{&amp;quot;name&amp;quot;:&amp;quot;序号&amp;quot;,&amp;quot;type&amp;quot;:&amp;quot;number&amp;quot;,&amp;quot;value&amp;quot;:&amp;quot;&amp;quot;,&amp;quot;category&amp;quot;:&amp;quot;default&amp;quot;,&amp;quot;id&amp;quot;:&amp;quot;qQStAOncBq495195&amp;quot;},{&amp;quot;name&amp;quot;:&amp;quot;名称&amp;quot;,&amp;quot;type&amp;quot;:&amp;quot;string&amp;quot;,&amp;quot;value&amp;quot;:&amp;quot;&amp;quot;,&amp;quot;category&amp;quot;:&amp;quot;default&amp;quot;,&amp;quot;id&amp;quot;:&amp;quot;MHukqCIDeF796921&amp;quot;},{&amp;quot;name&amp;quot;:&amp;quot;所有者&amp;quot;,&amp;quot;type&amp;quot;:&amp;quot;string&amp;quot;,&amp;quot;value&amp;quot;:&amp;quot;&amp;quot;,&amp;quot;category&amp;quot;:&amp;quot;default&amp;quot;,&amp;quot;id&amp;quot;:&amp;quot;EnDQqMZFnk688120&amp;quot;},{&amp;quot;name&amp;quot;:&amp;quot;连接&amp;quot;,&amp;quot;type&amp;quot;:&amp;quot;link&amp;quot;,&amp;quot;value&amp;quot;:&amp;quot;&amp;quot;,&amp;quot;category&amp;quot;:&amp;quot;default&amp;quot;,&amp;quot;id&amp;quot;:&amp;quot;SbHMGlfDrf281540&amp;quot;},{&amp;quot;name&amp;quot;:&amp;quot;便笺&amp;quot;,&amp;quot;type&amp;quot;:&amp;quot;string&amp;quot;,&amp;quot;value&amp;quot;:&amp;quot;&amp;quot;,&amp;quot;category&amp;quot;:&amp;quot;default&amp;quot;,&amp;quot;id&amp;quot;:&amp;quot;hHNxfpjpIt026958&amp;quot;},{&amp;quot;name&amp;quot;:&amp;quot;成本&amp;quot;,&amp;quot;type&amp;quot;:&amp;quot;number&amp;quot;,&amp;quot;value&amp;quot;:&amp;quot;&amp;quot;,&amp;quot;category&amp;quot;:&amp;quot;default&amp;quot;,&amp;quot;id&amp;quot;:&amp;quot;ceAdUMAkSa672627&amp;quot;},{&amp;quot;name&amp;quot;:&amp;quot;时间&amp;quot;,&amp;quot;type&amp;quot;:&amp;quot;number&amp;quot;,&amp;quot;value&amp;quot;:&amp;quot;&amp;quot;,&amp;quot;category&amp;quot;:&amp;quot;default&amp;quot;,&amp;quot;id&amp;quot;:&amp;quot;KcysEnurFv635508&amp;quot;},{&amp;quot;name&amp;quot;:&amp;quot;部门&amp;quot;,&amp;quot;type&amp;quot;:&amp;quot;string&amp;quot;,&amp;quot;value&amp;quot;:&amp;quot;&amp;quot;,&amp;quot;category&amp;quot;:&amp;quot;default&amp;quot;,&amp;quot;id&amp;quot;:&amp;quot;gPIwrrOpcB250789&amp;quot;},{&amp;quot;name&amp;quot;:&amp;quot;输入&amp;quot;,&amp;quot;type&amp;quot;:&amp;quot;string&amp;quot;,&amp;quot;value&amp;quot;:&amp;quot;&amp;quot;,&amp;quot;category&amp;quot;:&amp;quot;default&amp;quot;,&amp;quot;id&amp;quot;:&amp;quot;RAsvWACucb901753&amp;quot;},{&amp;quot;name&amp;quot;:&amp;quot;输出&amp;quot;,&amp;quot;type&amp;quot;:&amp;quot;string&amp;quot;,&amp;quot;value&amp;quot;:&amp;quot;&amp;quot;,&amp;quot;category&amp;quot;:&amp;quot;default&amp;quot;,&amp;quot;id&amp;quot;:&amp;quot;umvueBlLDN271350&amp;quot;},{&amp;quot;name&amp;quot;:&amp;quot;风险&amp;quot;,&amp;quot;type&amp;quot;:&amp;quot;string&amp;quot;,&amp;quot;value&amp;quot;:&amp;quot;&amp;quot;,&amp;quot;category&amp;quot;:&amp;quot;default&amp;quot;,&amp;quot;id&amp;quot;:&amp;quot;ixFdLyRbXG334693&amp;quot;},{&amp;quot;name&amp;quot;:&amp;quot;备注&amp;quot;,&amp;quot;type&amp;quot;:&amp;quot;string&amp;quot;,&amp;quot;value&amp;quot;:&amp;quot;&amp;quot;,&amp;quot;category&amp;quot;:&amp;quot;default&amp;quot;,&amp;quot;id&amp;quot;:&amp;quot;KiOTEmTFtn960943&amp;quot;}],&amp;quot;props&amp;quot;:{&amp;quot;x&amp;quot;:597.0567924715758,&amp;quot;y&amp;quot;:1154.490216812952,&amp;quot;w&amp;quot;:100,&amp;quot;h&amp;quot;:40,&amp;quot;zindex&amp;quot;:128,&amp;quot;angle&amp;quot;:0},&amp;quot;shapeStyle&amp;quot;:{&amp;quot;alpha&amp;quot;:1},&amp;quot;lineStyle&amp;quot;:{&amp;quot;lineWidth&amp;quot;:1.5},&amp;quot;fillStyle&amp;quot;:{},&amp;quot;theme&amp;quot;:{},&amp;quot;path&amp;quot;:[{&amp;quot;actions&amp;quot;:[{&amp;quot;action&amp;quot;:&amp;quot;move&amp;quot;,&amp;quot;x&amp;quot;:&amp;quot;0&amp;quot;,&amp;quot;y&amp;quot;:&amp;quot;0&amp;quot;},{&amp;quot;action&amp;quot;:&amp;quot;line&amp;quot;,&amp;quot;x&amp;quot;:&amp;quot;w&amp;quot;,&amp;quot;y&amp;quot;:&amp;quot;0&amp;quot;},{&amp;quot;action&amp;quot;:&amp;quot;line&amp;quot;,&amp;quot;x&amp;quot;:&amp;quot;w&amp;quot;,&amp;quot;y&amp;quot;:&amp;quot;h&amp;quot;},{&amp;quot;action&amp;quot;:&amp;quot;line&amp;quot;,&amp;quot;x&amp;quot;:&amp;quot;0&amp;quot;,&amp;quot;y&amp;quot;:&amp;quot;h&amp;quot;},{&amp;quot;action&amp;quot;:&amp;quot;close&amp;quot;}]}],&amp;quot;fontStyle&amp;quot;:{},&amp;quot;textBlock&amp;quot;:[{&amp;quot;position&amp;quot;:{&amp;quot;x&amp;quot;:10,&amp;quot;y&amp;quot;:0,&amp;quot;w&amp;quot;:&amp;quot;w-20&amp;quot;,&amp;quot;h&amp;quot;:&amp;quot;h&amp;quot;},&amp;quot;text&amp;quot;:&amp;quot;WFC QucikSetting&amp;quot;}],&amp;quot;anchors&amp;quot;:[{&amp;quot;x&amp;quot;:&amp;quot;w/2&amp;quot;,&amp;quot;y&amp;quot;:&amp;quot;0&amp;quot;},{&amp;quot;x&amp;quot;:&amp;quot;w/2&amp;quot;,&amp;quot;y&amp;quot;:&amp;quot;h&amp;quot;},{&amp;quot;x&amp;quot;:&amp;quot;0&amp;quot;,&amp;quot;y&amp;quot;:&amp;quot;h/2&amp;quot;},{&amp;quot;x&amp;quot;:&amp;quot;w&amp;quot;,&amp;quot;y&amp;quot;:&amp;quot;h/2&amp;quot;}]},{&amp;quot;id&amp;quot;:&amp;quot;VwlFuKyAue800635&amp;quot;,&amp;quot;name&amp;quot;:&amp;quot;process&amp;quot;,&amp;quot;title&amp;quot;:&amp;quot;流程&amp;quot;,&amp;quot;category&amp;quot;:&amp;quot;flow&amp;quot;,&amp;quot;group&amp;quot;:&amp;quot;&amp;quot;,&amp;quot;groupName&amp;quot;:null,&amp;quot;locked&amp;quot;:false,&amp;quot;link&amp;quot;:&amp;quot;&amp;quot;,&amp;quot;children&amp;quot;:[],&amp;quot;parent&amp;quot;:&amp;quot;&amp;quot;,&amp;quot;resizeDir&amp;quot;:[&amp;quot;tl&amp;quot;,&amp;quot;tr&amp;quot;,&amp;quot;br&amp;quot;,&amp;quot;bl&amp;quot;,&amp;quot;l&amp;quot;,&amp;quot;t&amp;quot;,&amp;quot;r&amp;quot;,&amp;quot;b&amp;quot;],&amp;quot;attribute&amp;quot;:{&amp;quot;container&amp;quot;:false,&amp;quot;visible&amp;quot;:true,&amp;quot;rotatable&amp;quot;:true,&amp;quot;linkable&amp;quot;:true,&amp;quot;collapsable&amp;quot;:false,&amp;quot;collapsed&amp;quot;:false,&amp;quot;fixedLink&amp;quot;:false,&amp;quot;markerOffset&amp;quot;:5},&amp;quot;dataAttributes&amp;quot;:[{&amp;quot;name&amp;quot;:&amp;quot;序号&amp;quot;,&amp;quot;type&amp;quot;:&amp;quot;number&amp;quot;,&amp;quot;value&amp;quot;:&amp;quot;&amp;quot;,&amp;quot;category&amp;quot;:&amp;quot;default&amp;quot;,&amp;quot;id&amp;quot;:&amp;quot;EyrNzXSaOe216853&amp;quot;},{&amp;quot;name&amp;quot;:&amp;quot;名称&amp;quot;,&amp;quot;type&amp;quot;:&amp;quot;string&amp;quot;,&amp;quot;value&amp;quot;:&amp;quot;&amp;quot;,&amp;quot;category&amp;quot;:&amp;quot;default&amp;quot;,&amp;quot;id&amp;quot;:&amp;quot;lpEVieTBBa076572&amp;quot;},{&amp;quot;name&amp;quot;:&amp;quot;所有者&amp;quot;,&amp;quot;type&amp;quot;:&amp;quot;string&amp;quot;,&amp;quot;value&amp;quot;:&amp;quot;&amp;quot;,&amp;quot;category&amp;quot;:&amp;quot;default&amp;quot;,&amp;quot;id&amp;quot;:&amp;quot;YrtzGptLJz692642&amp;quot;},{&amp;quot;name&amp;quot;:&amp;quot;连接&amp;quot;,&amp;quot;type&amp;quot;:&amp;quot;link&amp;quot;,&amp;quot;value&amp;quot;:&amp;quot;&amp;quot;,&amp;quot;category&amp;quot;:&amp;quot;default&amp;quot;,&amp;quot;id&amp;quot;:&amp;quot;oMxiSzwnOh994899&amp;quot;},{&amp;quot;name&amp;quot;:&amp;quot;便笺&amp;quot;,&amp;quot;type&amp;quot;:&amp;quot;string&amp;quot;,&amp;quot;value&amp;quot;:&amp;quot;&amp;quot;,&amp;quot;category&amp;quot;:&amp;quot;default&amp;quot;,&amp;quot;id&amp;quot;:&amp;quot;DDmLSvZMfs945375&amp;quot;},{&amp;quot;name&amp;quot;:&amp;quot;成本&amp;quot;,&amp;quot;type&amp;quot;:&amp;quot;number&amp;quot;,&amp;quot;value&amp;quot;:&amp;quot;&amp;quot;,&amp;quot;category&amp;quot;:&amp;quot;default&amp;quot;,&amp;quot;id&amp;quot;:&amp;quot;DDaTkjDMTe329529&amp;quot;},{&amp;quot;name&amp;quot;:&amp;quot;时间&amp;quot;,&amp;quot;type&amp;quot;:&amp;quot;number&amp;quot;,&amp;quot;value&amp;quot;:&amp;quot;&amp;quot;,&amp;quot;category&amp;quot;:&amp;quot;default&amp;quot;,&amp;quot;id&amp;quot;:&amp;quot;JJFLOdVEEf576091&amp;quot;},{&amp;quot;name&amp;quot;:&amp;quot;部门&amp;quot;,&amp;quot;type&amp;quot;:&amp;quot;string&amp;quot;,&amp;quot;value&amp;quot;:&amp;quot;&amp;quot;,&amp;quot;category&amp;quot;:&amp;quot;default&amp;quot;,&amp;quot;id&amp;quot;:&amp;quot;lqgMxoWAVL983686&amp;quot;},{&amp;quot;name&amp;quot;:&amp;quot;输入&amp;quot;,&amp;quot;type&amp;quot;:&amp;quot;string&amp;quot;,&amp;quot;value&amp;quot;:&amp;quot;&amp;quot;,&amp;quot;category&amp;quot;:&amp;quot;default&amp;quot;,&amp;quot;id&amp;quot;:&amp;quot;WNuasLnQfl744693&amp;quot;},{&amp;quot;name&amp;quot;:&amp;quot;输出&amp;quot;,&amp;quot;type&amp;quot;:&amp;quot;string&amp;quot;,&amp;quot;value&amp;quot;:&amp;quot;&amp;quot;,&amp;quot;category&amp;quot;:&amp;quot;default&amp;quot;,&amp;quot;id&amp;quot;:&amp;quot;ehRCdKTpov700830&amp;quot;},{&amp;quot;name&amp;quot;:&amp;quot;风险&amp;quot;,&amp;quot;type&amp;quot;:&amp;quot;string&amp;quot;,&amp;quot;value&amp;quot;:&amp;quot;&amp;quot;,&amp;quot;category&amp;quot;:&amp;quot;default&amp;quot;,&amp;quot;id&amp;quot;:&amp;quot;tIwzZSvQRP751943&amp;quot;},{&amp;quot;name&amp;quot;:&amp;quot;备注&amp;quot;,&amp;quot;type&amp;quot;:&amp;quot;string&amp;quot;,&amp;quot;value&amp;quot;:&amp;quot;&amp;quot;,&amp;quot;category&amp;quot;:&amp;quot;default&amp;quot;,&amp;quot;id&amp;quot;:&amp;quot;iyjcvsqnNT842332&amp;quot;}],&amp;quot;props&amp;quot;:{&amp;quot;x&amp;quot;:185.15131327876657,&amp;quot;y&amp;quot;:1233.8269278811542,&amp;quot;w&amp;quot;:544.5530817235151,&amp;quot;h&amp;quot;:152.03161419532853,&amp;quot;zindex&amp;quot;:129,&amp;quot;angle&amp;quot;:0},&amp;quot;shapeStyle&amp;quot;:{&amp;quot;alpha&amp;quot;:1},&amp;quot;lineStyle&amp;quot;:{&amp;quot;lineWidth&amp;quot;:1.5},&amp;quot;fillStyle&amp;quot;:{&amp;quot;type&amp;quot;:&amp;quot;solid&amp;quot;,&amp;quot;color&amp;quot;:&amp;quot;246,237,193&amp;quot;},&amp;quot;theme&amp;quot;:{},&amp;quot;path&amp;quot;:[{&amp;quot;actions&amp;quot;:[{&amp;quot;action&amp;quot;:&amp;quot;move&amp;quot;,&amp;quot;x&amp;quot;:&amp;quot;0&amp;quot;,&amp;quot;y&amp;quot;:&amp;quot;0&amp;quot;},{&amp;quot;action&amp;quot;:&amp;quot;line&amp;quot;,&amp;quot;x&amp;quot;:&amp;quot;w&amp;quot;,&amp;quot;y&amp;quot;:&amp;quot;0&amp;quot;},{&amp;quot;action&amp;quot;:&amp;quot;line&amp;quot;,&amp;quot;x&amp;quot;:&amp;quot;w&amp;quot;,&amp;quot;y&amp;quot;:&amp;quot;h&amp;quot;},{&amp;quot;action&amp;quot;:&amp;quot;line&amp;quot;,&amp;quot;x&amp;quot;:&amp;quot;0&amp;quot;,&amp;quot;y&amp;quot;:&amp;quot;h&amp;quot;},{&amp;quot;action&amp;quot;:&amp;quot;close&amp;quot;}]}],&amp;quot;fontStyle&amp;quot;:{},&amp;quot;textBlock&amp;quot;:[{&amp;quot;position&amp;quot;:{&amp;quot;x&amp;quot;:10,&amp;quot;y&amp;quot;:0,&amp;quot;w&amp;quot;:&amp;quot;w-20&amp;quot;,&amp;quot;h&amp;quot;:&amp;quot;h&amp;quot;},&amp;quot;text&amp;quot;:&amp;quot;&lt;br&gt;&amp;quot;}],&amp;quot;anchors&amp;quot;:[{&amp;quot;x&amp;quot;:&amp;quot;w/2&amp;quot;,&amp;quot;y&amp;quot;:&amp;quot;0&amp;quot;},{&amp;quot;x&amp;quot;:&amp;quot;w/2&amp;quot;,&amp;quot;y&amp;quot;:&amp;quot;h&amp;quot;},{&amp;quot;x&amp;quot;:&amp;quot;0&amp;quot;,&amp;quot;y&amp;quot;:&amp;quot;h/2&amp;quot;},{&amp;quot;x&amp;quot;:&amp;quot;w&amp;quot;,&amp;quot;y&amp;quot;:&amp;quot;h/2&amp;quot;}]},{&amp;quot;id&amp;quot;:&amp;quot;lsqMVOEkgs057948&amp;quot;,&amp;quot;name&amp;quot;:&amp;quot;process&amp;quot;,&amp;quot;title&amp;quot;:&amp;quot;流程&amp;quot;,&amp;quot;category&amp;quot;:&amp;quot;flow&amp;quot;,&amp;quot;group&amp;quot;:&amp;quot;&amp;quot;,&amp;quot;groupName&amp;quot;:null,&amp;quot;locked&amp;quot;:false,&amp;quot;link&amp;quot;:&amp;quot;&amp;quot;,&amp;quot;children&amp;quot;:[],&amp;quot;parent&amp;quot;:&amp;quot;&amp;quot;,&amp;quot;resizeDir&amp;quot;:[&amp;quot;tl&amp;quot;,&amp;quot;tr&amp;quot;,&amp;quot;br&amp;quot;,&amp;quot;bl&amp;quot;,&amp;quot;l&amp;quot;,&amp;quot;t&amp;quot;,&amp;quot;r&amp;quot;,&amp;quot;b&amp;quot;],&amp;quot;attribute&amp;quot;:{&amp;quot;container&amp;quot;:false,&amp;quot;visible&amp;quot;:true,&amp;quot;rotatable&amp;quot;:true,&amp;quot;linkable&amp;quot;:true,&amp;quot;collapsable&amp;quot;:false,&amp;quot;collapsed&amp;quot;:false,&amp;quot;fixedLink&amp;quot;:false,&amp;quot;markerOffset&amp;quot;:5},&amp;quot;dataAttributes&amp;quot;:[{&amp;quot;name&amp;quot;:&amp;quot;序号&amp;quot;,&amp;quot;type&amp;quot;:&amp;quot;number&amp;quot;,&amp;quot;value&amp;quot;:&amp;quot;&amp;quot;,&amp;quot;category&amp;quot;:&amp;quot;default&amp;quot;,&amp;quot;id&amp;quot;:&amp;quot;lwpxaRDsXm741318&amp;quot;},{&amp;quot;name&amp;quot;:&amp;quot;名称&amp;quot;,&amp;quot;type&amp;quot;:&amp;quot;string&amp;quot;,&amp;quot;value&amp;quot;:&amp;quot;&amp;quot;,&amp;quot;category&amp;quot;:&amp;quot;default&amp;quot;,&amp;quot;id&amp;quot;:&amp;quot;syZipUGuII396023&amp;quot;},{&amp;quot;name&amp;quot;:&amp;quot;所有者&amp;quot;,&amp;quot;type&amp;quot;:&amp;quot;string&amp;quot;,&amp;quot;value&amp;quot;:&amp;quot;&amp;quot;,&amp;quot;category&amp;quot;:&amp;quot;default&amp;quot;,&amp;quot;id&amp;quot;:&amp;quot;OUPeERNJei134552&amp;quot;},{&amp;quot;name&amp;quot;:&amp;quot;连接&amp;quot;,&amp;quot;type&amp;quot;:&amp;quot;link&amp;quot;,&amp;quot;value&amp;quot;:&amp;quot;&amp;quot;,&amp;quot;category&amp;quot;:&amp;quot;default&amp;quot;,&amp;quot;id&amp;quot;:&amp;quot;vtmtlcWADJ844674&amp;quot;},{&amp;quot;name&amp;quot;:&amp;quot;便笺&amp;quot;,&amp;quot;type&amp;quot;:&amp;quot;string&amp;quot;,&amp;quot;value&amp;quot;:&amp;quot;&amp;quot;,&amp;quot;category&amp;quot;:&amp;quot;default&amp;quot;,&amp;quot;id&amp;quot;:&amp;quot;gxGDVipjEk872039&amp;quot;},{&amp;quot;name&amp;quot;:&amp;quot;成本&amp;quot;,&amp;quot;type&amp;quot;:&amp;quot;number&amp;quot;,&amp;quot;value&amp;quot;:&amp;quot;&amp;quot;,&amp;quot;category&amp;quot;:&amp;quot;default&amp;quot;,&amp;quot;id&amp;quot;:&amp;quot;paugvaDWgh899935&amp;quot;},{&amp;quot;name&amp;quot;:&amp;quot;时间&amp;quot;,&amp;quot;type&amp;quot;:&amp;quot;number&amp;quot;,&amp;quot;value&amp;quot;:&amp;quot;&amp;quot;,&amp;quot;category&amp;quot;:&amp;quot;default&amp;quot;,&amp;quot;id&amp;quot;:&amp;quot;ozZDpMirNL461198&amp;quot;},{&amp;quot;name&amp;quot;:&amp;quot;部门&amp;quot;,&amp;quot;type&amp;quot;:&amp;quot;string&amp;quot;,&amp;quot;value&amp;quot;:&amp;quot;&amp;quot;,&amp;quot;category&amp;quot;:&amp;quot;default&amp;quot;,&amp;quot;id&amp;quot;:&amp;quot;mlBsItefGY874441&amp;quot;},{&amp;quot;name&amp;quot;:&amp;quot;输入&amp;quot;,&amp;quot;type&amp;quot;:&amp;quot;string&amp;quot;,&amp;quot;value&amp;quot;:&amp;quot;&amp;quot;,&amp;quot;category&amp;quot;:&amp;quot;default&amp;quot;,&amp;quot;id&amp;quot;:&amp;quot;ezUFhwgINx251700&amp;quot;},{&amp;quot;name&amp;quot;:&amp;quot;输出&amp;quot;,&amp;quot;type&amp;quot;:&amp;quot;string&amp;quot;,&amp;quot;value&amp;quot;:&amp;quot;&amp;quot;,&amp;quot;category&amp;quot;:&amp;quot;default&amp;quot;,&amp;quot;id&amp;quot;:&amp;quot;ZrXrRkSbHW199532&amp;quot;},{&amp;quot;name&amp;quot;:&amp;quot;风险&amp;quot;,&amp;quot;type&amp;quot;:&amp;quot;string&amp;quot;,&amp;quot;value&amp;quot;:&amp;quot;&amp;quot;,&amp;quot;category&amp;quot;:&amp;quot;default&amp;quot;,&amp;quot;id&amp;quot;:&amp;quot;hCDSEfAsFR078782&amp;quot;},{&amp;quot;name&amp;quot;:&amp;quot;备注&amp;quot;,&amp;quot;type&amp;quot;:&amp;quot;string&amp;quot;,&amp;quot;value&amp;quot;:&amp;quot;&amp;quot;,&amp;quot;category&amp;quot;:&amp;quot;default&amp;quot;,&amp;quot;id&amp;quot;:&amp;quot;wVgBoBIYxR752021&amp;quot;}],&amp;quot;props&amp;quot;:{&amp;quot;x&amp;quot;:202.84969137829626,&amp;quot;y&amp;quot;:1274.8427349788185,&amp;quot;w&amp;quot;:128.15030862170374,&amp;quot;h&amp;quot;:70,&amp;quot;zindex&amp;quot;:130,&amp;quot;angle&amp;quot;:0},&amp;quot;shapeStyle&amp;quot;:{&amp;quot;alpha&amp;quot;:1},&amp;quot;lineStyle&amp;quot;:{&amp;quot;lineWidth&amp;quot;:1.5},&amp;quot;fillStyle&amp;quot;:{},&amp;quot;theme&amp;quot;:{},&amp;quot;path&amp;quot;:[{&amp;quot;actions&amp;quot;:[{&amp;quot;action&amp;quot;:&amp;quot;move&amp;quot;,&amp;quot;x&amp;quot;:&amp;quot;0&amp;quot;,&amp;quot;y&amp;quot;:&amp;quot;0&amp;quot;},{&amp;quot;action&amp;quot;:&amp;quot;line&amp;quot;,&amp;quot;x&amp;quot;:&amp;quot;w&amp;quot;,&amp;quot;y&amp;quot;:&amp;quot;0&amp;quot;},{&amp;quot;action&amp;quot;:&amp;quot;line&amp;quot;,&amp;quot;x&amp;quot;:&amp;quot;w&amp;quot;,&amp;quot;y&amp;quot;:&amp;quot;h&amp;quot;},{&amp;quot;action&amp;quot;:&amp;quot;line&amp;quot;,&amp;quot;x&amp;quot;:&amp;quot;0&amp;quot;,&amp;quot;y&amp;quot;:&amp;quot;h&amp;quot;},{&amp;quot;action&amp;quot;:&amp;quot;close&amp;quot;}]}],&amp;quot;fontStyle&amp;quot;:{},&amp;quot;textBlock&amp;quot;:[{&amp;quot;position&amp;quot;:{&amp;quot;x&amp;quot;:10,&amp;quot;y&amp;quot;:0,&amp;quot;w&amp;quot;:&amp;quot;w-20&amp;quot;,&amp;quot;h&amp;quot;:&amp;quot;h&amp;quot;},&amp;quot;text&amp;quot;:&amp;quot;Java Frameworks&amp;quot;}],&amp;quot;anchors&amp;quot;:[{&amp;quot;x&amp;quot;:&amp;quot;w/2&amp;quot;,&amp;quot;y&amp;quot;:&amp;quot;0&amp;quot;},{&amp;quot;x&amp;quot;:&amp;quot;w/2&amp;quot;,&amp;quot;y&amp;quot;:&amp;quot;h&amp;quot;},{&amp;quot;x&amp;quot;:&amp;quot;0&amp;quot;,&amp;quot;y&amp;quot;:&amp;quot;h/2&amp;quot;},{&amp;quot;x&amp;quot;:&amp;quot;w&amp;quot;,&amp;quot;y&amp;quot;:&amp;quot;h/2&amp;quot;}]},{&amp;quot;id&amp;quot;:&amp;quot;TqvGMgWjuE406705&amp;quot;,&amp;quot;name&amp;quot;:&amp;quot;process&amp;quot;,&amp;quot;title&amp;quot;:&amp;quot;流程&amp;quot;,&amp;quot;category&amp;quot;:&amp;quot;flow&amp;quot;,&amp;quot;group&amp;quot;:&amp;quot;&amp;quot;,&amp;quot;groupName&amp;quot;:null,&amp;quot;locked&amp;quot;:false,&amp;quot;link&amp;quot;:&amp;quot;&amp;quot;,&amp;quot;children&amp;quot;:[],&amp;quot;parent&amp;quot;:&amp;quot;&amp;quot;,&amp;quot;resizeDir&amp;quot;:[&amp;quot;tl&amp;quot;,&amp;quot;tr&amp;quot;,&amp;quot;br&amp;quot;,&amp;quot;bl&amp;quot;,&amp;quot;l&amp;quot;,&amp;quot;t&amp;quot;,&amp;quot;r&amp;quot;,&amp;quot;b&amp;quot;],&amp;quot;attribute&amp;quot;:{&amp;quot;container&amp;quot;:false,&amp;quot;visible&amp;quot;:true,&amp;quot;rotatable&amp;quot;:true,&amp;quot;linkable&amp;quot;:true,&amp;quot;collapsable&amp;quot;:false,&amp;quot;collapsed&amp;quot;:false,&amp;quot;fixedLink&amp;quot;:false,&amp;quot;markerOffset&amp;quot;:5},&amp;quot;dataAttributes&amp;quot;:[{&amp;quot;name&amp;quot;:&amp;quot;序号&amp;quot;,&amp;quot;type&amp;quot;:&amp;quot;number&amp;quot;,&amp;quot;value&amp;quot;:&amp;quot;&amp;quot;,&amp;quot;category&amp;quot;:&amp;quot;default&amp;quot;,&amp;quot;id&amp;quot;:&amp;quot;AqKfUEonrV374566&amp;quot;},{&amp;quot;name&amp;quot;:&amp;quot;名称&amp;quot;,&amp;quot;type&amp;quot;:&amp;quot;string&amp;quot;,&amp;quot;value&amp;quot;:&amp;quot;&amp;quot;,&amp;quot;category&amp;quot;:&amp;quot;default&amp;quot;,&amp;quot;id&amp;quot;:&amp;quot;BYiKrtNcax059616&amp;quot;},{&amp;quot;name&amp;quot;:&amp;quot;所有者&amp;quot;,&amp;quot;type&amp;quot;:&amp;quot;string&amp;quot;,&amp;quot;value&amp;quot;:&amp;quot;&amp;quot;,&amp;quot;category&amp;quot;:&amp;quot;default&amp;quot;,&amp;quot;id&amp;quot;:&amp;quot;JGmzwidGAD500608&amp;quot;},{&amp;quot;name&amp;quot;:&amp;quot;连接&amp;quot;,&amp;quot;type&amp;quot;:&amp;quot;link&amp;quot;,&amp;quot;value&amp;quot;:&amp;quot;&amp;quot;,&amp;quot;category&amp;quot;:&amp;quot;default&amp;quot;,&amp;quot;id&amp;quot;:&amp;quot;fENNZypfCQ696588&amp;quot;},{&amp;quot;name&amp;quot;:&amp;quot;便笺&amp;quot;,&amp;quot;type&amp;quot;:&amp;quot;string&amp;quot;,&amp;quot;value&amp;quot;:&amp;quot;&amp;quot;,&amp;quot;category&amp;quot;:&amp;quot;default&amp;quot;,&amp;quot;id&amp;quot;:&amp;quot;paXHNkTkbq445277&amp;quot;},{&amp;quot;name&amp;quot;:&amp;quot;成本&amp;quot;,&amp;quot;type&amp;quot;:&amp;quot;number&amp;quot;,&amp;quot;value&amp;quot;:&amp;quot;&amp;quot;,&amp;quot;category&amp;quot;:&amp;quot;default&amp;quot;,&amp;quot;id&amp;quot;:&amp;quot;znHjHCcIgb470228&amp;quot;},{&amp;quot;name&amp;quot;:&amp;quot;时间&amp;quot;,&amp;quot;type&amp;quot;:&amp;quot;number&amp;quot;,&amp;quot;value&amp;quot;:&amp;quot;&amp;quot;,&amp;quot;category&amp;quot;:&amp;quot;default&amp;quot;,&amp;quot;id&amp;quot;:&amp;quot;DOPpDrvxVs643930&amp;quot;},{&amp;quot;name&amp;quot;:&amp;quot;部门&amp;quot;,&amp;quot;type&amp;quot;:&amp;quot;string&amp;quot;,&amp;quot;value&amp;quot;:&amp;quot;&amp;quot;,&amp;quot;category&amp;quot;:&amp;quot;default&amp;quot;,&amp;quot;id&amp;quot;:&amp;quot;GBtbsYsGqs647926&amp;quot;},{&amp;quot;name&amp;quot;:&amp;quot;输入&amp;quot;,&amp;quot;type&amp;quot;:&amp;quot;string&amp;quot;,&amp;quot;value&amp;quot;:&amp;quot;&amp;quot;,&amp;quot;category&amp;quot;:&amp;quot;default&amp;quot;,&amp;quot;id&amp;quot;:&amp;quot;NNmbqrxaWY606381&amp;quot;},{&amp;quot;name&amp;quot;:&amp;quot;输出&amp;quot;,&amp;quot;type&amp;quot;:&amp;quot;string&amp;quot;,&amp;quot;value&amp;quot;:&amp;quot;&amp;quot;,&amp;quot;category&amp;quot;:&amp;quot;default&amp;quot;,&amp;quot;id&amp;quot;:&amp;quot;DGPkIbFvFL646655&amp;quot;},{&amp;quot;name&amp;quot;:&amp;quot;风险&amp;quot;,&amp;quot;type&amp;quot;:&amp;quot;string&amp;quot;,&amp;quot;value&amp;quot;:&amp;quot;&amp;quot;,&amp;quot;category&amp;quot;:&amp;quot;default&amp;quot;,&amp;quot;id&amp;quot;:&amp;quot;NFDcbgSjny416371&amp;quot;},{&amp;quot;name&amp;quot;:&amp;quot;备注&amp;quot;,&amp;quot;type&amp;quot;:&amp;quot;string&amp;quot;,&amp;quot;value&amp;quot;:&amp;quot;&amp;quot;,&amp;quot;category&amp;quot;:&amp;quot;default&amp;quot;,&amp;quot;id&amp;quot;:&amp;quot;mpGjaUAWwL811779&amp;quot;}],&amp;quot;props&amp;quot;:{&amp;quot;x&amp;quot;:360.11751308502835,&amp;quot;y&amp;quot;:1252.8427349788185,&amp;quot;w&amp;quot;:136.0690602105213,&amp;quot;h&amp;quot;:102.1005106513594,&amp;quot;zindex&amp;quot;:131,&amp;quot;angle&amp;quot;:0},&amp;quot;shapeStyle&amp;quot;:{&amp;quot;alpha&amp;quot;:1},&amp;quot;lineStyle&amp;quot;:{&amp;quot;lineWidth&amp;quot;:1.5},&amp;quot;fillStyle&amp;quot;:{},&amp;quot;theme&amp;quot;:{},&amp;quot;path&amp;quot;:[{&amp;quot;actions&amp;quot;:[{&amp;quot;action&amp;quot;:&amp;quot;move&amp;quot;,&amp;quot;x&amp;quot;:&amp;quot;0&amp;quot;,&amp;quot;y&amp;quot;:&amp;quot;0&amp;quot;},{&amp;quot;action&amp;quot;:&amp;quot;line&amp;quot;,&amp;quot;x&amp;quot;:&amp;quot;w&amp;quot;,&amp;quot;y&amp;quot;:&amp;quot;0&amp;quot;},{&amp;quot;action&amp;quot;:&amp;quot;line&amp;quot;,&amp;quot;x&amp;quot;:&amp;quot;w&amp;quot;,&amp;quot;y&amp;quot;:&amp;quot;h&amp;quot;},{&amp;quot;action&amp;quot;:&amp;quot;line&amp;quot;,&amp;quot;x&amp;quot;:&amp;quot;0&amp;quot;,&amp;quot;y&amp;quot;:&amp;quot;h&amp;quot;},{&amp;quot;action&amp;quot;:&amp;quot;close&amp;quot;}]}],&amp;quot;fontStyle&amp;quot;:{&amp;quot;textAlign&amp;quot;:&amp;quot;center&amp;quot;,&amp;quot;vAlign&amp;quot;:&amp;quot;middle&amp;quot;},&amp;quot;textBlock&amp;quot;:[{&amp;quot;position&amp;quot;:{&amp;quot;x&amp;quot;:10,&amp;quot;y&amp;quot;:0,&amp;quot;w&amp;quot;:&amp;quot;w-20&amp;quot;,&amp;quot;h&amp;quot;:&amp;quot;h&amp;quot;},&amp;quot;text&amp;quot;:&amp;quot;telephony fw&amp;quot;}],&amp;quot;anchors&amp;quot;:[{&amp;quot;x&amp;quot;:&amp;quot;w/2&amp;quot;,&amp;quot;y&amp;quot;:&amp;quot;0&amp;quot;},{&amp;quot;x&amp;quot;:&amp;quot;w/2&amp;quot;,&amp;quot;y&amp;quot;:&amp;quot;h&amp;quot;},{&amp;quot;x&amp;quot;:&amp;quot;0&amp;quot;,&amp;quot;y&amp;quot;:&amp;quot;h/2&amp;quot;},{&amp;quot;x&amp;quot;:&amp;quot;w&amp;quot;,&amp;quot;y&amp;quot;:&amp;quot;h/2&amp;quot;}]},{&amp;quot;id&amp;quot;:&amp;quot;oITgfcILeq490214&amp;quot;,&amp;quot;name&amp;quot;:&amp;quot;process&amp;quot;,&amp;quot;title&amp;quot;:&amp;quot;流程&amp;quot;,&amp;quot;category&amp;quot;:&amp;quot;flow&amp;quot;,&amp;quot;group&amp;quot;:&amp;quot;&amp;quot;,&amp;quot;groupName&amp;quot;:null,&amp;quot;locked&amp;quot;:false,&amp;quot;link&amp;quot;:&amp;quot;&amp;quot;,&amp;quot;children&amp;quot;:[],&amp;quot;parent&amp;quot;:&amp;quot;&amp;quot;,&amp;quot;resizeDir&amp;quot;:[&amp;quot;tl&amp;quot;,&amp;quot;tr&amp;quot;,&amp;quot;br&amp;quot;,&amp;quot;bl&amp;quot;,&amp;quot;l&amp;quot;,&amp;quot;t&amp;quot;,&amp;quot;r&amp;quot;,&amp;quot;b&amp;quot;],&amp;quot;attribute&amp;quot;:{&amp;quot;container&amp;quot;:false,&amp;quot;visible&amp;quot;:true,&amp;quot;rotatable&amp;quot;:true,&amp;quot;linkable&amp;quot;:true,&amp;quot;collapsable&amp;quot;:false,&amp;quot;collapsed&amp;quot;:false,&amp;quot;fixedLink&amp;quot;:false,&amp;quot;markerOffset&amp;quot;:5},&amp;quot;dataAttributes&amp;quot;:[{&amp;quot;name&amp;quot;:&amp;quot;序号&amp;quot;,&amp;quot;type&amp;quot;:&amp;quot;number&amp;quot;,&amp;quot;value&amp;quot;:&amp;quot;&amp;quot;,&amp;quot;category&amp;quot;:&amp;quot;default&amp;quot;,&amp;quot;id&amp;quot;:&amp;quot;FVoTqrHbmr115369&amp;quot;},{&amp;quot;name&amp;quot;:&amp;quot;名称&amp;quot;,&amp;quot;type&amp;quot;:&amp;quot;string&amp;quot;,&amp;quot;value&amp;quot;:&amp;quot;&amp;quot;,&amp;quot;category&amp;quot;:&amp;quot;default&amp;quot;,&amp;quot;id&amp;quot;:&amp;quot;FflEVtfWkT113934&amp;quot;},{&amp;quot;name&amp;quot;:&amp;quot;所有者&amp;quot;,&amp;quot;type&amp;quot;:&amp;quot;string&amp;quot;,&amp;quot;value&amp;quot;:&amp;quot;&amp;quot;,&amp;quot;category&amp;quot;:&amp;quot;default&amp;quot;,&amp;quot;id&amp;quot;:&amp;quot;zfwFtGfsrZ455910&amp;quot;},{&amp;quot;name&amp;quot;:&amp;quot;连接&amp;quot;,&amp;quot;type&amp;quot;:&amp;quot;link&amp;quot;,&amp;quot;value&amp;quot;:&amp;quot;&amp;quot;,&amp;quot;category&amp;quot;:&amp;quot;default&amp;quot;,&amp;quot;id&amp;quot;:&amp;quot;JxFEASegfg837315&amp;quot;},{&amp;quot;name&amp;quot;:&amp;quot;便笺&amp;quot;,&amp;quot;type&amp;quot;:&amp;quot;string&amp;quot;,&amp;quot;value&amp;quot;:&amp;quot;&amp;quot;,&amp;quot;category&amp;quot;:&amp;quot;default&amp;quot;,&amp;quot;id&amp;quot;:&amp;quot;ZrZXklDmel320803&amp;quot;},{&amp;quot;name&amp;quot;:&amp;quot;成本&amp;quot;,&amp;quot;type&amp;quot;:&amp;quot;number&amp;quot;,&amp;quot;value&amp;quot;:&amp;quot;&amp;quot;,&amp;quot;category&amp;quot;:&amp;quot;default&amp;quot;,&amp;quot;id&amp;quot;:&amp;quot;rLEtRGeGAk611804&amp;quot;},{&amp;quot;name&amp;quot;:&amp;quot;时间&amp;quot;,&amp;quot;type&amp;quot;:&amp;quot;number&amp;quot;,&amp;quot;value&amp;quot;:&amp;quot;&amp;quot;,&amp;quot;category&amp;quot;:&amp;quot;default&amp;quot;,&amp;quot;id&amp;quot;:&amp;quot;sFRDmrysxL696781&amp;quot;},{&amp;quot;name&amp;quot;:&amp;quot;部门&amp;quot;,&amp;quot;type&amp;quot;:&amp;quot;string&amp;quot;,&amp;quot;value&amp;quot;:&amp;quot;&amp;quot;,&amp;quot;category&amp;quot;:&amp;quot;default&amp;quot;,&amp;quot;id&amp;quot;:&amp;quot;JavOHDPflF874345&amp;quot;},{&amp;quot;name&amp;quot;:&amp;quot;输入&amp;quot;,&amp;quot;type&amp;quot;:&amp;quot;string&amp;quot;,&amp;quot;value&amp;quot;:&amp;quot;&amp;quot;,&amp;quot;category&amp;quot;:&amp;quot;default&amp;quot;,&amp;quot;id&amp;quot;:&amp;quot;iAaEeFEiwX456779&amp;quot;},{&amp;quot;name&amp;quot;:&amp;quot;输出&amp;quot;,&amp;quot;type&amp;quot;:&amp;quot;string&amp;quot;,&amp;quot;value&amp;quot;:&amp;quot;&amp;quot;,&amp;quot;category&amp;quot;:&amp;quot;default&amp;quot;,&amp;quot;id&amp;quot;:&amp;quot;KwrVZkKfar163502&amp;quot;},{&amp;quot;name&amp;quot;:&amp;quot;风险&amp;quot;,&amp;quot;type&amp;quot;:&amp;quot;string&amp;quot;,&amp;quot;value&amp;quot;:&amp;quot;&amp;quot;,&amp;quot;category&amp;quot;:&amp;quot;default&amp;quot;,&amp;quot;id&amp;quot;:&amp;quot;sgQGDsKDuI464361&amp;quot;},{&amp;quot;name&amp;quot;:&amp;quot;备注&amp;quot;,&amp;quot;type&amp;quot;:&amp;quot;string&amp;quot;,&amp;quot;value&amp;quot;:&amp;quot;&amp;quot;,&amp;quot;category&amp;quot;:&amp;quot;default&amp;quot;,&amp;quot;id&amp;quot;:&amp;quot;TNbrrKiyiN023777&amp;quot;}],&amp;quot;props&amp;quot;:{&amp;quot;x&amp;quot;:378.15204319028896,&amp;quot;y&amp;quot;:1319.0437562815373,&amp;quot;w&amp;quot;:91.62058933759585,&amp;quot;h&amp;quot;:25.798978697281427,&amp;quot;zindex&amp;quot;:132,&amp;quot;angle&amp;quot;:0},&amp;quot;shapeStyle&amp;quot;:{&amp;quot;alpha&amp;quot;:1},&amp;quot;lineStyle&amp;quot;:{&amp;quot;lineWidth&amp;quot;:1.5},&amp;quot;fillStyle&amp;quot;:{},&amp;quot;theme&amp;quot;:{},&amp;quot;path&amp;quot;:[{&amp;quot;actions&amp;quot;:[{&amp;quot;action&amp;quot;:&amp;quot;move&amp;quot;,&amp;quot;x&amp;quot;:&amp;quot;0&amp;quot;,&amp;quot;y&amp;quot;:&amp;quot;0&amp;quot;},{&amp;quot;action&amp;quot;:&amp;quot;line&amp;quot;,&amp;quot;x&amp;quot;:&amp;quot;w&amp;quot;,&amp;quot;y&amp;quot;:&amp;quot;0&amp;quot;},{&amp;quot;action&amp;quot;:&amp;quot;line&amp;quot;,&amp;quot;x&amp;quot;:&amp;quot;w&amp;quot;,&amp;quot;y&amp;quot;:&amp;quot;h&amp;quot;},{&amp;quot;action&amp;quot;:&amp;quot;line&amp;quot;,&amp;quot;x&amp;quot;:&amp;quot;0&amp;quot;,&amp;quot;y&amp;quot;:&amp;quot;h&amp;quot;},{&amp;quot;action&amp;quot;:&amp;quot;close&amp;quot;}]}],&amp;quot;fontStyle&amp;quot;:{},&amp;quot;textBlock&amp;quot;:[{&amp;quot;position&amp;quot;:{&amp;quot;x&amp;quot;:10,&amp;quot;y&amp;quot;:0,&amp;quot;w&amp;quot;:&amp;quot;w-20&amp;quot;,&amp;quot;h&amp;quot;:&amp;quot;h&amp;quot;},&amp;quot;text&amp;quot;:&amp;quot;RILJ&amp;quot;}],&amp;quot;anchors&amp;quot;:[{&amp;quot;x&amp;quot;:&amp;quot;w/2&amp;quot;,&amp;quot;y&amp;quot;:&amp;quot;0&amp;quot;},{&amp;quot;x&amp;quot;:&amp;quot;w/2&amp;quot;,&amp;quot;y&amp;quot;:&amp;quot;h&amp;quot;},{&amp;quot;x&amp;quot;:&amp;quot;0&amp;quot;,&amp;quot;y&amp;quot;:&amp;quot;h/2&amp;quot;},{&amp;quot;x&amp;quot;:&amp;quot;w&amp;quot;,&amp;quot;y&amp;quot;:&amp;quot;h/2&amp;quot;}]},{&amp;quot;id&amp;quot;:&amp;quot;iXsymwqgNO183297&amp;quot;,&amp;quot;name&amp;quot;:&amp;quot;process&amp;quot;,&amp;quot;title&amp;quot;:&amp;quot;流程&amp;quot;,&amp;quot;category&amp;quot;:&amp;quot;flow&amp;quot;,&amp;quot;group&amp;quot;:&amp;quot;&amp;quot;,&amp;quot;groupName&amp;quot;:null,&amp;quot;locked&amp;quot;:false,&amp;quot;link&amp;quot;:&amp;quot;&amp;quot;,&amp;quot;children&amp;quot;:[],&amp;quot;parent&amp;quot;:&amp;quot;&amp;quot;,&amp;quot;resizeDir&amp;quot;:[&amp;quot;tl&amp;quot;,&amp;quot;tr&amp;quot;,&amp;quot;br&amp;quot;,&amp;quot;bl&amp;quot;,&amp;quot;l&amp;quot;,&amp;quot;t&amp;quot;,&amp;quot;r&amp;quot;,&amp;quot;b&amp;quot;],&amp;quot;attribute&amp;quot;:{&amp;quot;container&amp;quot;:false,&amp;quot;visible&amp;quot;:true,&amp;quot;rotatable&amp;quot;:true,&amp;quot;linkable&amp;quot;:true,&amp;quot;collapsable&amp;quot;:false,&amp;quot;collapsed&amp;quot;:false,&amp;quot;fixedLink&amp;quot;:false,&amp;quot;markerOffset&amp;quot;:5},&amp;quot;dataAttributes&amp;quot;:[{&amp;quot;name&amp;quot;:&amp;quot;序号&amp;quot;,&amp;quot;type&amp;quot;:&amp;quot;number&amp;quot;,&amp;quot;value&amp;quot;:&amp;quot;&amp;quot;,&amp;quot;category&amp;quot;:&amp;quot;default&amp;quot;,&amp;quot;id&amp;quot;:&amp;quot;IhlmPdXGdY899874&amp;quot;},{&amp;quot;name&amp;quot;:&amp;quot;名称&amp;quot;,&amp;quot;type&amp;quot;:&amp;quot;string&amp;quot;,&amp;quot;value&amp;quot;:&amp;quot;&amp;quot;,&amp;quot;category&amp;quot;:&amp;quot;default&amp;quot;,&amp;quot;id&amp;quot;:&amp;quot;psxgaewiPd211912&amp;quot;},{&amp;quot;name&amp;quot;:&amp;quot;所有者&amp;quot;,&amp;quot;type&amp;quot;:&amp;quot;string&amp;quot;,&amp;quot;value&amp;quot;:&amp;quot;&amp;quot;,&amp;quot;category&amp;quot;:&amp;quot;default&amp;quot;,&amp;quot;id&amp;quot;:&amp;quot;lufMJPkToF417722&amp;quot;},{&amp;quot;name&amp;quot;:&amp;quot;连接&amp;quot;,&amp;quot;type&amp;quot;:&amp;quot;link&amp;quot;,&amp;quot;value&amp;quot;:&amp;quot;&amp;quot;,&amp;quot;category&amp;quot;:&amp;quot;default&amp;quot;,&amp;quot;id&amp;quot;:&amp;quot;tqXdbCdgNG989872&amp;quot;},{&amp;quot;name&amp;quot;:&amp;quot;便笺&amp;quot;,&amp;quot;type&amp;quot;:&amp;quot;string&amp;quot;,&amp;quot;value&amp;quot;:&amp;quot;&amp;quot;,&amp;quot;category&amp;quot;:&amp;quot;default&amp;quot;,&amp;quot;id&amp;quot;:&amp;quot;IlGeTzKpwz583540&amp;quot;},{&amp;quot;name&amp;quot;:&amp;quot;成本&amp;quot;,&amp;quot;type&amp;quot;:&amp;quot;number&amp;quot;,&amp;quot;value&amp;quot;:&amp;quot;&amp;quot;,&amp;quot;category&amp;quot;:&amp;quot;default&amp;quot;,&amp;quot;id&amp;quot;:&amp;quot;ToVzklvpRC065491&amp;quot;},{&amp;quot;name&amp;quot;:&amp;quot;时间&amp;quot;,&amp;quot;type&amp;quot;:&amp;quot;number&amp;quot;,&amp;quot;value&amp;quot;:&amp;quot;&amp;quot;,&amp;quot;category&amp;quot;:&amp;quot;default&amp;quot;,&amp;quot;id&amp;quot;:&amp;quot;CQIqALqcqm217625&amp;quot;},{&amp;quot;name&amp;quot;:&amp;quot;部门&amp;quot;,&amp;quot;type&amp;quot;:&amp;quot;string&amp;quot;,&amp;quot;value&amp;quot;:&amp;quot;&amp;quot;,&amp;quot;category&amp;quot;:&amp;quot;default&amp;quot;,&amp;quot;id&amp;quot;:&amp;quot;OrEElmfsky465469&amp;quot;},{&amp;quot;name&amp;quot;:&amp;quot;输入&amp;quot;,&amp;quot;type&amp;quot;:&amp;quot;string&amp;quot;,&amp;quot;value&amp;quot;:&amp;quot;&amp;quot;,&amp;quot;category&amp;quot;:&amp;quot;default&amp;quot;,&amp;quot;id&amp;quot;:&amp;quot;UbDKKqsIMT283698&amp;quot;},{&amp;quot;name&amp;quot;:&amp;quot;输出&amp;quot;,&amp;quot;type&amp;quot;:&amp;quot;string&amp;quot;,&amp;quot;value&amp;quot;:&amp;quot;&amp;quot;,&amp;quot;category&amp;quot;:&amp;quot;default&amp;quot;,&amp;quot;id&amp;quot;:&amp;quot;SvictPxwgX603748&amp;quot;},{&amp;quot;name&amp;quot;:&amp;quot;风险&amp;quot;,&amp;quot;type&amp;quot;:&amp;quot;string&amp;quot;,&amp;quot;value&amp;quot;:&amp;quot;&amp;quot;,&amp;quot;category&amp;quot;:&amp;quot;default&amp;quot;,&amp;quot;id&amp;quot;:&amp;quot;IXjkbcKzhZ053980&amp;quot;},{&amp;quot;name&amp;quot;:&amp;quot;备注&amp;quot;,&amp;quot;type&amp;quot;:&amp;quot;string&amp;quot;,&amp;quot;value&amp;quot;:&amp;quot;&amp;quot;,&amp;quot;category&amp;quot;:&amp;quot;default&amp;quot;,&amp;quot;id&amp;quot;:&amp;quot;rPJJCTGImD245305&amp;quot;}],&amp;quot;props&amp;quot;:{&amp;quot;x&amp;quot;:535.7637353517866,&amp;quot;y&amp;quot;:1252.742224327459,&amp;quot;w&amp;quot;:136.78779377528792,&amp;quot;h&amp;quot;:46.2577756725409,&amp;quot;zindex&amp;quot;:133,&amp;quot;angle&amp;quot;:0},&amp;quot;shapeStyle&amp;quot;:{&amp;quot;alpha&amp;quot;:1},&amp;quot;lineStyle&amp;quot;:{&amp;quot;lineWidth&amp;quot;:1.5},&amp;quot;fillStyle&amp;quot;:{},&amp;quot;theme&amp;quot;:{},&amp;quot;path&amp;quot;:[{&amp;quot;actions&amp;quot;:[{&amp;quot;action&amp;quot;:&amp;quot;move&amp;quot;,&amp;quot;x&amp;quot;:&amp;quot;0&amp;quot;,&amp;quot;y&amp;quot;:&amp;quot;0&amp;quot;},{&amp;quot;action&amp;quot;:&amp;quot;line&amp;quot;,&amp;quot;x&amp;quot;:&amp;quot;w&amp;quot;,&amp;quot;y&amp;quot;:&amp;quot;0&amp;quot;},{&amp;quot;action&amp;quot;:&amp;quot;line&amp;quot;,&amp;quot;x&amp;quot;:&amp;quot;w&amp;quot;,&amp;quot;y&amp;quot;:&amp;quot;h&amp;quot;},{&amp;quot;action&amp;quot;:&amp;quot;line&amp;quot;,&amp;quot;x&amp;quot;:&amp;quot;0&amp;quot;,&amp;quot;y&amp;quot;:&amp;quot;h&amp;quot;},{&amp;quot;action&amp;quot;:&amp;quot;close&amp;quot;}]}],&amp;quot;fontStyle&amp;quot;:{},&amp;quot;textBlock&amp;quot;:[{&amp;quot;position&amp;quot;:{&amp;quot;x&amp;quot;:10,&amp;quot;y&amp;quot;:0,&amp;quot;w&amp;quot;:&amp;quot;w-20&amp;quot;,&amp;quot;h&amp;quot;:&amp;quot;h&amp;quot;},&amp;quot;text&amp;quot;:&amp;quot;telecomfw&amp;quot;}],&amp;quot;anchors&amp;quot;:[{&amp;quot;x&amp;quot;:&amp;quot;w/2&amp;quot;,&amp;quot;y&amp;quot;:&amp;quot;0&amp;quot;},{&amp;quot;x&amp;quot;:&amp;quot;w/2&amp;quot;,&amp;quot;y&amp;quot;:&amp;quot;h&amp;quot;},{&amp;quot;x&amp;quot;:&amp;quot;0&amp;quot;,&amp;quot;y&amp;quot;:&amp;quot;h/2&amp;quot;},{&amp;quot;x&amp;quot;:&amp;quot;w&amp;quot;,&amp;quot;y&amp;quot;:&amp;quot;h/2&amp;quot;}]},{&amp;quot;id&amp;quot;:&amp;quot;SJkMZMgugs247656&amp;quot;,&amp;quot;name&amp;quot;:&amp;quot;process&amp;quot;,&amp;quot;title&amp;quot;:&amp;quot;流程&amp;quot;,&amp;quot;category&amp;quot;:&amp;quot;flow&amp;quot;,&amp;quot;group&amp;quot;:&amp;quot;&amp;quot;,&amp;quot;groupName&amp;quot;:null,&amp;quot;locked&amp;quot;:false,&amp;quot;link&amp;quot;:&amp;quot;&amp;quot;,&amp;quot;children&amp;quot;:[],&amp;quot;parent&amp;quot;:&amp;quot;&amp;quot;,&amp;quot;resizeDir&amp;quot;:[&amp;quot;tl&amp;quot;,&amp;quot;tr&amp;quot;,&amp;quot;br&amp;quot;,&amp;quot;bl&amp;quot;,&amp;quot;l&amp;quot;,&amp;quot;t&amp;quot;,&amp;quot;r&amp;quot;,&amp;quot;b&amp;quot;],&amp;quot;attribute&amp;quot;:{&amp;quot;container&amp;quot;:false,&amp;quot;visible&amp;quot;:true,&amp;quot;rotatable&amp;quot;:true,&amp;quot;linkable&amp;quot;:true,&amp;quot;collapsable&amp;quot;:false,&amp;quot;collapsed&amp;quot;:false,&amp;quot;fixedLink&amp;quot;:false,&amp;quot;markerOffset&amp;quot;:5},&amp;quot;dataAttributes&amp;quot;:[{&amp;quot;name&amp;quot;:&amp;quot;序号&amp;quot;,&amp;quot;type&amp;quot;:&amp;quot;number&amp;quot;,&amp;quot;value&amp;quot;:&amp;quot;&amp;quot;,&amp;quot;category&amp;quot;:&amp;quot;default&amp;quot;,&amp;quot;id&amp;quot;:&amp;quot;RuuRhQSRGv940308&amp;quot;},{&amp;quot;name&amp;quot;:&amp;quot;名称&amp;quot;,&amp;quot;type&amp;quot;:&amp;quot;string&amp;quot;,&amp;quot;value&amp;quot;:&amp;quot;&amp;quot;,&amp;quot;category&amp;quot;:&amp;quot;default&amp;quot;,&amp;quot;id&amp;quot;:&amp;quot;mEPipUHiov971175&amp;quot;},{&amp;quot;name&amp;quot;:&amp;quot;所有者&amp;quot;,&amp;quot;type&amp;quot;:&amp;quot;string&amp;quot;,&amp;quot;value&amp;quot;:&amp;quot;&amp;quot;,&amp;quot;category&amp;quot;:&amp;quot;default&amp;quot;,&amp;quot;id&amp;quot;:&amp;quot;KZXICTopVz601168&amp;quot;},{&amp;quot;name&amp;quot;:&amp;quot;连接&amp;quot;,&amp;quot;type&amp;quot;:&amp;quot;link&amp;quot;,&amp;quot;value&amp;quot;:&amp;quot;&amp;quot;,&amp;quot;category&amp;quot;:&amp;quot;default&amp;quot;,&amp;quot;id&amp;quot;:&amp;quot;PGvhkWrGKE272220&amp;quot;},{&amp;quot;name&amp;quot;:&amp;quot;便笺&amp;quot;,&amp;quot;type&amp;quot;:&amp;quot;string&amp;quot;,&amp;quot;value&amp;quot;:&amp;quot;&amp;quot;,&amp;quot;category&amp;quot;:&amp;quot;default&amp;quot;,&amp;quot;id&amp;quot;:&amp;quot;wHShVizhnQ257674&amp;quot;},{&amp;quot;name&amp;quot;:&amp;quot;成本&amp;quot;,&amp;quot;type&amp;quot;:&amp;quot;number&amp;quot;,&amp;quot;value&amp;quot;:&amp;quot;&amp;quot;,&amp;quot;category&amp;quot;:&amp;quot;default&amp;quot;,&amp;quot;id&amp;quot;:&amp;quot;RflMudQpAO868837&amp;quot;},{&amp;quot;name&amp;quot;:&amp;quot;时间&amp;quot;,&amp;quot;type&amp;quot;:&amp;quot;number&amp;quot;,&amp;quot;value&amp;quot;:&amp;quot;&amp;quot;,&amp;quot;category&amp;quot;:&amp;quot;default&amp;quot;,&amp;quot;id&amp;quot;:&amp;quot;QmnsPoDGEz106790&amp;quot;},{&amp;quot;name&amp;quot;:&amp;quot;部门&amp;quot;,&amp;quot;type&amp;quot;:&amp;quot;string&amp;quot;,&amp;quot;value&amp;quot;:&amp;quot;&amp;quot;,&amp;quot;category&amp;quot;:&amp;quot;default&amp;quot;,&amp;quot;id&amp;quot;:&amp;quot;AbAsEOfCXI431438&amp;quot;},{&amp;quot;name&amp;quot;:&amp;quot;输入&amp;quot;,&amp;quot;type&amp;quot;:&amp;quot;string&amp;quot;,&amp;quot;value&amp;quot;:&amp;quot;&amp;quot;,&amp;quot;category&amp;quot;:&amp;quot;default&amp;quot;,&amp;quot;id&amp;quot;:&amp;quot;zAYNrtXtja985136&amp;quot;},{&amp;quot;name&amp;quot;:&amp;quot;输出&amp;quot;,&amp;quot;type&amp;quot;:&amp;quot;string&amp;quot;,&amp;quot;value&amp;quot;:&amp;quot;&amp;quot;,&amp;quot;category&amp;quot;:&amp;quot;default&amp;quot;,&amp;quot;id&amp;quot;:&amp;quot;bWIJgYtrbC434174&amp;quot;},{&amp;quot;name&amp;quot;:&amp;quot;风险&amp;quot;,&amp;quot;type&amp;quot;:&amp;quot;string&amp;quot;,&amp;quot;value&amp;quot;:&amp;quot;&amp;quot;,&amp;quot;category&amp;quot;:&amp;quot;default&amp;quot;,&amp;quot;id&amp;quot;:&amp;quot;rOdIAvYCwW176207&amp;quot;},{&amp;quot;name&amp;quot;:&amp;quot;备注&amp;quot;,&amp;quot;type&amp;quot;:&amp;quot;string&amp;quot;,&amp;quot;value&amp;quot;:&amp;quot;&amp;quot;,&amp;quot;category&amp;quot;:&amp;quot;default&amp;quot;,&amp;quot;id&amp;quot;:&amp;quot;SKYYUERaSc213276&amp;quot;}],&amp;quot;props&amp;quot;:{&amp;quot;x&amp;quot;:535.7637353517865,&amp;quot;y&amp;quot;:1308.943245630178,&amp;quot;w&amp;quot;:136.78779377528804,&amp;quot;h&amp;quot;:46,&amp;quot;zindex&amp;quot;:134,&amp;quot;angle&amp;quot;:0},&amp;quot;shapeStyle&amp;quot;:{&amp;quot;alpha&amp;quot;:1},&amp;quot;lineStyle&amp;quot;:{&amp;quot;lineWidth&amp;quot;:1.5},&amp;quot;fillStyle&amp;quot;:{},&amp;quot;theme&amp;quot;:{},&amp;quot;path&amp;quot;:[{&amp;quot;actions&amp;quot;:[{&amp;quot;action&amp;quot;:&amp;quot;move&amp;quot;,&amp;quot;x&amp;quot;:&amp;quot;0&amp;quot;,&amp;quot;y&amp;quot;:&amp;quot;0&amp;quot;},{&amp;quot;action&amp;quot;:&amp;quot;line&amp;quot;,&amp;quot;x&amp;quot;:&amp;quot;w&amp;quot;,&amp;quot;y&amp;quot;:&amp;quot;0&amp;quot;},{&amp;quot;action&amp;quot;:&amp;quot;line&amp;quot;,&amp;quot;x&amp;quot;:&amp;quot;w&amp;quot;,&amp;quot;y&amp;quot;:&amp;quot;h&amp;quot;},{&amp;quot;action&amp;quot;:&amp;quot;line&amp;quot;,&amp;quot;x&amp;quot;:&amp;quot;0&amp;quot;,&amp;quot;y&amp;quot;:&amp;quot;h&amp;quot;},{&amp;quot;action&amp;quot;:&amp;quot;close&amp;quot;}]}],&amp;quot;fontStyle&amp;quot;:{},&amp;quot;textBlock&amp;quot;:[{&amp;quot;position&amp;quot;:{&amp;quot;x&amp;quot;:10,&amp;quot;y&amp;quot;:0,&amp;quot;w&amp;quot;:&amp;quot;w-20&amp;quot;,&amp;quot;h&amp;quot;:&amp;quot;h&amp;quot;},&amp;quot;text&amp;quot;:&amp;quot;net/ims&amp;quot;}],&amp;quot;anchors&amp;quot;:[{&amp;quot;x&amp;quot;:&amp;quot;w/2&amp;quot;,&amp;quot;y&amp;quot;:&amp;quot;0&amp;quot;},{&amp;quot;x&amp;quot;:&amp;quot;w/2&amp;quot;,&amp;quot;y&amp;quot;:&amp;quot;h&amp;quot;},{&amp;quot;x&amp;quot;:&amp;quot;0&amp;quot;,&amp;quot;y&amp;quot;:&amp;quot;h/2&amp;quot;},{&amp;quot;x&amp;quot;:&amp;quot;w&amp;quot;,&amp;quot;y&amp;quot;:&amp;quot;h/2&amp;quot;}]},{&amp;quot;id&amp;quot;:&amp;quot;rjoZMPRSEJ757156&amp;quot;,&amp;quot;name&amp;quot;:&amp;quot;process&amp;quot;,&amp;quot;title&amp;quot;:&amp;quot;流程&amp;quot;,&amp;quot;category&amp;quot;:&amp;quot;flow&amp;quot;,&amp;quot;group&amp;quot;:&amp;quot;&amp;quot;,&amp;quot;groupName&amp;quot;:null,&amp;quot;locked&amp;quot;:false,&amp;quot;link&amp;quot;:&amp;quot;&amp;quot;,&amp;quot;children&amp;quot;:[],&amp;quot;parent&amp;quot;:&amp;quot;&amp;quot;,&amp;quot;resizeDir&amp;quot;:[&amp;quot;tl&amp;quot;,&amp;quot;tr&amp;quot;,&amp;quot;br&amp;quot;,&amp;quot;bl&amp;quot;,&amp;quot;l&amp;quot;,&amp;quot;t&amp;quot;,&amp;quot;r&amp;quot;,&amp;quot;b&amp;quot;],&amp;quot;attribute&amp;quot;:{&amp;quot;container&amp;quot;:false,&amp;quot;visible&amp;quot;:true,&amp;quot;rotatable&amp;quot;:true,&amp;quot;linkable&amp;quot;:true,&amp;quot;collapsable&amp;quot;:false,&amp;quot;collapsed&amp;quot;:false,&amp;quot;fixedLink&amp;quot;:false,&amp;quot;markerOffset&amp;quot;:5},&amp;quot;dataAttributes&amp;quot;:[{&amp;quot;name&amp;quot;:&amp;quot;序号&amp;quot;,&amp;quot;type&amp;quot;:&amp;quot;number&amp;quot;,&amp;quot;value&amp;quot;:&amp;quot;&amp;quot;,&amp;quot;category&amp;quot;:&amp;quot;default&amp;quot;,&amp;quot;id&amp;quot;:&amp;quot;dsbXxYcRGC544972&amp;quot;},{&amp;quot;name&amp;quot;:&amp;quot;名称&amp;quot;,&amp;quot;type&amp;quot;:&amp;quot;string&amp;quot;,&amp;quot;value&amp;quot;:&amp;quot;&amp;quot;,&amp;quot;category&amp;quot;:&amp;quot;default&amp;quot;,&amp;quot;id&amp;quot;:&amp;quot;aNfJociUAH652615&amp;quot;},{&amp;quot;name&amp;quot;:&amp;quot;所有者&amp;quot;,&amp;quot;type&amp;quot;:&amp;quot;string&amp;quot;,&amp;quot;value&amp;quot;:&amp;quot;&amp;quot;,&amp;quot;category&amp;quot;:&amp;quot;default&amp;quot;,&amp;quot;id&amp;quot;:&amp;quot;EkKZcLDdsa881167&amp;quot;},{&amp;quot;name&amp;quot;:&amp;quot;连接&amp;quot;,&amp;quot;type&amp;quot;:&amp;quot;link&amp;quot;,&amp;quot;value&amp;quot;:&amp;quot;&amp;quot;,&amp;quot;category&amp;quot;:&amp;quot;default&amp;quot;,&amp;quot;id&amp;quot;:&amp;quot;hJYdVYoNWT271601&amp;quot;},{&amp;quot;name&amp;quot;:&amp;quot;便笺&amp;quot;,&amp;quot;type&amp;quot;:&amp;quot;string&amp;quot;,&amp;quot;value&amp;quot;:&amp;quot;&amp;quot;,&amp;quot;category&amp;quot;:&amp;quot;default&amp;quot;,&amp;quot;id&amp;quot;:&amp;quot;BhiNhPgboI946657&amp;quot;},{&amp;quot;name&amp;quot;:&amp;quot;成本&amp;quot;,&amp;quot;type&amp;quot;:&amp;quot;number&amp;quot;,&amp;quot;value&amp;quot;:&amp;quot;&amp;quot;,&amp;quot;category&amp;quot;:&amp;quot;default&amp;quot;,&amp;quot;id&amp;quot;:&amp;quot;qQDhVCOMcL589451&amp;quot;},{&amp;quot;name&amp;quot;:&amp;quot;时间&amp;quot;,&amp;quot;type&amp;quot;:&amp;quot;number&amp;quot;,&amp;quot;value&amp;quot;:&amp;quot;&amp;quot;,&amp;quot;category&amp;quot;:&amp;quot;default&amp;quot;,&amp;quot;id&amp;quot;:&amp;quot;UzyYsWRavm204673&amp;quot;},{&amp;quot;name&amp;quot;:&amp;quot;部门&amp;quot;,&amp;quot;type&amp;quot;:&amp;quot;string&amp;quot;,&amp;quot;value&amp;quot;:&amp;quot;&amp;quot;,&amp;quot;category&amp;quot;:&amp;quot;default&amp;quot;,&amp;quot;id&amp;quot;:&amp;quot;BfOVzVqqDW675839&amp;quot;},{&amp;quot;name&amp;quot;:&amp;quot;输入&amp;quot;,&amp;quot;type&amp;quot;:&amp;quot;string&amp;quot;,&amp;quot;value&amp;quot;:&amp;quot;&amp;quot;,&amp;quot;category&amp;quot;:&amp;quot;default&amp;quot;,&amp;quot;id&amp;quot;:&amp;quot;nMXmsqOvnk493534&amp;quot;},{&amp;quot;name&amp;quot;:&amp;quot;输出&amp;quot;,&amp;quot;type&amp;quot;:&amp;quot;string&amp;quot;,&amp;quot;value&amp;quot;:&amp;quot;&amp;quot;,&amp;quot;category&amp;quot;:&amp;quot;default&amp;quot;,&amp;quot;id&amp;quot;:&amp;quot;HNwsQWbLjQ532623&amp;quot;},{&amp;quot;name&amp;quot;:&amp;quot;风险&amp;quot;,&amp;quot;type&amp;quot;:&amp;quot;string&amp;quot;,&amp;quot;value&amp;quot;:&amp;quot;&amp;quot;,&amp;quot;category&amp;quot;:&amp;quot;default&amp;quot;,&amp;quot;id&amp;quot;:&amp;quot;pgAxTuAXGS374110&amp;quot;},{&amp;quot;name&amp;quot;:&amp;quot;备注&amp;quot;,&amp;quot;type&amp;quot;:&amp;quot;string&amp;quot;,&amp;quot;value&amp;quot;:&amp;quot;&amp;quot;,&amp;quot;category&amp;quot;:&amp;quot;default&amp;quot;,&amp;quot;id&amp;quot;:&amp;quot;guZwxVcsuH840793&amp;quot;}],&amp;quot;props&amp;quot;:{&amp;quot;x&amp;quot;:185.15131327876657,&amp;quot;y&amp;quot;:1405.211814880371,&amp;quot;w&amp;quot;:266.84868672123343,&amp;quot;h&amp;quot;:70,&amp;quot;zindex&amp;quot;:135,&amp;quot;angle&amp;quot;:0},&amp;quot;shapeStyle&amp;quot;:{&amp;quot;alpha&amp;quot;:1},&amp;quot;lineStyle&amp;quot;:{&amp;quot;lineWidth&amp;quot;:1.5},&amp;quot;fillStyle&amp;quot;:{&amp;quot;type&amp;quot;:&amp;quot;solid&amp;quot;,&amp;quot;color&amp;quot;:&amp;quot;121,133,236&amp;quot;},&amp;quot;theme&amp;quot;:{},&amp;quot;path&amp;quot;:[{&amp;quot;actions&amp;quot;:[{&amp;quot;action&amp;quot;:&amp;quot;move&amp;quot;,&amp;quot;x&amp;quot;:&amp;quot;0&amp;quot;,&amp;quot;y&amp;quot;:&amp;quot;0&amp;quot;},{&amp;quot;action&amp;quot;:&amp;quot;line&amp;quot;,&amp;quot;x&amp;quot;:&amp;quot;w&amp;quot;,&amp;quot;y&amp;quot;:&amp;quot;0&amp;quot;},{&amp;quot;action&amp;quot;:&amp;quot;line&amp;quot;,&amp;quot;x&amp;quot;:&amp;quot;w&amp;quot;,&amp;quot;y&amp;quot;:&amp;quot;h&amp;quot;},{&amp;quot;action&amp;quot;:&amp;quot;line&amp;quot;,&amp;quot;x&amp;quot;:&amp;quot;0&amp;quot;,&amp;quot;y&amp;quot;:&amp;quot;h&amp;quot;},{&amp;quot;action&amp;quot;:&amp;quot;close&amp;quot;}]}],&amp;quot;fontStyle&amp;quot;:{},&amp;quot;textBlock&amp;quot;:[{&amp;quot;position&amp;quot;:{&amp;quot;x&amp;quot;:10,&amp;quot;y&amp;quot;:0,&amp;quot;w&amp;quot;:&amp;quot;w-20&amp;quot;,&amp;quot;h&amp;quot;:&amp;quot;h&amp;quot;},&amp;quot;text&amp;quot;:&amp;quot;&amp;quot;}],&amp;quot;anchors&amp;quot;:[{&amp;quot;x&amp;quot;:&amp;quot;w/2&amp;quot;,&amp;quot;y&amp;quot;:&amp;quot;0&amp;quot;},{&amp;quot;x&amp;quot;:&amp;quot;w/2&amp;quot;,&amp;quot;y&amp;quot;:&amp;quot;h&amp;quot;},{&amp;quot;x&amp;quot;:&amp;quot;0&amp;quot;,&amp;quot;y&amp;quot;:&amp;quot;h/2&amp;quot;},{&amp;quot;x&amp;quot;:&amp;quot;w&amp;quot;,&amp;quot;y&amp;quot;:&amp;quot;h/2&amp;quot;}]},{&amp;quot;id&amp;quot;:&amp;quot;bAbrsYXIbv360928&amp;quot;,&amp;quot;name&amp;quot;:&amp;quot;process&amp;quot;,&amp;quot;title&amp;quot;:&amp;quot;流程&amp;quot;,&amp;quot;category&amp;quot;:&amp;quot;flow&amp;quot;,&amp;quot;group&amp;quot;:&amp;quot;&amp;quot;,&amp;quot;groupName&amp;quot;:null,&amp;quot;locked&amp;quot;:false,&amp;quot;link&amp;quot;:&amp;quot;&amp;quot;,&amp;quot;children&amp;quot;:[],&amp;quot;parent&amp;quot;:&amp;quot;&amp;quot;,&amp;quot;resizeDir&amp;quot;:[&amp;quot;tl&amp;quot;,&amp;quot;tr&amp;quot;,&amp;quot;br&amp;quot;,&amp;quot;bl&amp;quot;,&amp;quot;l&amp;quot;,&amp;quot;t&amp;quot;,&amp;quot;r&amp;quot;,&amp;quot;b&amp;quot;],&amp;quot;attribute&amp;quot;:{&amp;quot;container&amp;quot;:false,&amp;quot;visible&amp;quot;:true,&amp;quot;rotatable&amp;quot;:true,&amp;quot;linkable&amp;quot;:true,&amp;quot;collapsable&amp;quot;:false,&amp;quot;collapsed&amp;quot;:false,&amp;quot;fixedLink&amp;quot;:false,&amp;quot;markerOffset&amp;quot;:5},&amp;quot;dataAttributes&amp;quot;:[{&amp;quot;name&amp;quot;:&amp;quot;序号&amp;quot;,&amp;quot;type&amp;quot;:&amp;quot;number&amp;quot;,&amp;quot;value&amp;quot;:&amp;quot;&amp;quot;,&amp;quot;category&amp;quot;:&amp;quot;default&amp;quot;,&amp;quot;id&amp;quot;:&amp;quot;aqbdPifDKP888229&amp;quot;},{&amp;quot;name&amp;quot;:&amp;quot;名称&amp;quot;,&amp;quot;type&amp;quot;:&amp;quot;string&amp;quot;,&amp;quot;value&amp;quot;:&amp;quot;&amp;quot;,&amp;quot;category&amp;quot;:&amp;quot;default&amp;quot;,&amp;quot;id&amp;quot;:&amp;quot;qzJKWJpiFu894256&amp;quot;},{&amp;quot;name&amp;quot;:&amp;quot;所有者&amp;quot;,&amp;quot;type&amp;quot;:&amp;quot;string&amp;quot;,&amp;quot;value&amp;quot;:&amp;quot;&amp;quot;,&amp;quot;category&amp;quot;:&amp;quot;default&amp;quot;,&amp;quot;id&amp;quot;:&amp;quot;TaWmugGwQc144460&amp;quot;},{&amp;quot;name&amp;quot;:&amp;quot;连接&amp;quot;,&amp;quot;type&amp;quot;:&amp;quot;link&amp;quot;,&amp;quot;value&amp;quot;:&amp;quot;&amp;quot;,&amp;quot;category&amp;quot;:&amp;quot;default&amp;quot;,&amp;quot;id&amp;quot;:&amp;quot;dFtDpSaEYK097941&amp;quot;},{&amp;quot;name&amp;quot;:&amp;quot;便笺&amp;quot;,&amp;quot;type&amp;quot;:&amp;quot;string&amp;quot;,&amp;quot;value&amp;quot;:&amp;quot;&amp;quot;,&amp;quot;category&amp;quot;:&amp;quot;default&amp;quot;,&amp;quot;id&amp;quot;:&amp;quot;nJzZQBbMlp168042&amp;quot;},{&amp;quot;name&amp;quot;:&amp;quot;成本&amp;quot;,&amp;quot;type&amp;quot;:&amp;quot;number&amp;quot;,&amp;quot;value&amp;quot;:&amp;quot;&amp;quot;,&amp;quot;category&amp;quot;:&amp;quot;default&amp;quot;,&amp;quot;id&amp;quot;:&amp;quot;lcTUjidwoZ079719&amp;quot;},{&amp;quot;name&amp;quot;:&amp;quot;时间&amp;quot;,&amp;quot;type&amp;quot;:&amp;quot;number&amp;quot;,&amp;quot;value&amp;quot;:&amp;quot;&amp;quot;,&amp;quot;category&amp;quot;:&amp;quot;default&amp;quot;,&amp;quot;id&amp;quot;:&amp;quot;zHcxErOATY325437&amp;quot;},{&amp;quot;name&amp;quot;:&amp;quot;部门&amp;quot;,&amp;quot;type&amp;quot;:&amp;quot;string&amp;quot;,&amp;quot;value&amp;quot;:&amp;quot;&amp;quot;,&amp;quot;category&amp;quot;:&amp;quot;default&amp;quot;,&amp;quot;id&amp;quot;:&amp;quot;WjbhFCxMfF284818&amp;quot;},{&amp;quot;name&amp;quot;:&amp;quot;输入&amp;quot;,&amp;quot;type&amp;quot;:&amp;quot;string&amp;quot;,&amp;quot;value&amp;quot;:&amp;quot;&amp;quot;,&amp;quot;category&amp;quot;:&amp;quot;default&amp;quot;,&amp;quot;id&amp;quot;:&amp;quot;stjtPcNoFu634053&amp;quot;},{&amp;quot;name&amp;quot;:&amp;quot;输出&amp;quot;,&amp;quot;type&amp;quot;:&amp;quot;string&amp;quot;,&amp;quot;value&amp;quot;:&amp;quot;&amp;quot;,&amp;quot;category&amp;quot;:&amp;quot;default&amp;quot;,&amp;quot;id&amp;quot;:&amp;quot;zufYdtWkiU375240&amp;quot;},{&amp;quot;name&amp;quot;:&amp;quot;风险&amp;quot;,&amp;quot;type&amp;quot;:&amp;quot;string&amp;quot;,&amp;quot;value&amp;quot;:&amp;quot;&amp;quot;,&amp;quot;category&amp;quot;:&amp;quot;default&amp;quot;,&amp;quot;id&amp;quot;:&amp;quot;HFovUgOmjR108270&amp;quot;},{&amp;quot;name&amp;quot;:&amp;quot;备注&amp;quot;,&amp;quot;type&amp;quot;:&amp;quot;string&amp;quot;,&amp;quot;value&amp;quot;:&amp;quot;&amp;quot;,&amp;quot;category&amp;quot;:&amp;quot;default&amp;quot;,&amp;quot;id&amp;quot;:&amp;quot;CVZGQCHkhs328939&amp;quot;}],&amp;quot;props&amp;quot;:{&amp;quot;x&amp;quot;:196.60246450624226,&amp;quot;y&amp;quot;:1421.490216812952,&amp;quot;w&amp;quot;:100,&amp;quot;h&amp;quot;:40,&amp;quot;zindex&amp;quot;:136,&amp;quot;angle&amp;quot;:0},&amp;quot;shapeStyle&amp;quot;:{&amp;quot;alpha&amp;quot;:1},&amp;quot;lineStyle&amp;quot;:{&amp;quot;lineWidth&amp;quot;:1.5},&amp;quot;fillStyle&amp;quot;:{},&amp;quot;theme&amp;quot;:{},&amp;quot;path&amp;quot;:[{&amp;quot;actions&amp;quot;:[{&amp;quot;action&amp;quot;:&amp;quot;move&amp;quot;,&amp;quot;x&amp;quot;:&amp;quot;0&amp;quot;,&amp;quot;y&amp;quot;:&amp;quot;0&amp;quot;},{&amp;quot;action&amp;quot;:&amp;quot;line&amp;quot;,&amp;quot;x&amp;quot;:&amp;quot;w&amp;quot;,&amp;quot;y&amp;quot;:&amp;quot;0&amp;quot;},{&amp;quot;action&amp;quot;:&amp;quot;line&amp;quot;,&amp;quot;x&amp;quot;:&amp;quot;w&amp;quot;,&amp;quot;y&amp;quot;:&amp;quot;h&amp;quot;},{&amp;quot;action&amp;quot;:&amp;quot;line&amp;quot;,&amp;quot;x&amp;quot;:&amp;quot;0&amp;quot;,&amp;quot;y&amp;quot;:&amp;quot;h&amp;quot;},{&amp;quot;action&amp;quot;:&amp;quot;close&amp;quot;}]}],&amp;quot;fontStyle&amp;quot;:{},&amp;quot;textBlock&amp;quot;:[{&amp;quot;position&amp;quot;:{&amp;quot;x&amp;quot;:10,&amp;quot;y&amp;quot;:0,&amp;quot;w&amp;quot;:&amp;quot;w-20&amp;quot;,&amp;quot;h&amp;quot;:&amp;quot;h&amp;quot;},&amp;quot;text&amp;quot;:&amp;quot;Hardware Abstract Layer/C+ +&amp;quot;}],&amp;quot;anchors&amp;quot;:[{&amp;quot;x&amp;quot;:&amp;quot;w/2&amp;quot;,&amp;quot;y&amp;quot;:&amp;quot;0&amp;quot;},{&amp;quot;x&amp;quot;:&amp;quot;w/2&amp;quot;,&amp;quot;y&amp;quot;:&amp;quot;h&amp;quot;},{&amp;quot;x&amp;quot;:&amp;quot;0&amp;quot;,&amp;quot;y&amp;quot;:&amp;quot;h/2&amp;quot;},{&amp;quot;x&amp;quot;:&amp;quot;w&amp;quot;,&amp;quot;y&amp;quot;:&amp;quot;h/2&amp;quot;}]},{&amp;quot;id&amp;quot;:&amp;quot;KWyGdRVXfu983273&amp;quot;,&amp;quot;name&amp;quot;:&amp;quot;process&amp;quot;,&amp;quot;title&amp;quot;:&amp;quot;流程&amp;quot;,&amp;quot;category&amp;quot;:&amp;quot;flow&amp;quot;,&amp;quot;group&amp;quot;:&amp;quot;&amp;quot;,&amp;quot;groupName&amp;quot;:null,&amp;quot;locked&amp;quot;:false,&amp;quot;link&amp;quot;:&amp;quot;&amp;quot;,&amp;quot;children&amp;quot;:[],&amp;quot;parent&amp;quot;:&amp;quot;&amp;quot;,&amp;quot;resizeDir&amp;quot;:[&amp;quot;tl&amp;quot;,&amp;quot;tr&amp;quot;,&amp;quot;br&amp;quot;,&amp;quot;bl&amp;quot;,&amp;quot;l&amp;quot;,&amp;quot;t&amp;quot;,&amp;quot;r&amp;quot;,&amp;quot;b&amp;quot;],&amp;quot;attribute&amp;quot;:{&amp;quot;container&amp;quot;:false,&amp;quot;visible&amp;quot;:true,&amp;quot;rotatable&amp;quot;:true,&amp;quot;linkable&amp;quot;:true,&amp;quot;collapsable&amp;quot;:false,&amp;quot;collapsed&amp;quot;:false,&amp;quot;fixedLink&amp;quot;:false,&amp;quot;markerOffset&amp;quot;:5},&amp;quot;dataAttributes&amp;quot;:[{&amp;quot;name&amp;quot;:&amp;quot;序号&amp;quot;,&amp;quot;type&amp;quot;:&amp;quot;number&amp;quot;,&amp;quot;value&amp;quot;:&amp;quot;&amp;quot;,&amp;quot;category&amp;quot;:&amp;quot;default&amp;quot;,&amp;quot;id&amp;quot;:&amp;quot;XFCGsbmpnH842010&amp;quot;},{&amp;quot;name&amp;quot;:&amp;quot;名称&amp;quot;,&amp;quot;type&amp;quot;:&amp;quot;string&amp;quot;,&amp;quot;value&amp;quot;:&amp;quot;&amp;quot;,&amp;quot;category&amp;quot;:&amp;quot;default&amp;quot;,&amp;quot;id&amp;quot;:&amp;quot;EWJQDCotdz854884&amp;quot;},{&amp;quot;name&amp;quot;:&amp;quot;所有者&amp;quot;,&amp;quot;type&amp;quot;:&amp;quot;string&amp;quot;,&amp;quot;value&amp;quot;:&amp;quot;&amp;quot;,&amp;quot;category&amp;quot;:&amp;quot;default&amp;quot;,&amp;quot;id&amp;quot;:&amp;quot;DKYZFvcosw756524&amp;quot;},{&amp;quot;name&amp;quot;:&amp;quot;连接&amp;quot;,&amp;quot;type&amp;quot;:&amp;quot;link&amp;quot;,&amp;quot;value&amp;quot;:&amp;quot;&amp;quot;,&amp;quot;category&amp;quot;:&amp;quot;default&amp;quot;,&amp;quot;id&amp;quot;:&amp;quot;ZWCcZXJQpl071702&amp;quot;},{&amp;quot;name&amp;quot;:&amp;quot;便笺&amp;quot;,&amp;quot;type&amp;quot;:&amp;quot;string&amp;quot;,&amp;quot;value&amp;quot;:&amp;quot;&amp;quot;,&amp;quot;category&amp;quot;:&amp;quot;default&amp;quot;,&amp;quot;id&amp;quot;:&amp;quot;nSJzEzqHxu385493&amp;quot;},{&amp;quot;name&amp;quot;:&amp;quot;成本&amp;quot;,&amp;quot;type&amp;quot;:&amp;quot;number&amp;quot;,&amp;quot;value&amp;quot;:&amp;quot;&amp;quot;,&amp;quot;category&amp;quot;:&amp;quot;default&amp;quot;,&amp;quot;id&amp;quot;:&amp;quot;wqWoWPgFLY598431&amp;quot;},{&amp;quot;name&amp;quot;:&amp;quot;时间&amp;quot;,&amp;quot;type&amp;quot;:&amp;quot;number&amp;quot;,&amp;quot;value&amp;quot;:&amp;quot;&amp;quot;,&amp;quot;category&amp;quot;:&amp;quot;default&amp;quot;,&amp;quot;id&amp;quot;:&amp;quot;KlJnQjMwgG232480&amp;quot;},{&amp;quot;name&amp;quot;:&amp;quot;部门&amp;quot;,&amp;quot;type&amp;quot;:&amp;quot;string&amp;quot;,&amp;quot;value&amp;quot;:&amp;quot;&amp;quot;,&amp;quot;category&amp;quot;:&amp;quot;default&amp;quot;,&amp;quot;id&amp;quot;:&amp;quot;gPvQkHsVze911981&amp;quot;},{&amp;quot;name&amp;quot;:&amp;quot;输入&amp;quot;,&amp;quot;type&amp;quot;:&amp;quot;string&amp;quot;,&amp;quot;value&amp;quot;:&amp;quot;&amp;quot;,&amp;quot;category&amp;quot;:&amp;quot;default&amp;quot;,&amp;quot;id&amp;quot;:&amp;quot;IDyvnhrvqk290039&amp;quot;},{&amp;quot;name&amp;quot;:&amp;quot;输出&amp;quot;,&amp;quot;type&amp;quot;:&amp;quot;string&amp;quot;,&amp;quot;value&amp;quot;:&amp;quot;&amp;quot;,&amp;quot;category&amp;quot;:&amp;quot;default&amp;quot;,&amp;quot;id&amp;quot;:&amp;quot;gHGOsvjNCp732534&amp;quot;},{&amp;quot;name&amp;quot;:&amp;quot;风险&amp;quot;,&amp;quot;type&amp;quot;:&amp;quot;string&amp;quot;,&amp;quot;value&amp;quot;:&amp;quot;&amp;quot;,&amp;quot;category&amp;quot;:&amp;quot;default&amp;quot;,&amp;quot;id&amp;quot;:&amp;quot;PKUGrzoEyF177955&amp;quot;},{&amp;quot;name&amp;quot;:&amp;quot;备注&amp;quot;,&amp;quot;type&amp;quot;:&amp;quot;string&amp;quot;,&amp;quot;value&amp;quot;:&amp;quot;&amp;quot;,&amp;quot;category&amp;quot;:&amp;quot;default&amp;quot;,&amp;quot;id&amp;quot;:&amp;quot;QpJKKKqBry401163&amp;quot;}],&amp;quot;props&amp;quot;:{&amp;quot;x&amp;quot;:331,&amp;quot;y&amp;quot;:1420.211814880371,&amp;quot;w&amp;quot;:100,&amp;quot;h&amp;quot;:40,&amp;quot;zindex&amp;quot;:137,&amp;quot;angle&amp;quot;:0},&amp;quot;shapeStyle&amp;quot;:{&amp;quot;alpha&amp;quot;:1},&amp;quot;lineStyle&amp;quot;:{&amp;quot;lineWidth&amp;quot;:1.5},&amp;quot;fillStyle&amp;quot;:{},&amp;quot;theme&amp;quot;:{},&amp;quot;path&amp;quot;:[{&amp;quot;actions&amp;quot;:[{&amp;quot;action&amp;quot;:&amp;quot;move&amp;quot;,&amp;quot;x&amp;quot;:&amp;quot;0&amp;quot;,&amp;quot;y&amp;quot;:&amp;quot;0&amp;quot;},{&amp;quot;action&amp;quot;:&amp;quot;line&amp;quot;,&amp;quot;x&amp;quot;:&amp;quot;w&amp;quot;,&amp;quot;y&amp;quot;:&amp;quot;0&amp;quot;},{&amp;quot;action&amp;quot;:&amp;quot;line&amp;quot;,&amp;quot;x&amp;quot;:&amp;quot;w&amp;quot;,&amp;quot;y&amp;quot;:&amp;quot;h&amp;quot;},{&amp;quot;action&amp;quot;:&amp;quot;line&amp;quot;,&amp;quot;x&amp;quot;:&amp;quot;0&amp;quot;,&amp;quot;y&amp;quot;:&amp;quot;h&amp;quot;},{&amp;quot;action&amp;quot;:&amp;quot;close&amp;quot;}]}],&amp;quot;fontStyle&amp;quot;:{},&amp;quot;textBlock&amp;quot;:[{&amp;quot;position&amp;quot;:{&amp;quot;x&amp;quot;:10,&amp;quot;y&amp;quot;:0,&amp;quot;w&amp;quot;:&amp;quot;w-20&amp;quot;,&amp;quot;h&amp;quot;:&amp;quot;h&amp;quot;},&amp;quot;text&amp;quot;:&amp;quot;RILD&amp;quot;}],&amp;quot;anchors&amp;quot;:[{&amp;quot;x&amp;quot;:&amp;quot;w/2&amp;quot;,&amp;quot;y&amp;quot;:&amp;quot;0&amp;quot;},{&amp;quot;x&amp;quot;:&amp;quot;w/2&amp;quot;,&amp;quot;y&amp;quot;:&amp;quot;h&amp;quot;},{&amp;quot;x&amp;quot;:&amp;quot;0&amp;quot;,&amp;quot;y&amp;quot;:&amp;quot;h/2&amp;quot;},{&amp;quot;x&amp;quot;:&amp;quot;w&amp;quot;,&amp;quot;y&amp;quot;:&amp;quot;h/2&amp;quot;}]},{&amp;quot;id&amp;quot;:&amp;quot;ZddbaidbbA371411&amp;quot;,&amp;quot;name&amp;quot;:&amp;quot;process&amp;quot;,&amp;quot;title&amp;quot;:&amp;quot;流程&amp;quot;,&amp;quot;category&amp;quot;:&amp;quot;flow&amp;quot;,&amp;quot;group&amp;quot;:&amp;quot;&amp;quot;,&amp;quot;groupName&amp;quot;:null,&amp;quot;locked&amp;quot;:false,&amp;quot;link&amp;quot;:&amp;quot;&amp;quot;,&amp;quot;children&amp;quot;:[],&amp;quot;parent&amp;quot;:&amp;quot;&amp;quot;,&amp;quot;resizeDir&amp;quot;:[&amp;quot;tl&amp;quot;,&amp;quot;tr&amp;quot;,&amp;quot;br&amp;quot;,&amp;quot;bl&amp;quot;,&amp;quot;l&amp;quot;,&amp;quot;t&amp;quot;,&amp;quot;r&amp;quot;,&amp;quot;b&amp;quot;],&amp;quot;attribute&amp;quot;:{&amp;quot;container&amp;quot;:false,&amp;quot;visible&amp;quot;:true,&amp;quot;rotatable&amp;quot;:true,&amp;quot;linkable&amp;quot;:true,&amp;quot;collapsable&amp;quot;:false,&amp;quot;collapsed&amp;quot;:false,&amp;quot;fixedLink&amp;quot;:false,&amp;quot;markerOffset&amp;quot;:5},&amp;quot;dataAttributes&amp;quot;:[{&amp;quot;name&amp;quot;:&amp;quot;序号&amp;quot;,&amp;quot;type&amp;quot;:&amp;quot;number&amp;quot;,&amp;quot;value&amp;quot;:&amp;quot;&amp;quot;,&amp;quot;category&amp;quot;:&amp;quot;default&amp;quot;,&amp;quot;id&amp;quot;:&amp;quot;XeBrqTdMAr944337&amp;quot;},{&amp;quot;name&amp;quot;:&amp;quot;名称&amp;quot;,&amp;quot;type&amp;quot;:&amp;quot;string&amp;quot;,&amp;quot;value&amp;quot;:&amp;quot;&amp;quot;,&amp;quot;category&amp;quot;:&amp;quot;default&amp;quot;,&amp;quot;id&amp;quot;:&amp;quot;kvQinfQmlm162960&amp;quot;},{&amp;quot;name&amp;quot;:&amp;quot;所有者&amp;quot;,&amp;quot;type&amp;quot;:&amp;quot;string&amp;quot;,&amp;quot;value&amp;quot;:&amp;quot;&amp;quot;,&amp;quot;category&amp;quot;:&amp;quot;default&amp;quot;,&amp;quot;id&amp;quot;:&amp;quot;WiYgpVFJcT682212&amp;quot;},{&amp;quot;name&amp;quot;:&amp;quot;连接&amp;quot;,&amp;quot;type&amp;quot;:&amp;quot;link&amp;quot;,&amp;quot;value&amp;quot;:&amp;quot;&amp;quot;,&amp;quot;category&amp;quot;:&amp;quot;default&amp;quot;,&amp;quot;id&amp;quot;:&amp;quot;sxxbfssgyt956585&amp;quot;},{&amp;quot;name&amp;quot;:&amp;quot;便笺&amp;quot;,&amp;quot;type&amp;quot;:&amp;quot;string&amp;quot;,&amp;quot;value&amp;quot;:&amp;quot;&amp;quot;,&amp;quot;category&amp;quot;:&amp;quot;default&amp;quot;,&amp;quot;id&amp;quot;:&amp;quot;SRdDCpARVV247455&amp;quot;},{&amp;quot;name&amp;quot;:&amp;quot;成本&amp;quot;,&amp;quot;type&amp;quot;:&amp;quot;number&amp;quot;,&amp;quot;value&amp;quot;:&amp;quot;&amp;quot;,&amp;quot;category&amp;quot;:&amp;quot;default&amp;quot;,&amp;quot;id&amp;quot;:&amp;quot;yNgpTcdWFa212683&amp;quot;},{&amp;quot;name&amp;quot;:&amp;quot;时间&amp;quot;,&amp;quot;type&amp;quot;:&amp;quot;number&amp;quot;,&amp;quot;value&amp;quot;:&amp;quot;&amp;quot;,&amp;quot;category&amp;quot;:&amp;quot;default&amp;quot;,&amp;quot;id&amp;quot;:&amp;quot;xYJyZgJrbw435537&amp;quot;},{&amp;quot;name&amp;quot;:&amp;quot;部门&amp;quot;,&amp;quot;type&amp;quot;:&amp;quot;string&amp;quot;,&amp;quot;value&amp;quot;:&amp;quot;&amp;quot;,&amp;quot;category&amp;quot;:&amp;quot;default&amp;quot;,&amp;quot;id&amp;quot;:&amp;quot;nVpEpkycAS125187&amp;quot;},{&amp;quot;name&amp;quot;:&amp;quot;输入&amp;quot;,&amp;quot;type&amp;quot;:&amp;quot;string&amp;quot;,&amp;quot;value&amp;quot;:&amp;quot;&amp;quot;,&amp;quot;category&amp;quot;:&amp;quot;default&amp;quot;,&amp;quot;id&amp;quot;:&amp;quot;LKGOrdSpun459767&amp;quot;},{&amp;quot;name&amp;quot;:&amp;quot;输出&amp;quot;,&amp;quot;type&amp;quot;:&amp;quot;string&amp;quot;,&amp;quot;value&amp;quot;:&amp;quot;&amp;quot;,&amp;quot;category&amp;quot;:&amp;quot;default&amp;quot;,&amp;quot;id&amp;quot;:&amp;quot;UpvOmMZrPX423412&amp;quot;},{&amp;quot;name&amp;quot;:&amp;quot;风险&amp;quot;,&amp;quot;type&amp;quot;:&amp;quot;string&amp;quot;,&amp;quot;value&amp;quot;:&amp;quot;&amp;quot;,&amp;quot;category&amp;quot;:&amp;quot;default&amp;quot;,&amp;quot;id&amp;quot;:&amp;quot;KdYprzNPop425129&amp;quot;},{&amp;quot;name&amp;quot;:&amp;quot;备注&amp;quot;,&amp;quot;type&amp;quot;:&amp;quot;string&amp;quot;,&amp;quot;value&amp;quot;:&amp;quot;&amp;quot;,&amp;quot;category&amp;quot;:&amp;quot;default&amp;quot;,&amp;quot;id&amp;quot;:&amp;quot;EkEGnRvsUn246977&amp;quot;}],&amp;quot;props&amp;quot;:{&amp;quot;x&amp;quot;:463.2002257849575,&amp;quot;y&amp;quot;:1405.211814880371,&amp;quot;w&amp;quot;:266.50416921732415,&amp;quot;h&amp;quot;:70,&amp;quot;zindex&amp;quot;:138,&amp;quot;angle&amp;quot;:0},&amp;quot;shapeStyle&amp;quot;:{&amp;quot;alpha&amp;quot;:1},&amp;quot;lineStyle&amp;quot;:{&amp;quot;lineWidth&amp;quot;:1.5},&amp;quot;fillStyle&amp;quot;:{&amp;quot;type&amp;quot;:&amp;quot;solid&amp;quot;,&amp;quot;color&amp;quot;:&amp;quot;245,185,183&amp;quot;},&amp;quot;theme&amp;quot;:{},&amp;quot;path&amp;quot;:[{&amp;quot;actions&amp;quot;:[{&amp;quot;action&amp;quot;:&amp;quot;move&amp;quot;,&amp;quot;x&amp;quot;:&amp;quot;0&amp;quot;,&amp;quot;y&amp;quot;:&amp;quot;0&amp;quot;},{&amp;quot;action&amp;quot;:&amp;quot;line&amp;quot;,&amp;quot;x&amp;quot;:&amp;quot;w&amp;quot;,&amp;quot;y&amp;quot;:&amp;quot;0&amp;quot;},{&amp;quot;action&amp;quot;:&amp;quot;line&amp;quot;,&amp;quot;x&amp;quot;:&amp;quot;w&amp;quot;,&amp;quot;y&amp;quot;:&amp;quot;h&amp;quot;},{&amp;quot;action&amp;quot;:&amp;quot;line&amp;quot;,&amp;quot;x&amp;quot;:&amp;quot;0&amp;quot;,&amp;quot;y&amp;quot;:&amp;quot;h&amp;quot;},{&amp;quot;action&amp;quot;:&amp;quot;close&amp;quot;}]}],&amp;quot;fontStyle&amp;quot;:{},&amp;quot;textBlock&amp;quot;:[{&amp;quot;position&amp;quot;:{&amp;quot;x&amp;quot;:10,&amp;quot;y&amp;quot;:0,&amp;quot;w&amp;quot;:&amp;quot;w-20&amp;quot;,&amp;quot;h&amp;quot;:&amp;quot;h&amp;quot;},&amp;quot;text&amp;quot;:&amp;quot;&amp;quot;}],&amp;quot;anchors&amp;quot;:[{&amp;quot;x&amp;quot;:&amp;quot;w/2&amp;quot;,&amp;quot;y&amp;quot;:&amp;quot;0&amp;quot;},{&amp;quot;x&amp;quot;:&amp;quot;w/2&amp;quot;,&amp;quot;y&amp;quot;:&amp;quot;h&amp;quot;},{&amp;quot;x&amp;quot;:&amp;quot;0&amp;quot;,&amp;quot;y&amp;quot;:&amp;quot;h/2&amp;quot;},{&amp;quot;x&amp;quot;:&amp;quot;w&amp;quot;,&amp;quot;y&amp;quot;:&amp;quot;h/2&amp;quot;}]},{&amp;quot;id&amp;quot;:&amp;quot;SFHInpgGgQ836939&amp;quot;,&amp;quot;name&amp;quot;:&amp;quot;process&amp;quot;,&amp;quot;title&amp;quot;:&amp;quot;流程&amp;quot;,&amp;quot;category&amp;quot;:&amp;quot;flow&amp;quot;,&amp;quot;group&amp;quot;:&amp;quot;&amp;quot;,&amp;quot;groupName&amp;quot;:null,&amp;quot;locked&amp;quot;:false,&amp;quot;link&amp;quot;:&amp;quot;&amp;quot;,&amp;quot;children&amp;quot;:[],&amp;quot;parent&amp;quot;:&amp;quot;&amp;quot;,&amp;quot;resizeDir&amp;quot;:[&amp;quot;tl&amp;quot;,&amp;quot;tr&amp;quot;,&amp;quot;br&amp;quot;,&amp;quot;bl&amp;quot;,&amp;quot;l&amp;quot;,&amp;quot;t&amp;quot;,&amp;quot;r&amp;quot;,&amp;quot;b&amp;quot;],&amp;quot;attribute&amp;quot;:{&amp;quot;container&amp;quot;:false,&amp;quot;visible&amp;quot;:true,&amp;quot;rotatable&amp;quot;:true,&amp;quot;linkable&amp;quot;:true,&amp;quot;collapsable&amp;quot;:false,&amp;quot;collapsed&amp;quot;:false,&amp;quot;fixedLink&amp;quot;:false,&amp;quot;markerOffset&amp;quot;:5},&amp;quot;dataAttributes&amp;quot;:[{&amp;quot;name&amp;quot;:&amp;quot;序号&amp;quot;,&amp;quot;type&amp;quot;:&amp;quot;number&amp;quot;,&amp;quot;value&amp;quot;:&amp;quot;&amp;quot;,&amp;quot;category&amp;quot;:&amp;quot;default&amp;quot;,&amp;quot;id&amp;quot;:&amp;quot;LbchOBOwpH301554&amp;quot;},{&amp;quot;name&amp;quot;:&amp;quot;名称&amp;quot;,&amp;quot;type&amp;quot;:&amp;quot;string&amp;quot;,&amp;quot;value&amp;quot;:&amp;quot;&amp;quot;,&amp;quot;category&amp;quot;:&amp;quot;default&amp;quot;,&amp;quot;id&amp;quot;:&amp;quot;kISSurfUPk632311&amp;quot;},{&amp;quot;name&amp;quot;:&amp;quot;所有者&amp;quot;,&amp;quot;type&amp;quot;:&amp;quot;string&amp;quot;,&amp;quot;value&amp;quot;:&amp;quot;&amp;quot;,&amp;quot;category&amp;quot;:&amp;quot;default&amp;quot;,&amp;quot;id&amp;quot;:&amp;quot;owtypqeZmQ651331&amp;quot;},{&amp;quot;name&amp;quot;:&amp;quot;连接&amp;quot;,&amp;quot;type&amp;quot;:&amp;quot;link&amp;quot;,&amp;quot;value&amp;quot;:&amp;quot;&amp;quot;,&amp;quot;category&amp;quot;:&amp;quot;default&amp;quot;,&amp;quot;id&amp;quot;:&amp;quot;UoJhVsYldl865281&amp;quot;},{&amp;quot;name&amp;quot;:&amp;quot;便笺&amp;quot;,&amp;quot;type&amp;quot;:&amp;quot;string&amp;quot;,&amp;quot;value&amp;quot;:&amp;quot;&amp;quot;,&amp;quot;category&amp;quot;:&amp;quot;default&amp;quot;,&amp;quot;id&amp;quot;:&amp;quot;pqajXezVUl766768&amp;quot;},{&amp;quot;name&amp;quot;:&amp;quot;成本&amp;quot;,&amp;quot;type&amp;quot;:&amp;quot;number&amp;quot;,&amp;quot;value&amp;quot;:&amp;quot;&amp;quot;,&amp;quot;category&amp;quot;:&amp;quot;default&amp;quot;,&amp;quot;id&amp;quot;:&amp;quot;SUiamfWiFj263596&amp;quot;},{&amp;quot;name&amp;quot;:&amp;quot;时间&amp;quot;,&amp;quot;type&amp;quot;:&amp;quot;number&amp;quot;,&amp;quot;value&amp;quot;:&amp;quot;&amp;quot;,&amp;quot;category&amp;quot;:&amp;quot;default&amp;quot;,&amp;quot;id&amp;quot;:&amp;quot;mRPoosmDZp095387&amp;quot;},{&amp;quot;name&amp;quot;:&amp;quot;部门&amp;quot;,&amp;quot;type&amp;quot;:&amp;quot;string&amp;quot;,&amp;quot;value&amp;quot;:&amp;quot;&amp;quot;,&amp;quot;category&amp;quot;:&amp;quot;default&amp;quot;,&amp;quot;id&amp;quot;:&amp;quot;HubFfpxXPk385233&amp;quot;},{&amp;quot;name&amp;quot;:&amp;quot;输入&amp;quot;,&amp;quot;type&amp;quot;:&amp;quot;string&amp;quot;,&amp;quot;value&amp;quot;:&amp;quot;&amp;quot;,&amp;quot;category&amp;quot;:&amp;quot;default&amp;quot;,&amp;quot;id&amp;quot;:&amp;quot;pzjmJhEtZd100556&amp;quot;},{&amp;quot;name&amp;quot;:&amp;quot;输出&amp;quot;,&amp;quot;type&amp;quot;:&amp;quot;string&amp;quot;,&amp;quot;value&amp;quot;:&amp;quot;&amp;quot;,&amp;quot;category&amp;quot;:&amp;quot;default&amp;quot;,&amp;quot;id&amp;quot;:&amp;quot;DIQJAmTRzP181240&amp;quot;},{&amp;quot;name&amp;quot;:&amp;quot;风险&amp;quot;,&amp;quot;type&amp;quot;:&amp;quot;string&amp;quot;,&amp;quot;value&amp;quot;:&amp;quot;&amp;quot;,&amp;quot;category&amp;quot;:&amp;quot;default&amp;quot;,&amp;quot;id&amp;quot;:&amp;quot;gQcAyJYvUQ548850&amp;quot;},{&amp;quot;name&amp;quot;:&amp;quot;备注&amp;quot;,&amp;quot;type&amp;quot;:&amp;quot;string&amp;quot;,&amp;quot;value&amp;quot;:&amp;quot;&amp;quot;,&amp;quot;category&amp;quot;:&amp;quot;default&amp;quot;,&amp;quot;id&amp;quot;:&amp;quot;jUVliSNfQN023066&amp;quot;}],&amp;quot;props&amp;quot;:{&amp;quot;x&amp;quot;:489.82429781857513,&amp;quot;y&amp;quot;:1421.490216812952,&amp;quot;w&amp;quot;:100,&amp;quot;h&amp;quot;:40,&amp;quot;zindex&amp;quot;:139,&amp;quot;angle&amp;quot;:0},&amp;quot;shapeStyle&amp;quot;:{&amp;quot;alpha&amp;quot;:1},&amp;quot;lineStyle&amp;quot;:{&amp;quot;lineWidth&amp;quot;:1.5},&amp;quot;fillStyle&amp;quot;:{},&amp;quot;theme&amp;quot;:{},&amp;quot;path&amp;quot;:[{&amp;quot;actions&amp;quot;:[{&amp;quot;action&amp;quot;:&amp;quot;move&amp;quot;,&amp;quot;x&amp;quot;:&amp;quot;0&amp;quot;,&amp;quot;y&amp;quot;:&amp;quot;0&amp;quot;},{&amp;quot;action&amp;quot;:&amp;quot;line&amp;quot;,&amp;quot;x&amp;quot;:&amp;quot;w&amp;quot;,&amp;quot;y&amp;quot;:&amp;quot;0&amp;quot;},{&amp;quot;action&amp;quot;:&amp;quot;line&amp;quot;,&amp;quot;x&amp;quot;:&amp;quot;w&amp;quot;,&amp;quot;y&amp;quot;:&amp;quot;h&amp;quot;},{&amp;quot;action&amp;quot;:&amp;quot;line&amp;quot;,&amp;quot;x&amp;quot;:&amp;quot;0&amp;quot;,&amp;quot;y&amp;quot;:&amp;quot;h&amp;quot;},{&amp;quot;action&amp;quot;:&amp;quot;close&amp;quot;}]}],&amp;quot;fontStyle&amp;quot;:{},&amp;quot;textBlock&amp;quot;:[{&amp;quot;position&amp;quot;:{&amp;quot;x&amp;quot;:10,&amp;quot;y&amp;quot;:0,&amp;quot;w&amp;quot;:&amp;quot;w-20&amp;quot;,&amp;quot;h&amp;quot;:&amp;quot;h&amp;quot;},&amp;quot;text&amp;quot;:&amp;quot;vendor&amp;quot;}],&amp;quot;anchors&amp;quot;:[{&amp;quot;x&amp;quot;:&amp;quot;w/2&amp;quot;,&amp;quot;y&amp;quot;:&amp;quot;0&amp;quot;},{&amp;quot;x&amp;quot;:&amp;quot;w/2&amp;quot;,&amp;quot;y&amp;quot;:&amp;quot;h&amp;quot;},{&amp;quot;x&amp;quot;:&amp;quot;0&amp;quot;,&amp;quot;y&amp;quot;:&amp;quot;h/2&amp;quot;},{&amp;quot;x&amp;quot;:&amp;quot;w&amp;quot;,&amp;quot;y&amp;quot;:&amp;quot;h/2&amp;quot;}]},{&amp;quot;id&amp;quot;:&amp;quot;OZoLwjnNuI013726&amp;quot;,&amp;quot;name&amp;quot;:&amp;quot;process&amp;quot;,&amp;quot;title&amp;quot;:&amp;quot;流程&amp;quot;,&amp;quot;category&amp;quot;:&amp;quot;flow&amp;quot;,&amp;quot;group&amp;quot;:&amp;quot;&amp;quot;,&amp;quot;groupName&amp;quot;:null,&amp;quot;locked&amp;quot;:false,&amp;quot;link&amp;quot;:&amp;quot;&amp;quot;,&amp;quot;children&amp;quot;:[],&amp;quot;parent&amp;quot;:&amp;quot;&amp;quot;,&amp;quot;resizeDir&amp;quot;:[&amp;quot;tl&amp;quot;,&amp;quot;tr&amp;quot;,&amp;quot;br&amp;quot;,&amp;quot;bl&amp;quot;,&amp;quot;l&amp;quot;,&amp;quot;t&amp;quot;,&amp;quot;r&amp;quot;,&amp;quot;b&amp;quot;],&amp;quot;attribute&amp;quot;:{&amp;quot;container&amp;quot;:false,&amp;quot;visible&amp;quot;:true,&amp;quot;rotatable&amp;quot;:true,&amp;quot;linkable&amp;quot;:true,&amp;quot;collapsable&amp;quot;:false,&amp;quot;collapsed&amp;quot;:false,&amp;quot;fixedLink&amp;quot;:false,&amp;quot;markerOffset&amp;quot;:5},&amp;quot;dataAttributes&amp;quot;:[{&amp;quot;name&amp;quot;:&amp;quot;序号&amp;quot;,&amp;quot;type&amp;quot;:&amp;quot;number&amp;quot;,&amp;quot;value&amp;quot;:&amp;quot;&amp;quot;,&amp;quot;category&amp;quot;:&amp;quot;default&amp;quot;,&amp;quot;id&amp;quot;:&amp;quot;DuzWrdTqPd392486&amp;quot;},{&amp;quot;name&amp;quot;:&amp;quot;名称&amp;quot;,&amp;quot;type&amp;quot;:&amp;quot;string&amp;quot;,&amp;quot;value&amp;quot;:&amp;quot;&amp;quot;,&amp;quot;category&amp;quot;:&amp;quot;default&amp;quot;,&amp;quot;id&amp;quot;:&amp;quot;TCutTGCTXP309782&amp;quot;},{&amp;quot;name&amp;quot;:&amp;quot;所有者&amp;quot;,&amp;quot;type&amp;quot;:&amp;quot;string&amp;quot;,&amp;quot;value&amp;quot;:&amp;quot;&amp;quot;,&amp;quot;category&amp;quot;:&amp;quot;default&amp;quot;,&amp;quot;id&amp;quot;:&amp;quot;qvebELIofS342282&amp;quot;},{&amp;quot;name&amp;quot;:&amp;quot;连接&amp;quot;,&amp;quot;type&amp;quot;:&amp;quot;link&amp;quot;,&amp;quot;value&amp;quot;:&amp;quot;&amp;quot;,&amp;quot;category&amp;quot;:&amp;quot;default&amp;quot;,&amp;quot;id&amp;quot;:&amp;quot;tyRlQtVFdA245834&amp;quot;},{&amp;quot;name&amp;quot;:&amp;quot;便笺&amp;quot;,&amp;quot;type&amp;quot;:&amp;quot;string&amp;quot;,&amp;quot;value&amp;quot;:&amp;quot;&amp;quot;,&amp;quot;category&amp;quot;:&amp;quot;default&amp;quot;,&amp;quot;id&amp;quot;:&amp;quot;AuszhgsoSg052406&amp;quot;},{&amp;quot;name&amp;quot;:&amp;quot;成本&amp;quot;,&amp;quot;type&amp;quot;:&amp;quot;number&amp;quot;,&amp;quot;value&amp;quot;:&amp;quot;&amp;quot;,&amp;quot;category&amp;quot;:&amp;quot;default&amp;quot;,&amp;quot;id&amp;quot;:&amp;quot;dkJEQwEPzY889810&amp;quot;},{&amp;quot;name&amp;quot;:&amp;quot;时间&amp;quot;,&amp;quot;type&amp;quot;:&amp;quot;number&amp;quot;,&amp;quot;value&amp;quot;:&amp;quot;&amp;quot;,&amp;quot;category&amp;quot;:&amp;quot;default&amp;quot;,&amp;quot;id&amp;quot;:&amp;quot;MTxaVRXkNK880180&amp;quot;},{&amp;quot;name&amp;quot;:&amp;quot;部门&amp;quot;,&amp;quot;type&amp;quot;:&amp;quot;string&amp;quot;,&amp;quot;value&amp;quot;:&amp;quot;&amp;quot;,&amp;quot;category&amp;quot;:&amp;quot;default&amp;quot;,&amp;quot;id&amp;quot;:&amp;quot;OTsiMoILfq707706&amp;quot;},{&amp;quot;name&amp;quot;:&amp;quot;输入&amp;quot;,&amp;quot;type&amp;quot;:&amp;quot;string&amp;quot;,&amp;quot;value&amp;quot;:&amp;quot;&amp;quot;,&amp;quot;category&amp;quot;:&amp;quot;default&amp;quot;,&amp;quot;id&amp;quot;:&amp;quot;sstJwOxzrX668126&amp;quot;},{&amp;quot;name&amp;quot;:&amp;quot;输出&amp;quot;,&amp;quot;type&amp;quot;:&amp;quot;string&amp;quot;,&amp;quot;value&amp;quot;:&amp;quot;&amp;quot;,&amp;quot;category&amp;quot;:&amp;quot;default&amp;quot;,&amp;quot;id&amp;quot;:&amp;quot;BPtnoeLqQO518027&amp;quot;},{&amp;quot;name&amp;quot;:&amp;quot;风险&amp;quot;,&amp;quot;type&amp;quot;:&amp;quot;string&amp;quot;,&amp;quot;value&amp;quot;:&amp;quot;&amp;quot;,&amp;quot;category&amp;quot;:&amp;quot;default&amp;quot;,&amp;quot;id&amp;quot;:&amp;quot;TbGGEWloSO603890&amp;quot;},{&amp;quot;name&amp;quot;:&amp;quot;备注&amp;quot;,&amp;quot;type&amp;quot;:&amp;quot;string&amp;quot;,&amp;quot;value&amp;quot;:&amp;quot;&amp;quot;,&amp;quot;category&amp;quot;:&amp;quot;default&amp;quot;,&amp;quot;id&amp;quot;:&amp;quot;AuumadSsPZ092573&amp;quot;}],&amp;quot;props&amp;quot;:{&amp;quot;x&amp;quot;:623.4259259259261,&amp;quot;y&amp;quot;:1421.490216812952,&amp;quot;w&amp;quot;:100,&amp;quot;h&amp;quot;:40,&amp;quot;zindex&amp;quot;:140,&amp;quot;angle&amp;quot;:0},&amp;quot;shapeStyle&amp;quot;:{&amp;quot;alpha&amp;quot;:1},&amp;quot;lineStyle&amp;quot;:{&amp;quot;lineWidth&amp;quot;:1.5},&amp;quot;fillStyle&amp;quot;:{},&amp;quot;theme&amp;quot;:{},&amp;quot;path&amp;quot;:[{&amp;quot;actions&amp;quot;:[{&amp;quot;action&amp;quot;:&amp;quot;move&amp;quot;,&amp;quot;x&amp;quot;:&amp;quot;0&amp;quot;,&amp;quot;y&amp;quot;:&amp;quot;0&amp;quot;},{&amp;quot;action&amp;quot;:&amp;quot;line&amp;quot;,&amp;quot;x&amp;quot;:&amp;quot;w&amp;quot;,&amp;quot;y&amp;quot;:&amp;quot;0&amp;quot;},{&amp;quot;action&amp;quot;:&amp;quot;line&amp;quot;,&amp;quot;x&amp;quot;:&amp;quot;w&amp;quot;,&amp;quot;y&amp;quot;:&amp;quot;h&amp;quot;},{&amp;quot;action&amp;quot;:&amp;quot;line&amp;quot;,&amp;quot;x&amp;quot;:&amp;quot;0&amp;quot;,&amp;quot;y&amp;quot;:&amp;quot;h&amp;quot;},{&amp;quot;action&amp;quot;:&amp;quot;close&amp;quot;}]}],&amp;quot;fontStyle&amp;quot;:{},&amp;quot;textBlock&amp;quot;:[{&amp;quot;position&amp;quot;:{&amp;quot;x&amp;quot;:10,&amp;quot;y&amp;quot;:0,&amp;quot;w&amp;quot;:&amp;quot;w-20&amp;quot;,&amp;quot;h&amp;quot;:&amp;quot;h&amp;quot;},&amp;quot;text&amp;quot;:&amp;quot;ims&amp;quot;}],&amp;quot;anchors&amp;quot;:[{&amp;quot;x&amp;quot;:&amp;quot;w/2&amp;quot;,&amp;quot;y&amp;quot;:&amp;quot;0&amp;quot;},{&amp;quot;x&amp;quot;:&amp;quot;w/2&amp;quot;,&amp;quot;y&amp;quot;:&amp;quot;h&amp;quot;},{&amp;quot;x&amp;quot;:&amp;quot;0&amp;quot;,&amp;quot;y&amp;quot;:&amp;quot;h/2&amp;quot;},{&amp;quot;x&amp;quot;:&amp;quot;w&amp;quot;,&amp;quot;y&amp;quot;:&amp;quot;h/2&amp;quot;}]},{&amp;quot;id&amp;quot;:&amp;quot;IumIQZxwaQ488450&amp;quot;,&amp;quot;name&amp;quot;:&amp;quot;process&amp;quot;,&amp;quot;title&amp;quot;:&amp;quot;流程&amp;quot;,&amp;quot;category&amp;quot;:&amp;quot;flow&amp;quot;,&amp;quot;group&amp;quot;:&amp;quot;&amp;quot;,&amp;quot;groupName&amp;quot;:null,&amp;quot;locked&amp;quot;:false,&amp;quot;link&amp;quot;:&amp;quot;&amp;quot;,&amp;quot;children&amp;quot;:[],&amp;quot;parent&amp;quot;:&amp;quot;&amp;quot;,&amp;quot;resizeDir&amp;quot;:[&amp;quot;tl&amp;quot;,&amp;quot;tr&amp;quot;,&amp;quot;br&amp;quot;,&amp;quot;bl&amp;quot;,&amp;quot;l&amp;quot;,&amp;quot;t&amp;quot;,&amp;quot;r&amp;quot;,&amp;quot;b&amp;quot;],&amp;quot;attribute&amp;quot;:{&amp;quot;container&amp;quot;:false,&amp;quot;visible&amp;quot;:true,&amp;quot;rotatable&amp;quot;:true,&amp;quot;linkable&amp;quot;:true,&amp;quot;collapsable&amp;quot;:false,&amp;quot;collapsed&amp;quot;:false,&amp;quot;fixedLink&amp;quot;:false,&amp;quot;markerOffset&amp;quot;:5},&amp;quot;dataAttributes&amp;quot;:[{&amp;quot;name&amp;quot;:&amp;quot;序号&amp;quot;,&amp;quot;type&amp;quot;:&amp;quot;number&amp;quot;,&amp;quot;value&amp;quot;:&amp;quot;&amp;quot;,&amp;quot;category&amp;quot;:&amp;quot;default&amp;quot;,&amp;quot;id&amp;quot;:&amp;quot;TUMLkeVRQe102664&amp;quot;},{&amp;quot;name&amp;quot;:&amp;quot;名称&amp;quot;,&amp;quot;type&amp;quot;:&amp;quot;string&amp;quot;,&amp;quot;value&amp;quot;:&amp;quot;&amp;quot;,&amp;quot;category&amp;quot;:&amp;quot;default&amp;quot;,&amp;quot;id&amp;quot;:&amp;quot;JzcpxpTeUQ934644&amp;quot;},{&amp;quot;name&amp;quot;:&amp;quot;所有者&amp;quot;,&amp;quot;type&amp;quot;:&amp;quot;string&amp;quot;,&amp;quot;value&amp;quot;:&amp;quot;&amp;quot;,&amp;quot;category&amp;quot;:&amp;quot;default&amp;quot;,&amp;quot;id&amp;quot;:&amp;quot;MAlMYCvnvy164481&amp;quot;},{&amp;quot;name&amp;quot;:&amp;quot;连接&amp;quot;,&amp;quot;type&amp;quot;:&amp;quot;link&amp;quot;,&amp;quot;value&amp;quot;:&amp;quot;&amp;quot;,&amp;quot;category&amp;quot;:&amp;quot;default&amp;quot;,&amp;quot;id&amp;quot;:&amp;quot;jsNQzxEnKt489240&amp;quot;},{&amp;quot;name&amp;quot;:&amp;quot;便笺&amp;quot;,&amp;quot;type&amp;quot;:&amp;quot;string&amp;quot;,&amp;quot;value&amp;quot;:&amp;quot;&amp;quot;,&amp;quot;category&amp;quot;:&amp;quot;default&amp;quot;,&amp;quot;id&amp;quot;:&amp;quot;QmIhXFfcBm319946&amp;quot;},{&amp;quot;name&amp;quot;:&amp;quot;成本&amp;quot;,&amp;quot;type&amp;quot;:&amp;quot;number&amp;quot;,&amp;quot;value&amp;quot;:&amp;quot;&amp;quot;,&amp;quot;category&amp;quot;:&amp;quot;default&amp;quot;,&amp;quot;id&amp;quot;:&amp;quot;hGbMsIQOmx134113&amp;quot;},{&amp;quot;name&amp;quot;:&amp;quot;时间&amp;quot;,&amp;quot;type&amp;quot;:&amp;quot;number&amp;quot;,&amp;quot;value&amp;quot;:&amp;quot;&amp;quot;,&amp;quot;category&amp;quot;:&amp;quot;default&amp;quot;,&amp;quot;id&amp;quot;:&amp;quot;cvTfndTaNG286595&amp;quot;},{&amp;quot;name&amp;quot;:&amp;quot;部门&amp;quot;,&amp;quot;type&amp;quot;:&amp;quot;string&amp;quot;,&amp;quot;value&amp;quot;:&amp;quot;&amp;quot;,&amp;quot;category&amp;quot;:&amp;quot;default&amp;quot;,&amp;quot;id&amp;quot;:&amp;quot;XOTShEgIjO557567&amp;quot;},{&amp;quot;name&amp;quot;:&amp;quot;输入&amp;quot;,&amp;quot;type&amp;quot;:&amp;quot;string&amp;quot;,&amp;quot;value&amp;quot;:&amp;quot;&amp;quot;,&amp;quot;category&amp;quot;:&amp;quot;default&amp;quot;,&amp;quot;id&amp;quot;:&amp;quot;WHeoqiKwNS275074&amp;quot;},{&amp;quot;name&amp;quot;:&amp;quot;输出&amp;quot;,&amp;quot;type&amp;quot;:&amp;quot;string&amp;quot;,&amp;quot;value&amp;quot;:&amp;quot;&amp;quot;,&amp;quot;category&amp;quot;:&amp;quot;default&amp;quot;,&amp;quot;id&amp;quot;:&amp;quot;BOznEMycuv673680&amp;quot;},{&amp;quot;name&amp;quot;:&amp;quot;风险&amp;quot;,&amp;quot;type&amp;quot;:&amp;quot;string&amp;quot;,&amp;quot;value&amp;quot;:&amp;quot;&amp;quot;,&amp;quot;category&amp;quot;:&amp;quot;default&amp;quot;,&amp;quot;id&amp;quot;:&amp;quot;yDmgdPKkPT565259&amp;quot;},{&amp;quot;name&amp;quot;:&amp;quot;备注&amp;quot;,&amp;quot;type&amp;quot;:&amp;quot;string&amp;quot;,&amp;quot;value&amp;quot;:&amp;quot;&amp;quot;,&amp;quot;category&amp;quot;:&amp;quot;default&amp;quot;,&amp;quot;id&amp;quot;:&amp;quot;LHvXvRUock548025&amp;quot;}],&amp;quot;props&amp;quot;:{&amp;quot;x&amp;quot;:185.15131327876657,&amp;quot;y&amp;quot;:1494.5650876842594,&amp;quot;w&amp;quot;:266.84868672123343,&amp;quot;h&amp;quot;:70,&amp;quot;zindex&amp;quot;:141,&amp;quot;angle&amp;quot;:0},&amp;quot;shapeStyle&amp;quot;:{&amp;quot;alpha&amp;quot;:1},&amp;quot;lineStyle&amp;quot;:{&amp;quot;lineWidth&amp;quot;:1.5},&amp;quot;fillStyle&amp;quot;:{&amp;quot;type&amp;quot;:&amp;quot;solid&amp;quot;,&amp;quot;color&amp;quot;:&amp;quot;183,234,235&amp;quot;},&amp;quot;theme&amp;quot;:{},&amp;quot;path&amp;quot;:[{&amp;quot;actions&amp;quot;:[{&amp;quot;action&amp;quot;:&amp;quot;move&amp;quot;,&amp;quot;x&amp;quot;:&amp;quot;0&amp;quot;,&amp;quot;y&amp;quot;:&amp;quot;0&amp;quot;},{&amp;quot;action&amp;quot;:&amp;quot;line&amp;quot;,&amp;quot;x&amp;quot;:&amp;quot;w&amp;quot;,&amp;quot;y&amp;quot;:&amp;quot;0&amp;quot;},{&amp;quot;action&amp;quot;:&amp;quot;line&amp;quot;,&amp;quot;x&amp;quot;:&amp;quot;w&amp;quot;,&amp;quot;y&amp;quot;:&amp;quot;h&amp;quot;},{&amp;quot;action&amp;quot;:&amp;quot;line&amp;quot;,&amp;quot;x&amp;quot;:&amp;quot;0&amp;quot;,&amp;quot;y&amp;quot;:&amp;quot;h&amp;quot;},{&amp;quot;action&amp;quot;:&amp;quot;close&amp;quot;}]}],&amp;quot;fontStyle&amp;quot;:{},&amp;quot;textBlock&amp;quot;:[{&amp;quot;position&amp;quot;:{&amp;quot;x&amp;quot;:10,&amp;quot;y&amp;quot;:0,&amp;quot;w&amp;quot;:&amp;quot;w-20&amp;quot;,&amp;quot;h&amp;quot;:&amp;quot;h&amp;quot;},&amp;quot;text&amp;quot;:&amp;quot;Modem&amp;quot;}],&amp;quot;anchors&amp;quot;:[{&amp;quot;x&amp;quot;:&amp;quot;w/2&amp;quot;,&amp;quot;y&amp;quot;:&amp;quot;0&amp;quot;},{&amp;quot;x&amp;quot;:&amp;quot;w/2&amp;quot;,&amp;quot;y&amp;quot;:&amp;quot;h&amp;quot;},{&amp;quot;x&amp;quot;:&amp;quot;0&amp;quot;,&amp;quot;y&amp;quot;:&amp;quot;h/2&amp;quot;},{&amp;quot;x&amp;quot;:&amp;quot;w&amp;quot;,&amp;quot;y&amp;quot;:&amp;quot;h/2&amp;quot;}]},{&amp;quot;id&amp;quot;:&amp;quot;SlNSexTlIq509051&amp;quot;,&amp;quot;name&amp;quot;:&amp;quot;process&amp;quot;,&amp;quot;title&amp;quot;:&amp;quot;流程&amp;quot;,&amp;quot;category&amp;quot;:&amp;quot;flow&amp;quot;,&amp;quot;group&amp;quot;:&amp;quot;&amp;quot;,&amp;quot;groupName&amp;quot;:null,&amp;quot;locked&amp;quot;:false,&amp;quot;link&amp;quot;:&amp;quot;&amp;quot;,&amp;quot;children&amp;quot;:[],&amp;quot;parent&amp;quot;:&amp;quot;&amp;quot;,&amp;quot;resizeDir&amp;quot;:[&amp;quot;tl&amp;quot;,&amp;quot;tr&amp;quot;,&amp;quot;br&amp;quot;,&amp;quot;bl&amp;quot;,&amp;quot;l&amp;quot;,&amp;quot;t&amp;quot;,&amp;quot;r&amp;quot;,&amp;quot;b&amp;quot;],&amp;quot;attribute&amp;quot;:{&amp;quot;container&amp;quot;:false,&amp;quot;visible&amp;quot;:true,&amp;quot;rotatable&amp;quot;:true,&amp;quot;linkable&amp;quot;:true,&amp;quot;collapsable&amp;quot;:false,&amp;quot;collapsed&amp;quot;:false,&amp;quot;fixedLink&amp;quot;:false,&amp;quot;markerOffset&amp;quot;:5},&amp;quot;dataAttributes&amp;quot;:[{&amp;quot;name&amp;quot;:&amp;quot;序号&amp;quot;,&amp;quot;type&amp;quot;:&amp;quot;number&amp;quot;,&amp;quot;value&amp;quot;:&amp;quot;&amp;quot;,&amp;quot;category&amp;quot;:&amp;quot;default&amp;quot;,&amp;quot;id&amp;quot;:&amp;quot;RkTNRfJtuu151768&amp;quot;},{&amp;quot;name&amp;quot;:&amp;quot;名称&amp;quot;,&amp;quot;type&amp;quot;:&amp;quot;string&amp;quot;,&amp;quot;value&amp;quot;:&amp;quot;&amp;quot;,&amp;quot;category&amp;quot;:&amp;quot;default&amp;quot;,&amp;quot;id&amp;quot;:&amp;quot;zQafUelDnM339167&amp;quot;},{&amp;quot;name&amp;quot;:&amp;quot;所有者&amp;quot;,&amp;quot;type&amp;quot;:&amp;quot;string&amp;quot;,&amp;quot;value&amp;quot;:&amp;quot;&amp;quot;,&amp;quot;category&amp;quot;:&amp;quot;default&amp;quot;,&amp;quot;id&amp;quot;:&amp;quot;oDMjZjtNQn642354&amp;quot;},{&amp;quot;name&amp;quot;:&amp;quot;连接&amp;quot;,&amp;quot;type&amp;quot;:&amp;quot;link&amp;quot;,&amp;quot;value&amp;quot;:&amp;quot;&amp;quot;,&amp;quot;category&amp;quot;:&amp;quot;default&amp;quot;,&amp;quot;id&amp;quot;:&amp;quot;EsnePAbgqF006473&amp;quot;},{&amp;quot;name&amp;quot;:&amp;quot;便笺&amp;quot;,&amp;quot;type&amp;quot;:&amp;quot;string&amp;quot;,&amp;quot;value&amp;quot;:&amp;quot;&amp;quot;,&amp;quot;category&amp;quot;:&amp;quot;default&amp;quot;,&amp;quot;id&amp;quot;:&amp;quot;bdJURmwawN115537&amp;quot;},{&amp;quot;name&amp;quot;:&amp;quot;成本&amp;quot;,&amp;quot;type&amp;quot;:&amp;quot;number&amp;quot;,&amp;quot;value&amp;quot;:&amp;quot;&amp;quot;,&amp;quot;category&amp;quot;:&amp;quot;default&amp;quot;,&amp;quot;id&amp;quot;:&amp;quot;lDEHaTMzLr866181&amp;quot;},{&amp;quot;name&amp;quot;:&amp;quot;时间&amp;quot;,&amp;quot;type&amp;quot;:&amp;quot;number&amp;quot;,&amp;quot;value&amp;quot;:&amp;quot;&amp;quot;,&amp;quot;category&amp;quot;:&amp;quot;default&amp;quot;,&amp;quot;id&amp;quot;:&amp;quot;WhxtKSjoLq238436&amp;quot;},{&amp;quot;name&amp;quot;:&amp;quot;部门&amp;quot;,&amp;quot;type&amp;quot;:&amp;quot;string&amp;quot;,&amp;quot;value&amp;quot;:&amp;quot;&amp;quot;,&amp;quot;category&amp;quot;:&amp;quot;default&amp;quot;,&amp;quot;id&amp;quot;:&amp;quot;tlNSeuBxKz964703&amp;quot;},{&amp;quot;name&amp;quot;:&amp;quot;输入&amp;quot;,&amp;quot;type&amp;quot;:&amp;quot;string&amp;quot;,&amp;quot;value&amp;quot;:&amp;quot;&amp;quot;,&amp;quot;category&amp;quot;:&amp;quot;default&amp;quot;,&amp;quot;id&amp;quot;:&amp;quot;LHthyLXoSi355091&amp;quot;},{&amp;quot;name&amp;quot;:&amp;quot;输出&amp;quot;,&amp;quot;type&amp;quot;:&amp;quot;string&amp;quot;,&amp;quot;value&amp;quot;:&amp;quot;&amp;quot;,&amp;quot;category&amp;quot;:&amp;quot;default&amp;quot;,&amp;quot;id&amp;quot;:&amp;quot;arsmwvKPUa867996&amp;quot;},{&amp;quot;name&amp;quot;:&amp;quot;风险&amp;quot;,&amp;quot;type&amp;quot;:&amp;quot;string&amp;quot;,&amp;quot;value&amp;quot;:&amp;quot;&amp;quot;,&amp;quot;category&amp;quot;:&amp;quot;default&amp;quot;,&amp;quot;id&amp;quot;:&amp;quot;oQgHALPWlJ998180&amp;quot;},{&amp;quot;name&amp;quot;:&amp;quot;备注&amp;quot;,&amp;quot;type&amp;quot;:&amp;quot;string&amp;quot;,&amp;quot;value&amp;quot;:&amp;quot;&amp;quot;,&amp;quot;category&amp;quot;:&amp;quot;default&amp;quot;,&amp;quot;id&amp;quot;:&amp;quot;poczUgwLdE918134&amp;quot;}],&amp;quot;props&amp;quot;:{&amp;quot;x&amp;quot;:463.0279670330029,&amp;quot;y&amp;quot;:1494.5650876842594,&amp;quot;w&amp;quot;:266.84868672123343,&amp;quot;h&amp;quot;:70,&amp;quot;zindex&amp;quot;:142,&amp;quot;angle&amp;quot;:0},&amp;quot;shapeStyle&amp;quot;:{&amp;quot;alpha&amp;quot;:1},&amp;quot;lineStyle&amp;quot;:{&amp;quot;lineWidth&amp;quot;:1.5},&amp;quot;fillStyle&amp;quot;:{&amp;quot;type&amp;quot;:&amp;quot;solid&amp;quot;,&amp;quot;color&amp;quot;:&amp;quot;241,153,200&amp;quot;},&amp;quot;theme&amp;quot;:{},&amp;quot;path&amp;quot;:[{&amp;quot;actions&amp;quot;:[{&amp;quot;action&amp;quot;:&amp;quot;move&amp;quot;,&amp;quot;x&amp;quot;:&amp;quot;0&amp;quot;,&amp;quot;y&amp;quot;:&amp;quot;0&amp;quot;},{&amp;quot;action&amp;quot;:&amp;quot;line&amp;quot;,&amp;quot;x&amp;quot;:&amp;quot;w&amp;quot;,&amp;quot;y&amp;quot;:&amp;quot;0&amp;quot;},{&amp;quot;action&amp;quot;:&amp;quot;line&amp;quot;,&amp;quot;x&amp;quot;:&amp;quot;w&amp;quot;,&amp;quot;y&amp;quot;:&amp;quot;h&amp;quot;},{&amp;quot;action&amp;quot;:&amp;quot;line&amp;quot;,&amp;quot;x&amp;quot;:&amp;quot;0&amp;quot;,&amp;quot;y&amp;quot;:&amp;quot;h&amp;quot;},{&amp;quot;action&amp;quot;:&amp;quot;close&amp;quot;}]}],&amp;quot;fontStyle&amp;quot;:{},&amp;quot;textBlock&amp;quot;:[{&amp;quot;position&amp;quot;:{&amp;quot;x&amp;quot;:10,&amp;quot;y&amp;quot;:0,&amp;quot;w&amp;quot;:&amp;quot;w-20&amp;quot;,&amp;quot;h&amp;quot;:&amp;quot;h&amp;quot;},&amp;quot;text&amp;quot;:&amp;quot;media&amp;quot;}],&amp;quot;anchors&amp;quot;:[{&amp;quot;x&amp;quot;:&amp;quot;w/2&amp;quot;,&amp;quot;y&amp;quot;:&amp;quot;0&amp;quot;},{&amp;quot;x&amp;quot;:&amp;quot;w/2&amp;quot;,&amp;quot;y&amp;quot;:&amp;quot;h&amp;quot;},{&amp;quot;x&amp;quot;:&amp;quot;0&amp;quot;,&amp;quot;y&amp;quot;:&amp;quot;h/2&amp;quot;},{&amp;quot;x&amp;quot;:&amp;quot;w&amp;quot;,&amp;quot;y&amp;quot;:&amp;quot;h/2&amp;quot;}]}]}&quot;&gt; &lt;/div&gt;" style="text;whiteSpace=wrap;html=1;" vertex="1" parent="1">
          <mxGeometry x="400" y="1020" width="30" height="20" as="geometry" />
        </mxCell>
      </root>
    </mxGraphModel>
  </diagram>
</mxfile>
